SplineFontDB: 3.0
FontName: Junicode-Italic
FullName: Junicode Italic
FamilyName: Junicode
Weight: Book
Copyright: Copyright (c) 2002-2012 by Peter S. Baker
UComments: "uppercase diacritic: 525+AAoA-upper tier 2 diacritic: 850+AAoA-high lc diacritic: 600+AAoA-lc tier 2 diacritic: 325+AAoA-position of lc mark: 900+AAoA-position of lc mark above composed char: 1265+AAoA-position of cap mark: 1436+AAoA-position of mkmk base: 1245+AAoA-position of mkmk mark: 880+AAoA" 
Version: 0.7.8
ItalicAngle: -11
UnderlinePosition: -100
UnderlineWidth: 70
Ascent: 1491
Descent: 557
LayerCount: 2
Layer: 0 1 "Back"  1
Layer: 1 1 "Fore"  0
XUID: [1021 585 1589297001 11825107]
FSType: 0
OS2Version: 0
OS2_WeightWidthSlopeOnly: 0
OS2_UseTypoMetrics: 1
CreationTime: 1159967861
ModificationTime: 1356639148
PfmFamily: 17
TTFWeight: 400
TTFWidth: 5
LineGap: 385
VLineGap: 0
Panose: 2 4 5 2 0 0 0 0 0 0
OS2TypoAscent: 2100
OS2TypoAOffset: 0
OS2TypoDescent: -845
OS2TypoDOffset: 0
OS2TypoLinegap: 385
OS2WinAscent: 2100
OS2WinAOffset: 0
OS2WinDescent: 845
OS2WinDOffset: 0
HheadAscent: 2100
HheadAOffset: 0
HheadDescent: -845
HheadDOffset: 0
OS2SubXSize: 1331
OS2SubYSize: 1433
OS2SubXOff: 0
OS2SubYOff: 286
OS2SupXSize: 1331
OS2SupYSize: 1433
OS2SupXOff: 0
OS2SupYOff: 983
OS2StrikeYSize: 102
OS2StrikeYPos: 530
OS2FamilyClass: 256
OS2Vendor: 'psbk'
Lookup: 4 0 0 "'ccmp' Greek"  {"'ccmp' Greek subtable"  } ['ccmp' ('grek' <'dflt' > 'latn' <'dflt' > ) ]
Lookup: 4 0 0 "'ccmp' Glyph Composition/Decomposition in Latin lookup 7"  {"'ccmp' Glyph Composition/Decomposition in Latin double"  "'ccmp' Glyph Composition/Decomposition in Latin single"  } ['ccmp' ('DFLT' <'dflt' > 'latn' <'ISL ' 'dflt' > ) ]
Lookup: 5 0 0 "'ccmp' Contextual dot stripper"  {"ccmp Contextual dot stripper-1"  } ['ccmp' ('DFLT' <'dflt' > 'latn' <'ISL ' 'dflt' > ) ]
Lookup: 1 0 0 "'sups' superscripts"  {"'sups' superscripts subtable" ("superior" ) } ['sups' ('DFLT' <'dflt' > 'grek' <'dflt' > 'latn' <'ISL ' 'dflt' > ) ]

StartChar: exclam
Encoding: 33 33 1
Width: 520
GlyphClass: 2
Flags: W
LayerCount: 2
Fore
SplineSet
324 436 m 2,0,1
 318 419 318 419 287.5 419 c 128,-1,2
 257 419 257 419 257 432 c 0,3,-1
 442 1286 l 2,4,5
 450 1324 450 1324 489 1361.5 c 128,-1,6
 528 1399 528 1399 571 1399 c 0,7,8
 650 1399 650 1399 650 1329 c 0,9,10
 650 1302 650 1302 641 1278 c 2,11,-1
 324 436 l 2,0,1
317 90 m 128,-1,13
 317 38 317 38 282.5 6.5 c 128,-1,14
 248 -25 248 -25 201 -25 c 128,-1,15
 154 -25 154 -25 113 3.5 c 128,-1,16
 72 32 72 32 72 82.5 c 128,-1,17
 72 133 72 133 103 172 c 128,-1,18
 134 211 134 211 190 211 c 128,-1,19
 246 211 246 211 281.5 176.5 c 128,-1,12
 317 142 317 142 317 90 c 128,-1,13
EndSplineSet
Substitution2: "'ss18' Style Set 18 lookup 25-1" exclam.alt
Comment: "last+AD0A-19" 
Colour: ffffff
EndChar

StartChar: quotedbl
Encoding: 34 34 2
Width: 758
GlyphClass: 2
Flags: W
LayerCount: 2
Back
SplineSet
946 1397 m 0,0,1
 866 1223 866 1223 754 944 c 1,2,-1
 686 944 l 1,3,4
 699 999 699 999 725 1186 c 0,5,6
 750 1373 750 1373 756 1395 c 0,7,8
 780 1481 780 1481 874 1481 c 0,9,10
 951 1481 951 1481 951 1427 c 0,11,12
 951 1415 951 1415 946 1397 c 0,0,1
618 1397 m 0,13,14
 545 1234 545 1234 428 944 c 1,15,-1
 358 944 l 1,16,17
 371 999 371 999 397 1186 c 0,18,19
 422 1373 422 1373 428 1395 c 0,20,21
 452 1481 452 1481 549 1481 c 0,22,23
 623 1481 623 1481 623 1427 c 0,24,25
 623 1415 623 1415 618 1397 c 0,13,14
EndSplineSet
Fore
SplineSet
428 944 m 1,0,-1
 358 944 l 1,1,2
 371 999 371 999 397 1186 c 0,3,4
 422 1373 422 1373 428 1395 c 0,5,6
 452 1481 452 1481 549 1481 c 0,7,8
 623 1481 623 1481 623 1427 c 0,9,10
 623 1408 623 1408 618 1397 c 0,11,12
 548 1240 548 1240 428 944 c 1,0,-1
754 944 m 1,13,-1
 686 944 l 1,14,15
 699 999 699 999 725 1186 c 0,16,17
 750 1373 750 1373 756 1395 c 0,18,19
 780 1481 780 1481 866 1481 c 256,20,21
 952 1481 952 1481 951 1427 c 0,22,23
 951 1415 951 1415 946 1397 c 0,24,25
 866 1223 866 1223 754 944 c 1,13,-1
EndSplineSet
Comment: "last+AD0A-25" 
Colour: ffffff
EndChar

StartChar: numbersign
Encoding: 35 35 3
Width: 1024
GlyphClass: 2
Flags: W
LayerCount: 2
Fore
SplineSet
664 6 m 1,0,-1
 575 6 l 1,1,-1
 733 401 l 1,2,-1
 500 401 l 1,3,-1
 338 6 l 1,4,-1
 252 6 l 1,5,-1
 410 401 l 1,6,-1
 186 401 l 1,7,-1
 229 500 l 1,8,-1
 446 500 l 1,9,-1
 582 836 l 1,10,-1
 358 836 l 1,11,-1
 406 936 l 1,12,-1
 623 936 l 1,13,-1
 766 1290 l 1,14,-1
 862 1290 l 1,15,-1
 717 936 l 1,16,-1
 948 936 l 1,17,-1
 1090 1290 l 1,18,-1
 1188 1290 l 1,19,-1
 1042 936 l 1,20,-1
 1247 936 l 1,21,-1
 1206 836 l 1,22,-1
 1001 836 l 1,23,-1
 862 500 l 1,24,-1
 1063 500 l 1,25,-1
 1020 401 l 1,26,-1
 825 401 l 1,27,-1
 664 6 l 1,0,-1
770 500 m 1,28,-1
 907 836 l 1,29,-1
 676 836 l 1,30,-1
 537 500 l 1,31,-1
 770 500 l 1,28,-1
EndSplineSet
Comment: "last+AD0A-31" 
Colour: ffffff
EndChar

StartChar: dollar
Encoding: 36 36 4
Width: 926
GlyphClass: 2
Flags: W
LayerCount: 2
Fore
SplineSet
877 490 m 0,0,1
 877 310 877 310 737 160 c 128,-1,2
 597 10 597 10 414 -3 c 1,3,-1
 358 -195 l 2,4,5
 353 -211 353 -211 314.5 -211 c 128,-1,6
 276 -211 276 -211 281 -195 c 2,7,-1
 336 -3 l 1,8,9
 211 3 211 3 60 88 c 1,10,11
 60 242 60 242 92 357 c 256,12,13
 98 376 98 376 129.5 376 c 0,14,15
 160 376 160 376 158 360 c 0,16,17
 152 325 152 325 152 307 c 0,18,19
 152 109 152 109 358 71 c 1,20,-1
 513 605 l 1,21,22
 364 675 364 675 315.5 735 c 128,-1,23
 267 795 267 795 267 887 c 0,24,25
 267 1060 267 1060 404 1182 c 128,-1,26
 541 1304 541 1304 718 1312 c 1,27,-1
 768 1483 l 2,28,29
 773 1498 773 1498 811.5 1498 c 128,-1,30
 850 1498 850 1498 846 1483 c 2,31,-1
 796 1310 l 1,32,33
 827 1310 827 1310 910.5 1292.5 c 128,-1,34
 994 1275 994 1275 1010 1275 c 1,35,36
 1007 1171 1007 1171 976 1029 c 0,37,38
 972 1011 972 1011 941 1011 c 128,-1,39
 910 1011 910 1011 910 1027 c 2,40,-1
 909 1083 l 2,41,42
 907 1214 907 1214 776 1243 c 1,43,-1
 635 756 l 1,44,45
 769 706 769 706 823 646.5 c 128,-1,46
 877 587 877 587 877 490 c 0,0,1
565 782 m 1,47,48
 691 1216 691 1216 700 1250 c 1,49,50
 577 1250 577 1250 492.5 1162 c 128,-1,51
 408 1074 408 1074 408 950 c 0,52,53
 408 843 408 843 565 782 c 1,47,48
433 65 m 1,54,55
 547 67 547 67 632.5 166.5 c 128,-1,56
 718 266 718 266 718 382 c 256,57,58
 718 498 718 498 581 572 c 1,59,-1
 433 65 l 1,54,55
EndSplineSet
Substitution2: "'onum' Oldstyle Figures in Latin lookup 5" dollar.oldstyle
Comment: "last+AD0A-58" 
Colour: ffffff
EndChar

StartChar: percent
Encoding: 37 37 5
Width: 1923
GlyphClass: 2
Flags: W
LayerCount: 2
Fore
SplineSet
1842 519 m 0,0,1
 1842 338 1842 338 1699 148.5 c 128,-1,2
 1556 -41 1556 -41 1379 -41 c 256,3,4
 1235 -41 1235 -41 1169.5 39.5 c 128,-1,5
 1104 120 1104 120 1104 247 c 0,6,7
 1104 413 1104 413 1266 585 c 128,-1,8
 1428 757 1428 757 1592 757 c 256,9,10
 1720 757 1720 757 1781 692 c 128,-1,11
 1842 627 1842 627 1842 519 c 0,0,1
520 -120 m 2,12,13
 512 -130 512 -130 463.5 -130 c 128,-1,14
 415 -130 415 -130 421 -120 c 2,15,-1
 1444 1187 l 1,16,-1
 1439 1191 l 1,17,18
 1294 1111 1294 1111 1171 1111 c 0,19,20
 1096 1111 1096 1111 1026 1133 c 1,21,-1
 1026 1119 l 2,22,23
 1026 939 1026 939 883 749.5 c 128,-1,24
 740 560 740 560 564 560 c 256,25,26
 415 560 415 560 351.5 642 c 128,-1,27
 288 724 288 724 288 848 c 0,28,29
 288 1014 288 1014 450 1185.5 c 128,-1,30
 612 1357 612 1357 783 1357 c 0,31,32
 979 1357 979 1357 1018 1191 c 1,33,34
 1093 1165 1093 1165 1158 1165 c 0,35,36
 1426 1165 1426 1165 1646 1421 c 1,37,38
 1654 1430 1654 1430 1689 1430 c 128,-1,39
 1724 1430 1724 1430 1721 1421 c 1,40,-1
 520 -120 l 2,12,13
1762 535 m 256,41,42
 1762 696 1762 696 1631 696 c 0,43,44
 1516 696 1516 696 1377 494 c 128,-1,45
 1238 292 1238 292 1238 169 c 0,46,47
 1238 18 1238 18 1373 18 c 0,48,49
 1517 18 1517 18 1639.5 196 c 128,-1,50
 1762 374 1762 374 1762 535 c 256,41,42
946 1128 m 0,51,52
 946 1147 946 1147 944 1167 c 1,53,54
 854 1216 854 1216 819 1296 c 1,55,56
 734 1296 734 1296 643 1198.5 c 128,-1,57
 552 1101 552 1101 487 980 c 128,-1,58
 422 859 422 859 422 770 c 0,59,60
 422 619 422 619 558 619 c 0,61,62
 703 619 703 619 824.5 797 c 128,-1,63
 946 975 946 975 946 1128 c 0,51,52
EndSplineSet
Comment: "last+AD0A-63" 
Colour: ffffff
EndChar

StartChar: ampersand
Encoding: 38 38 6
Width: 1577
GlyphClass: 2
Flags: W
LayerCount: 2
Fore
SplineSet
1739 829 m 0,0,1
 1739 740 1739 740 1685 725 c 0,2,3
 1659 719 1659 719 1597 700 c 128,-1,4
 1535 681 1535 681 1481 657 c 0,5,6
 1476 655 1476 655 1466 655 c 128,-1,7
 1456 655 1456 655 1444 672 c 0,8,9
 1381 759 1381 759 1303 819 c 1,10,11
 1303 733 1303 733 1294.5 639 c 128,-1,12
 1286 545 1286 545 1213.5 383.5 c 128,-1,13
 1141 222 1141 222 973.5 96.5 c 128,-1,14
 806 -29 806 -29 584 -29 c 256,15,16
 381 -29 381 -29 261.5 83.5 c 128,-1,17
 142 196 142 196 142 385 c 0,18,19
 142 486 142 486 188.5 611 c 128,-1,20
 235 736 235 736 372.5 863.5 c 128,-1,21
 510 991 510 991 643 991 c 0,22,23
 696 991 696 991 720 974 c 128,-1,24
 744 957 744 957 772 909 c 1,25,26
 892 1006 892 1006 1013.5 1146 c 128,-1,27
 1135 1286 1135 1286 1135 1380 c 0,28,29
 1135 1412 1135 1412 1111.5 1439.5 c 128,-1,30
 1088 1467 1088 1467 1088 1487 c 0,31,32
 1088 1529 1088 1529 1114.5 1551 c 128,-1,33
 1141 1573 1141 1573 1170 1573 c 0,34,35
 1264 1573 1264 1573 1264 1462 c 0,36,37
 1264 1141 1264 1141 279 459 c 1,38,-1
 279 442 l 2,39,40
 279 268 279 268 386 178 c 0,41,42
 494 88 494 88 634 88 c 256,43,44
 774 88 774 88 923.5 184.5 c 128,-1,45
 1073 281 1073 281 1157.5 460 c 128,-1,46
 1242 639 1242 639 1250 844 c 1,47,48
 1210 879 1210 879 1146 879 c 256,49,50
 1082 879 1082 879 1038 835 c 128,-1,51
 994 791 994 791 994 759.5 c 128,-1,52
 994 728 994 728 1009 684 c 128,-1,53
 1024 640 1024 640 1024 621 c 0,54,55
 1024 563 1024 563 957 563 c 0,56,57
 869 563 869 563 869 645 c 0,58,59
 869 753 869 753 986 858 c 128,-1,60
 1103 963 1103 963 1211 963 c 0,61,62
 1265 963 1265 963 1318.5 935.5 c 128,-1,63
 1372 908 1372 908 1452 828 c 128,-1,64
 1532 748 1532 748 1576 748 c 256,65,66
 1614 748 1614 748 1614 811 c 0,67,68
 1614 829 1614 829 1598 892 c 1,69,70
 1598 919 1598 919 1620.5 932.5 c 128,-1,71
 1643 946 1643 946 1663 946 c 0,72,73
 1739 946 1739 946 1739 829 c 0,0,1
619 840 m 0,74,75
 619 903 619 903 551 903 c 0,76,77
 513 903 513 903 445.5 848.5 c 128,-1,78
 378 794 378 794 336.5 702 c 128,-1,79
 295 610 295 610 283 539 c 1,80,81
 503 690 503 690 617 791 c 1,82,83
 619 815 619 815 619 840 c 0,74,75
EndSplineSet
Substitution2: "'ss02' Style Set 2 in Latin lookup 10" uni204A
Comment: "last+AD0A-82" 
Colour: ffffff
EndChar

StartChar: quotesingle
Encoding: 39 39 7
Width: 422
GlyphClass: 2
Flags: W
LayerCount: 2
Fore
SplineSet
424 944 m 1,0,-1
 356 944 l 1,1,2
 379 1124 379 1124 424 1395 c 0,3,4
 448 1481 448 1481 543 1481 c 0,5,6
 619 1481 619 1481 619 1426 c 0,7,8
 619 1415 619 1415 614 1397 c 0,9,10
 541 1234 541 1234 424 944 c 1,0,-1
EndSplineSet
Comment: "last+AD0A-10" 
Colour: ffffff
EndChar

StartChar: parenleft
Encoding: 40 40 8
Width: 676
GlyphClass: 2
Flags: W
LayerCount: 2
Fore
SplineSet
270 188 m 0,0,1
 270 -79 270 -79 412 -287 c 0,2,3
 419 -298 419 -298 419 -314.5 c 128,-1,4
 419 -331 419 -331 401 -343.5 c 128,-1,5
 383 -356 383 -356 364.5 -354.5 c 128,-1,6
 346 -353 346 -353 334 -338 c 0,7,8
 134 -87 134 -87 134 211 c 0,9,10
 134 381 134 381 196.5 599.5 c 128,-1,11
 259 818 259 818 437.5 1077 c 128,-1,12
 616 1336 616 1336 864 1516 c 0,13,14
 883 1530 883 1530 903.5 1530 c 128,-1,15
 924 1530 924 1530 932 1520 c 128,-1,16
 940 1510 940 1510 938 1496.5 c 152,-1,17
 936 1483 936 1483 911 1464 c 0,18,19
 718 1314 718 1314 568 1096 c 128,-1,20
 418 878 418 878 344 624 c 128,-1,21
 270 370 270 370 270 188 c 0,0,1
EndSplineSet
Substitution2: "'subs' Subscript lookup 29-1" uni208D
Substitution2: "'sups' superscripts subtable" uni207D
Substitution2: "'ss18' Style Set 18 lookup 25-1" parenleft.alt1
Substitution2: "'ss16' Upright brackets-1" parenleft.alt
Comment: "last+AD0A-21" 
Colour: ffffff
EndChar

StartChar: parenright
Encoding: 41 41 9
Width: 676
GlyphClass: 2
Flags: W
LayerCount: 2
Fore
SplineSet
616 958 m 0,0,1
 616 786 616 786 551 560 c 128,-1,2
 486 334 486 334 294 77.5 c 128,-1,3
 102 -179 102 -179 -115 -338 c 0,4,5
 -137 -354 -137 -354 -155 -354 c 128,-1,6
 -173 -354 -173 -354 -182 -342 c 128,-1,7
 -191 -330 -191 -330 -189.5 -319 c 136,-1,8
 -188 -308 -188 -308 -162 -289 c 0,9,10
 65 -107 65 -107 206.5 115 c 128,-1,11
 348 337 348 337 414.5 568 c 128,-1,12
 481 799 481 799 481 987 c 0,13,14
 481 1251 481 1251 338 1462 c 0,15,16
 327 1478 327 1478 335.5 1504 c 128,-1,17
 344 1530 344 1530 374.5 1530 c 128,-1,18
 405 1530 405 1530 416 1516 c 0,19,20
 616 1263 616 1263 616 958 c 0,0,1
EndSplineSet
Substitution2: "'subs' Subscript lookup 29-1" uni208E
Substitution2: "'sups' superscripts subtable" uni207E
Substitution2: "'ss18' Style Set 18 lookup 25-1" parenright.alt1
Substitution2: "'ss16' Upright brackets-1" parenright.alt
Comment: "last+AD0A-20" 
Colour: ffffff
EndChar

StartChar: asterisk
Encoding: 42 42 10
Width: 807
GlyphClass: 2
Flags: W
LayerCount: 2
Fore
SplineSet
754 1187 m 1,0,-1
 476 1044 l 1,1,-1
 691 903 l 1,2,-1
 642 841 l 1,3,-1
 426 982 l 1,4,-1
 365 694 l 1,5,-1
 293 694 l 1,6,-1
 354 981 l 1,7,-1
 83 842 l 1,8,-1
 60 904 l 1,9,-1
 333 1044 l 1,10,-1
 117 1186 l 1,11,-1
 166 1248 l 1,12,-1
 381 1107 l 1,13,-1
 440 1384 l 1,14,-1
 512 1384 l 1,15,-1
 452 1105 l 1,16,-1
 731 1249 l 1,17,-1
 754 1187 l 1,0,-1
EndSplineSet
Comment: "last+AD0A-17" 
Colour: ffffff
EndChar

StartChar: plus
Encoding: 43 43 11
Width: 1024
GlyphClass: 2
Flags: W
LayerCount: 2
Fore
SplineSet
907 371 m 1,0,-1
 573 371 l 1,1,-1
 573 0 l 1,2,-1
 453 0 l 1,3,-1
 453 371 l 1,4,-1
 119 371 l 1,5,-1
 119 471 l 1,6,-1
 453 471 l 1,7,-1
 453 807 l 1,8,-1
 573 807 l 1,9,-1
 573 471 l 1,10,-1
 907 471 l 1,11,-1
 907 371 l 1,0,-1
EndSplineSet
Substitution2: "'subs' Subscript lookup 29-1" uni208A
Substitution2: "'sups' superscripts subtable" uni207A
Comment: "last+AD0A-11" 
Colour: ffffff
EndChar

StartChar: comma
Encoding: 44 44 12
Width: 520
GlyphClass: 2
Flags: W
LayerCount: 2
Fore
SplineSet
340 104 m 256,0,1
 340 28 340 28 291.5 -59.5 c 128,-1,2
 243 -147 243 -147 142 -234.5 c 128,-1,3
 41 -322 41 -322 -66 -369 c 0,4,5
 -68 -370 -68 -370 -71 -370 c 0,6,7
 -80 -370 -80 -370 -85 -361.5 c 128,-1,8
 -90 -353 -90 -353 -90 -346 c 0,9,10
 -90 -341 -90 -341 -86 -338 c 0,11,12
 -2 -276 -2 -276 69 -204.5 c 128,-1,13
 140 -133 140 -133 162 -57 c 0,14,15
 165 -46 165 -46 165 -25 c 128,-1,16
 165 -4 165 -4 147 4 c 0,17,18
 64 43 64 43 64 108 c 256,19,20
 64 159 64 159 107.5 197.5 c 128,-1,21
 151 236 151 236 211 236 c 0,22,23
 273 236 273 236 306.5 192 c 128,-1,24
 340 148 340 148 340 104 c 256,0,1
EndSplineSet
Comment: "last+AD0A-24" 
Colour: ffffff
EndChar

StartChar: hyphen
Encoding: 45 45 13
Width: 827
GlyphClass: 2
Flags: W
LayerCount: 2
Fore
SplineSet
745 487 m 2,0,-1
 172 487 l 2,1,2
 166 487 166 487 166 506 c 128,-1,3
 166 525 166 525 180 563.5 c 128,-1,4
 194 602 194 602 205 602 c 2,5,-1
 778 602 l 2,6,7
 784 602 784 602 784 580.5 c 128,-1,8
 784 559 784 559 769 523 c 128,-1,9
 754 487 754 487 745 487 c 2,0,-1
EndSplineSet
Substitution2: "'subs' Subscript lookup 29-1" uni208B
Substitution2: "'sups' superscripts subtable" uni207B
Comment: "last+AD0A-9" 
Colour: ffffff
EndChar

StartChar: period
Encoding: 46 46 14
Width: 520
GlyphClass: 2
Flags: W
LayerCount: 2
Fore
SplineSet
315 85.5 m 128,-1,1
 315 37 315 37 281.5 6 c 128,-1,2
 248 -25 248 -25 191 -25 c 128,-1,3
 134 -25 134 -25 103 12 c 128,-1,4
 72 49 72 49 72 92 c 128,-1,5
 72 135 72 135 104 173 c 128,-1,6
 136 211 136 211 196 211 c 128,-1,7
 256 211 256 211 285.5 172.5 c 128,-1,0
 315 134 315 134 315 85.5 c 128,-1,1
EndSplineSet
Comment: "last+AD0A-7" 
Colour: ffffff
EndChar

StartChar: slash
Encoding: 47 47 15
Width: 541
GlyphClass: 2
Flags: W
LayerCount: 2
Fore
SplineSet
90 -12 m 2,0,1
 84 -27 84 -27 57 -27 c 128,-1,2
 30 -27 30 -27 10 -8 c 128,-1,3
 -10 11 -10 11 -10 19 c 128,-1,4
 -10 27 -10 27 -8 33 c 2,5,-1
 602 1473 l 2,6,7
 608 1488 608 1488 635.5 1488 c 128,-1,8
 663 1488 663 1488 683.5 1469.5 c 128,-1,9
 704 1451 704 1451 704 1443.5 c 128,-1,10
 704 1436 704 1436 702 1430 c 2,11,-1
 90 -12 l 2,0,1
EndSplineSet
Comment: "last+AD0A-11" 
Colour: ffffff
EndChar

StartChar: zero
Encoding: 48 48 16
Width: 956
GlyphClass: 2
Flags: W
LayerCount: 2
Fore
SplineSet
1026 977 m 0,0,1
 1026 824 1026 824 967.5 608 c 128,-1,2
 909 392 909 392 753.5 188 c 128,-1,3
 598 -16 598 -16 391 -16 c 0,4,5
 118 -16 118 -16 118 338 c 0,6,7
 118 487 118 487 179.5 714.5 c 128,-1,8
 241 942 241 942 394.5 1137.5 c 128,-1,9
 548 1333 548 1333 754 1333 c 0,10,11
 1026 1333 1026 1333 1026 977 c 0,0,1
873 1094 m 256,12,13
 873 1268 873 1268 739 1268 c 0,14,15
 610 1268 610 1268 506.5 1086 c 128,-1,16
 403 904 403 904 337.5 658 c 128,-1,17
 272 412 272 412 272 281 c 0,18,19
 272 51 272 51 406 51 c 256,20,21
 540 51 540 51 636.5 223 c 128,-1,22
 733 395 733 395 803 657.5 c 128,-1,23
 873 920 873 920 873 1094 c 256,12,13
EndSplineSet
Substitution2: "'subs' Subscript lookup 29-1" uni2080
Substitution2: "'sups' superscripts subtable" uni2070
Substitution2: "'onum' Oldstyle Figures in Latin lookup 5" zero.oldstyle
Comment: "last+AD0A-23" 
Colour: ffffff
EndChar

StartChar: one
Encoding: 49 49 17
Width: 956
GlyphClass: 2
Flags: W
LayerCount: 2
Back
SplineSet
525 87 m 2,18,-1
 768 1149 l 2,19,20
EndSplineSet
Fore
SplineSet
566 262 m 18,0,1
 539 162 539 162 539 118 c 128,-1,2
 539 74 539 74 570.5 61.5 c 128,-1,3
 602 49 602 49 687 49 c 0,4,5
 697 49 697 49 697 34 c 128,-1,6
 697 19 697 19 692.5 5.5 c 128,-1,7
 688 -8 688 -8 672 -8 c 1,8,9
 587 0 587 0 408.5 0 c 128,-1,10
 230 0 230 0 145 -8 c 1,11,12
 135 -8 135 -8 135 7 c 128,-1,13
 135 22 135 22 140 35.5 c 128,-1,14
 145 49 145 49 161 49 c 0,15,16
 287 49 287 49 330.5 83 c 128,-1,17
 374 117 374 117 412 260 c 2,18,-1
 645 1131 l 2,19,20
 650 1149 650 1149 650 1158 c 0,21,22
 650 1176 650 1176 637.5 1176 c 128,-1,23
 625 1176 625 1176 610 1169 c 2,24,-1
 468 1112 l 2,25,26
 454 1106 454 1106 450.5 1128.5 c 128,-1,27
 447 1151 447 1151 460 1157 c 0,28,29
 621 1227 621 1227 837 1366 c 0,30,31
 851 1374 851 1374 860.5 1374 c 128,-1,32
 870 1374 870 1374 870 1364 c 1,33,34
 835 1266 835 1266 814 1188 c 2,35,-1
 566 262 l 18,0,1
EndSplineSet
Substitution2: "'subs' Subscript lookup 29-1" uni2081
Substitution2: "'sups' superscripts subtable" uni00B9
Substitution2: "'onum' Oldstyle Figures in Latin lookup 5" one.oldstyle
Comment: "last+AD0A-35" 
Colour: ffffff
EndChar

StartChar: two
Encoding: 50 50 18
Width: 956
GlyphClass: 2
Flags: W
LayerCount: 2
Fore
SplineSet
209 180 m 0,0,1
 186 160 186 160 186 148.5 c 128,-1,2
 186 137 186 137 213 137 c 2,3,-1
 510 137 l 2,4,5
 669 137 669 137 747 194 c 0,6,7
 782 219 782 219 812 260 c 0,8,9
 816 267 816 267 840.5 267 c 128,-1,10
 865 267 865 267 865 248 c 0,11,12
 865 245 865 245 864 244 c 2,13,-1
 706 25 l 2,14,15
 682 -8 682 -8 645 -8 c 9,16,17
 523 0 523 0 310 0 c 128,-1,18
 97 0 97 0 -33 -8 c 17,19,20
 -67 -8 -67 -8 -67 22 c 0,21,22
 -67 38 -67 38 -53 49 c 0,23,24
 231 282 231 282 424.5 472.5 c 128,-1,25
 618 663 618 663 718 804.5 c 128,-1,26
 818 946 818 946 818 1048 c 256,27,28
 818 1130 818 1130 772 1168 c 128,-1,29
 726 1206 726 1206 657 1206 c 0,30,31
 511 1206 511 1206 362 1024 c 0,32,33
 357 1019 357 1019 344 1019 c 128,-1,34
 331 1019 331 1019 321 1031 c 128,-1,35
 311 1043 311 1043 311 1047.5 c 128,-1,36
 311 1052 311 1052 313 1054 c 0,37,38
 402 1171 402 1171 525 1252 c 128,-1,39
 648 1333 648 1333 779 1333 c 256,40,41
 886 1333 886 1333 947.5 1268 c 128,-1,42
 1009 1203 1009 1203 1009 1102 c 0,43,44
 1009 960 1009 960 890.5 806.5 c 128,-1,45
 772 653 772 653 209 180 c 0,0,1
EndSplineSet
Substitution2: "'subs' Subscript lookup 29-1" uni2082
Substitution2: "'sups' superscripts subtable" uni00B2
Substitution2: "'onum' Oldstyle Figures in Latin lookup 5" two.oldstyle
Comment: "last+AD0A-45" 
Colour: ffffff
EndChar

StartChar: three
Encoding: 51 51 19
Width: 956
GlyphClass: 2
Flags: W
LayerCount: 2
Fore
SplineSet
864 524 m 0,0,1
 864 312 864 312 681.5 144.5 c 128,-1,2
 499 -23 499 -23 271.5 -23 c 128,-1,3
 44 -23 44 -23 44 102 c 0,4,5
 44 149 44 149 81.5 175 c 128,-1,6
 119 201 119 201 151 201 c 256,7,8
 183 201 183 201 230.5 127 c 128,-1,9
 278 53 278 53 356 53 c 0,10,11
 483 53 483 53 584 199.5 c 128,-1,12
 685 346 685 346 685 483 c 0,13,14
 685 690 685 690 470 690 c 0,15,16
 404 690 404 690 353 674 c 0,17,18
 345 674 345 674 345 696.5 c 128,-1,19
 345 719 345 719 356 736.5 c 128,-1,20
 367 754 367 754 374 754 c 0,21,22
 538 754 538 754 669.5 845 c 128,-1,23
 801 936 801 936 801 1085 c 0,24,25
 801 1156 801 1156 760.5 1191.5 c 128,-1,26
 720 1227 720 1227 659 1227 c 0,27,28
 540 1227 540 1227 415 1090 c 0,29,30
 412 1087 412 1087 401 1087 c 128,-1,31
 390 1087 390 1087 380.5 1101.5 c 128,-1,32
 371 1116 371 1116 371 1121 c 128,-1,33
 371 1126 371 1126 374 1131 c 0,34,35
 564 1333 564 1333 754 1333 c 0,36,37
 851 1333 851 1333 906.5 1276.5 c 128,-1,38
 962 1220 962 1220 962 1133 c 0,39,40
 962 909 962 909 697 782 c 0,41,42
 657 763 657 763 657 755.5 c 128,-1,43
 657 748 657 748 682 742 c 0,44,45
 864 701 864 701 864 524 c 0,0,1
EndSplineSet
Substitution2: "'subs' Subscript lookup 29-1" uni2083
Substitution2: "'sups' superscripts subtable" uni00B3
Substitution2: "'onum' Oldstyle Figures in Latin lookup 5" three.oldstyle
Comment: "last+AD0A-45" 
Colour: ffffff
EndChar

StartChar: four
Encoding: 52 52 20
Width: 956
GlyphClass: 2
Flags: W
LayerCount: 2
Back
SplineSet
648 -48 m 2,18,-1
 891 1014 l 2,19,20
EndSplineSet
Fore
SplineSet
683 127 m 2,0,1
 680 116 680 116 680 106 c 0,2,3
 680 49 680 49 781 49 c 0,4,5
 791 49 791 49 791 33.5 c 128,-1,6
 791 18 791 18 786.5 5 c 128,-1,7
 782 -8 782 -8 766 -8 c 1,8,9
 681 0 681 0 551 0 c 128,-1,10
 421 0 421 0 336 -8 c 1,11,12
 326 -8 326 -8 326 8 c 128,-1,13
 326 24 326 24 331 36.5 c 128,-1,14
 336 49 336 49 351 49 c 0,15,16
 509 49 509 49 530 127 c 2,17,-1
 595 371 l 2,18,19
 600 391 600 391 580 391 c 2,20,-1
 103 391 l 2,21,22
 44 391 44 391 44 419.5 c 128,-1,23
 44 448 44 448 116 520 c 2,24,-1
 418 821 l 2,25,26
 787 1190 787 1190 1000 1425 c 0,27,28
 1014 1437 1014 1437 1053.5 1437 c 128,-1,29
 1093 1437 1093 1437 1093 1413 c 0,30,31
 1093 1409 1093 1409 1092 1407 c 2,32,-1
 205 510 l 2,33,34
 191 496 191 496 191 486.5 c 128,-1,35
 191 477 191 477 214 477 c 2,36,-1
 603 477 l 2,37,38
 623 477 623 477 629 498 c 2,39,-1
 748 942 l 2,40,41
 752 957 752 957 827 957 c 128,-1,42
 902 957 902 957 902 942 c 2,43,-1
 783 498 l 2,44,45
 777 477 777 477 798 477 c 2,46,-1
 916 477 l 2,47,48
 924 477 924 477 924 454 c 128,-1,49
 924 431 924 431 912 411 c 128,-1,50
 900 391 900 391 893 391 c 2,51,-1
 774 391 l 2,52,53
 754 391 754 391 749 371 c 2,54,-1
 683 127 l 2,0,1
EndSplineSet
Substitution2: "'subs' Subscript lookup 29-1" uni2084
Substitution2: "'sups' superscripts subtable" uni2074
Substitution2: "'onum' Oldstyle Figures in Latin lookup 5" four.oldstyle
Comment: "last+AD0A-54" 
Colour: ffffff
EndChar

StartChar: five
Encoding: 53 53 21
Width: 956
GlyphClass: 2
Flags: W
LayerCount: 2
Fore
SplineSet
882 606 m 0,0,1
 882 403 882 403 696 193.5 c 128,-1,2
 510 -16 510 -16 248 -16 c 0,3,4
 164 -16 164 -16 100 9 c 128,-1,5
 36 34 36 34 36 84 c 0,6,7
 36 140 36 140 74 166.5 c 128,-1,8
 112 193 112 193 146 193 c 256,9,10
 180 193 180 193 235 130.5 c 128,-1,11
 290 68 290 68 354 68 c 0,12,13
 494 68 494 68 607 219.5 c 128,-1,14
 720 371 720 371 720 520 c 0,15,16
 720 743 720 743 461 743 c 0,17,18
 405 743 405 743 327 724 c 8,19,20
 305 719 305 719 305 736 c 0,21,22
 305 747 305 747 310 758 c 2,23,-1
 543 1288 l 2,24,25
 557 1317 557 1317 584 1317 c 2,26,-1
 1055 1317 l 2,27,28
 1059 1316 1059 1316 1059 1303.5 c 128,-1,29
 1059 1291 1059 1291 1027.5 1232.5 c 128,-1,30
 996 1174 996 1174 982 1174 c 2,31,-1
 599 1174 l 2,32,33
 570 1174 570 1174 558 1147 c 2,34,-1
 453 913 l 2,35,36
 441 887 441 887 461 890 c 0,37,38
 502 895 502 895 541 895 c 0,39,40
 882 895 882 895 882 606 c 0,0,1
EndSplineSet
Substitution2: "'subs' Subscript lookup 29-1" uni2085
Substitution2: "'sups' superscripts subtable" uni2075
Substitution2: "'onum' Oldstyle Figures in Latin lookup 5" five.oldstyle
Comment: "last+AD0A-40" 
Colour: ffffff
EndChar

StartChar: six
Encoding: 54 54 22
Width: 956
GlyphClass: 2
Flags: W
LayerCount: 2
Fore
SplineSet
903 510 m 0,0,1
 903 307 903 307 745.5 145.5 c 128,-1,2
 588 -16 588 -16 387 -16 c 0,3,4
 117 -16 117 -16 117 287 c 0,5,6
 117 428 117 428 195.5 613 c 128,-1,7
 274 798 274 798 505 1026 c 128,-1,8
 736 1254 736 1254 1039 1378 c 0,9,10
 1050 1382 1050 1382 1056.5 1374 c 128,-1,11
 1063 1366 1063 1366 1062.5 1349.5 c 128,-1,12
 1062 1333 1062 1333 1052 1329 c 0,13,14
 893 1251 893 1251 768.5 1154 c 128,-1,15
 644 1057 644 1057 545.5 932 c 128,-1,16
 447 807 447 807 368 629 c 1,17,18
 560 766 560 766 682 766 c 256,19,20
 782 766 782 766 842.5 694.5 c 128,-1,21
 903 623 903 623 903 510 c 0,0,1
731 440 m 0,22,23
 731 653 731 653 562 653 c 0,24,25
 450 653 450 653 334 543 c 1,26,27
 276 402 276 402 276 264 c 0,28,29
 276 63 276 63 432 63 c 0,30,31
 559 63 559 63 645 184.5 c 128,-1,32
 731 306 731 306 731 440 c 0,22,23
EndSplineSet
Substitution2: "'subs' Subscript lookup 29-1" uni2086
Substitution2: "'sups' superscripts subtable" uni2076
Substitution2: "'onum' Oldstyle Figures in Latin lookup 5" six.oldstyle
Comment: "last+AD0A-32" 
Colour: ffffff
EndChar

StartChar: seven
Encoding: 55 55 23
Width: 956
GlyphClass: 2
Flags: W
LayerCount: 2
Fore
SplineSet
297 0 m 2,0,1
 286 -15 286 -15 216 -15 c 128,-1,2
 146 -15 146 -15 146 -2 c 0,3,4
 146 -1 146 -1 178 38.5 c 128,-1,5
 210 78 210 78 324 238 c 2,6,-1
 962 1139 l 2,7,8
 979 1165 979 1165 979 1173.5 c 128,-1,9
 979 1182 979 1182 949 1182 c 2,10,-1
 735 1182 l 2,11,12
 571 1182 571 1182 519 1168.5 c 128,-1,13
 467 1155 467 1155 421 1123.5 c 128,-1,14
 375 1092 375 1092 339 1038 c 0,15,16
 330 1024 330 1024 301.5 1024 c 128,-1,17
 273 1024 273 1024 280 1038 c 2,18,-1
 399 1286 l 2,19,20
 414 1317 414 1317 447 1317 c 2,21,-1
 1129 1317 l 2,22,23
 1162 1317 1162 1317 1162 1303.5 c 128,-1,24
 1162 1290 1162 1290 1145 1264 c 2,25,-1
 297 0 l 2,0,1
EndSplineSet
Substitution2: "'subs' Subscript lookup 29-1" uni2087
Substitution2: "'sups' superscripts subtable" uni2077
Substitution2: "'onum' Oldstyle Figures in Latin lookup 5" seven.oldstyle
Comment: "last+AD0A-25" 
Colour: ffffff
EndChar

StartChar: eight
Encoding: 56 56 24
Width: 956
GlyphClass: 2
Flags: W
LayerCount: 2
Fore
SplineSet
1018 1135 m 0,0,1
 1018 862 1018 862 691 711 c 1,2,3
 870 574 870 574 870 406 c 256,4,5
 870 238 870 238 718.5 111 c 128,-1,6
 567 -16 567 -16 403 -16 c 256,7,8
 250 -16 250 -16 172 51 c 128,-1,9
 94 118 94 118 94 223 c 0,10,11
 94 489 94 489 474 668 c 1,12,13
 317 794 317 794 317 924 c 0,14,15
 317 1090 317 1090 454.5 1211.5 c 128,-1,16
 592 1333 592 1333 738 1333 c 256,17,18
 884 1333 884 1333 951 1276.5 c 128,-1,19
 1018 1220 1018 1220 1018 1135 c 0,0,1
868 1085 m 0,20,21
 868 1167 868 1167 825.5 1212 c 128,-1,22
 783 1257 783 1257 708 1257 c 0,23,24
 611 1257 611 1257 533.5 1185.5 c 128,-1,25
 456 1114 456 1114 456 1026 c 256,26,27
 456 958 456 958 492 902.5 c 128,-1,28
 528 847 528 847 648 754 c 1,29,30
 868 883 868 883 868 1085 c 0,20,21
707 338 m 0,31,32
 707 471 707 471 520 625 c 1,33,34
 387 556 387 556 322 453.5 c 128,-1,35
 257 351 257 351 257 243 c 256,36,37
 257 156 257 156 308 103.5 c 128,-1,38
 359 51 359 51 440 51 c 0,39,40
 550 51 550 51 628.5 139 c 128,-1,41
 707 227 707 227 707 338 c 0,31,32
EndSplineSet
Substitution2: "'subs' Subscript lookup 29-1" uni2088
Substitution2: "'sups' superscripts subtable" uni2078
Substitution2: "'onum' Oldstyle Figures in Latin lookup 5" eight.oldstyle
Comment: "last+AD0A-41" 
Colour: ffffff
EndChar

StartChar: nine
Encoding: 57 57 25
Width: 956
GlyphClass: 2
Flags: W
LayerCount: 2
Fore
SplineSet
1028 1037 m 256,0,1
 1028 881 1028 881 945.5 699.5 c 128,-1,2
 863 518 863 518 647.5 310.5 c 128,-1,3
 432 103 432 103 122 -35 c 1,4,-1
 113 -35 l 1,5,6
 98 -28 98 -28 97 -3 c 128,-1,7
 96 22 96 22 105 27 c 0,8,9
 391 172 391 172 537.5 329 c 128,-1,10
 684 486 684 486 776 686 c 1,11,12
 614 551 614 551 480 551 c 256,13,14
 370 551 370 551 305 625.5 c 128,-1,15
 240 700 240 700 240 790 c 256,16,17
 240 904 240 904 291 1015 c 128,-1,18
 342 1126 342 1126 463 1229.5 c 128,-1,19
 584 1333 584 1333 750 1333 c 256,20,21
 886 1333 886 1333 957 1252 c 128,-1,22
 1028 1171 1028 1171 1028 1037 c 256,0,1
867 1053 m 0,23,24
 867 1251 867 1251 706 1251 c 0,25,26
 582 1251 582 1251 497.5 1125.5 c 128,-1,27
 413 1000 413 1000 413 871 c 256,28,29
 413 771 413 771 457.5 716.5 c 128,-1,30
 502 662 502 662 576 662 c 0,31,32
 687 662 687 662 809 774 c 1,33,34
 867 915 867 915 867 1053 c 0,23,24
EndSplineSet
Substitution2: "'subs' Subscript lookup 29-1" uni2089
Substitution2: "'sups' superscripts subtable" uni2079
Substitution2: "'onum' Oldstyle Figures in Latin lookup 5" nine.oldstyle
Comment: "last+AD0A-34" 
Colour: ffffff
EndChar

StartChar: colon
Encoding: 58 58 26
Width: 561
GlyphClass: 2
Flags: W
LayerCount: 2
Fore
SplineSet
356 85 m 128,-1,1
 356 36 356 36 321.5 6 c 128,-1,2
 287 -24 287 -24 230 -24 c 128,-1,3
 173 -24 173 -24 143 13.5 c 128,-1,4
 113 51 113 51 113 95 c 128,-1,5
 113 139 113 139 145.5 175 c 128,-1,6
 178 211 178 211 238.5 211 c 128,-1,7
 299 211 299 211 327.5 172.5 c 128,-1,0
 356 134 356 134 356 85 c 128,-1,1
530 725 m 128,-1,9
 530 676 530 676 495.5 646 c 128,-1,10
 461 616 461 616 404 616 c 128,-1,11
 347 616 347 616 317 653 c 128,-1,12
 287 690 287 690 287 734 c 128,-1,13
 287 778 287 778 319.5 814 c 128,-1,14
 352 850 352 850 412.5 850 c 128,-1,15
 473 850 473 850 501.5 812 c 128,-1,8
 530 774 530 774 530 725 c 128,-1,9
EndSplineSet
Substitution2: "'ss18' Style Set 18 lookup 25-1" colon.alt
Comment: "last+AD0A-15" 
Colour: ffffff
EndChar

StartChar: semicolon
Encoding: 59 59 27
Width: 561
GlyphClass: 2
Flags: W
LayerCount: 2
Fore
SplineSet
381 104 m 256,0,1
 381 28 381 28 332.5 -59.5 c 128,-1,2
 284 -147 284 -147 183 -234.5 c 128,-1,3
 82 -322 82 -322 -25 -369 c 0,4,5
 -27 -370 -27 -370 -30 -370 c 0,6,7
 -39 -370 -39 -370 -44 -361.5 c 128,-1,8
 -49 -353 -49 -353 -49 -346 c 0,9,10
 -49 -341 -49 -341 -45 -338 c 0,11,12
 39 -276 39 -276 110 -204.5 c 128,-1,13
 181 -133 181 -133 203 -57 c 0,14,15
 206 -46 206 -46 206 -25 c 128,-1,16
 206 -4 206 -4 188 4 c 0,17,18
 105 43 105 43 105 108 c 256,19,20
 105 159 105 159 148.5 197.5 c 128,-1,21
 192 236 192 236 252 236 c 0,22,23
 314 236 314 236 347.5 192 c 128,-1,24
 381 148 381 148 381 104 c 256,0,1
499 725 m 128,-1,26
 499 676 499 676 464.5 646 c 128,-1,27
 430 616 430 616 373 616 c 128,-1,28
 316 616 316 616 286 653 c 128,-1,29
 256 690 256 690 256 734 c 128,-1,30
 256 778 256 778 288.5 814 c 128,-1,31
 321 850 321 850 381.5 850 c 128,-1,32
 442 850 442 850 470.5 812 c 128,-1,25
 499 774 499 774 499 725 c 128,-1,26
EndSplineSet
Substitution2: "'ss18' Style Set 18 lookup 25-1" semicolon.alt
Comment: "last+AD0A-32" 
Colour: ffffff
EndChar

StartChar: less
Encoding: 60 60 28
Width: 1024
GlyphClass: 2
Flags: W
LayerCount: 2
Fore
SplineSet
911 -2 m 1,0,-1
 115 375 l 1,1,-1
 115 467 l 1,2,-1
 911 846 l 1,3,-1
 911 727 l 1,4,-1
 262 424 l 1,5,-1
 262 420 l 1,6,-1
 911 115 l 1,7,-1
 911 -2 l 1,0,-1
EndSplineSet
Comment: "last+AD0A-7" 
Colour: ffffff
EndChar

StartChar: equal
Encoding: 61 61 29
Width: 1024
GlyphClass: 2
Flags: W
LayerCount: 2
Fore
SplineSet
907 596 m 1,0,-1
 119 596 l 1,1,-1
 119 696 l 1,2,-1
 907 696 l 1,3,-1
 907 596 l 1,0,-1
907 330 m 1,4,-1
 119 330 l 1,5,-1
 119 430 l 1,6,-1
 907 430 l 1,7,-1
 907 330 l 1,4,-1
EndSplineSet
Substitution2: "'subs' Subscript lookup 29-1" uni208C
Substitution2: "'sups' superscripts subtable" uni207C
Comment: "last+AD0A-7" 
Colour: ffffff
EndChar

StartChar: greater
Encoding: 62 62 30
Width: 1024
GlyphClass: 2
Flags: W
LayerCount: 2
Fore
SplineSet
909 375 m 1,0,-1
 113 -2 l 1,1,-1
 113 115 l 1,2,-1
 762 420 l 1,3,-1
 762 424 l 1,4,-1
 113 727 l 1,5,-1
 113 846 l 1,6,-1
 909 467 l 1,7,-1
 909 375 l 1,0,-1
EndSplineSet
Comment: "last+AD0A-7" 
Colour: ffffff
EndChar

StartChar: question
Encoding: 63 63 31
Width: 678
GlyphClass: 2
Flags: W
LayerCount: 2
Fore
SplineSet
318 85.5 m 128,-1,1
 318 37 318 37 284.5 6 c 128,-1,2
 251 -25 251 -25 194 -25 c 128,-1,3
 137 -25 137 -25 106 12 c 128,-1,4
 75 49 75 49 75 92 c 128,-1,5
 75 135 75 135 107 173 c 128,-1,6
 139 211 139 211 199 211 c 128,-1,7
 259 211 259 211 288.5 172.5 c 128,-1,0
 318 134 318 134 318 85.5 c 128,-1,1
772 1059 m 256,8,9
 772 944 772 944 719.5 853 c 128,-1,10
 667 762 667 762 621 741 c 2,11,-1
 430 653 l 2,12,13
 342 613 342 613 330 563 c 0,14,15
 314 518 314 518 313 438 c 0,16,17
 313 425 313 425 290.5 420.5 c 128,-1,18
 268 416 268 416 266 426 c 0,19,20
 242 514 242 514 242 575 c 0,21,22
 242 712 242 712 408 788 c 2,23,-1
 528 844 l 2,24,25
 698 922 698 922 698 1055 c 0,26,27
 698 1194 698 1194 455 1194 c 0,28,29
 439 1194 439 1194 422.5 1213.5 c 128,-1,30
 406 1233 406 1233 406 1260 c 0,31,32
 406 1304 406 1304 442 1333 c 128,-1,33
 478 1362 478 1362 518 1362 c 0,34,35
 621 1362 621 1362 696.5 1268 c 128,-1,36
 772 1174 772 1174 772 1059 c 256,8,9
EndSplineSet
Substitution2: "'ss18' Style Set 18 lookup 25-1" question.alt
Comment: "last+AD0A-36" 
Colour: ffffff
EndChar

StartChar: at
Encoding: 64 64 32
Width: 1556
GlyphClass: 2
Flags: W
LayerCount: 2
Fore
SplineSet
1526 858 m 256,0,1
 1526 646 1526 646 1380 502 c 128,-1,2
 1234 358 1234 358 995 358 c 0,3,4
 914 358 914 358 893 373.5 c 128,-1,5
 872 389 872 389 872 419 c 128,-1,6
 872 449 872 449 922 596 c 1,7,-1
 913 600 l 1,8,9
 734 361 734 361 610 361 c 0,10,11
 518 361 518 361 518 487 c 0,12,13
 518 644 518 644 646 829 c 128,-1,14
 774 1014 774 1014 924 1014 c 0,15,16
 979 1014 979 1014 1023 973 c 1,17,-1
 1042 1029 l 2,18,19
 1048 1043 1048 1043 1088 1043 c 0,20,21
 1135 1043 1135 1043 1129 1025 c 2,22,-1
 988 533 l 2,23,24
 974 486 974 486 974 458 c 0,25,26
 974 426 974 426 1022 426 c 0,27,28
 1200 426 1200 426 1319 540.5 c 0,29,30
 1438 656 1438 656 1438 856 c 256,31,32
 1438 1056 1438 1056 1286.5 1185.5 c 128,-1,33
 1135 1315 1135 1315 903 1315 c 0,34,35
 609 1315 609 1315 431.5 1106.5 c 128,-1,36
 254 898 254 898 254 602 c 0,37,38
 254 360 254 360 412 199.5 c 128,-1,39
 570 39 570 39 864 39 c 0,40,41
 1015 39 1015 39 1182 111 c 0,42,43
 1186 112 1186 112 1193 105 c 128,-1,44
 1200 98 1200 98 1201 86.5 c 128,-1,45
 1202 75 1202 75 1198 72 c 0,46,47
 1031 -33 1031 -33 803 -33 c 0,48,49
 524 -33 524 -33 318.5 132 c 128,-1,50
 113 297 113 297 113 600 c 0,51,52
 113 948 113 948 352.5 1166 c 128,-1,53
 592 1384 592 1384 922 1384 c 0,54,55
 1202 1384 1202 1384 1364 1227 c 128,-1,56
 1526 1070 1526 1070 1526 858 c 256,0,1
968 788 m 2,57,-1
 1002 902 l 1,58,59
 969 965 969 965 904 965 c 0,60,61
 800 965 800 965 714.5 797 c 128,-1,62
 629 629 629 629 629 513 c 0,63,64
 629 443 629 443 673 443 c 0,65,66
 728 443 728 443 840 571 c 0,67,68
 937 682 937 682 968 788 c 2,57,-1
EndSplineSet
Comment: "last+AD0A-67" 
Colour: ffffff
EndChar

StartChar: A
Encoding: 65 65 33
Width: 1108
GlyphClass: 2
Flags: W
AnchorPoint: "above" 950 1415 basechar 0
LayerCount: 2
Fore
SplineSet
909 186 m 2,0,1
 908 179 908 179 908 165 c 0,2,3
 908 69 908 69 1052 69 c 0,4,5
 1060 69 1060 69 1060 48 c 128,-1,6
 1060 27 1060 27 1048.5 10 c 128,-1,7
 1037 -7 1037 -7 1032 -7 c 1,8,9
 944 0 944 0 819 0 c 128,-1,10
 694 0 694 0 607 -7 c 1,11,12
 599 -7 599 -7 599.5 13.5 c 128,-1,13
 600 34 600 34 611 51.5 c 128,-1,14
 622 69 622 69 629 69 c 0,15,16
 710 69 710 69 738 99.5 c 128,-1,17
 766 130 766 130 773 186 c 2,18,-1
 810 496 l 2,19,20
 814 531 814 531 782 531 c 2,21,-1
 472 531 l 2,22,23
 441 531 441 531 424 506 c 2,24,-1
 214 182 l 2,25,26
 191 147 191 147 191 124 c 0,27,28
 191 69 191 69 323 69 c 0,29,30
 330 69 330 69 330 48 c 128,-1,31
 330 27 330 27 319 10 c 128,-1,32
 308 -7 308 -7 302 -7 c 1,33,34
 216 0 216 0 89 0 c 128,-1,35
 -38 0 -38 0 -124 -7 c 1,36,37
 -132 -7 -132 -7 -132 13 c 128,-1,38
 -132 33 -132 33 -121 51 c 128,-1,39
 -110 69 -110 69 -104 69 c 0,40,41
 -28 69 -28 69 22 91 c 128,-1,42
 72 113 72 113 132 201 c 2,43,-1
 806 1199 l 2,44,45
 822 1222 822 1222 822 1237 c 0,46,47
 822 1244 822 1244 814 1255 c 128,-1,48
 806 1266 806 1266 806 1273 c 0,49,50
 806 1283 806 1283 831 1293 c 0,51,52
 929 1332 929 1332 976.5 1358.5 c 128,-1,53
 1024 1385 1024 1385 1040 1385 c 256,54,55
 1056 1385 1056 1385 1055 1367 c 0,56,57
 1055 1360 1055 1360 1046.5 1322 c 128,-1,58
 1038 1284 1038 1284 1026 1179 c 2,59,-1
 909 186 l 2,0,1
824 629 m 2,60,-1
 886 1159 l 2,61,62
 886 1168 886 1168 874 1168 c 256,63,64
 862 1168 862 1168 856 1159 c 2,65,-1
 503 629 l 2,66,67
 495 619 495 619 495 609.5 c 128,-1,68
 495 600 495 600 514 600 c 2,69,-1
 789 600 l 2,70,71
 821 600 821 600 824 629 c 2,60,-1
EndSplineSet
Substitution2: "'swsh' Swash in Latin lookup 14" A.swash
Substitution2: "'ss19' Latin to Gothic transliteration subtable" u10330
AlternateSubs2: "'salt' Stylistic Alternatives lookup 24-1" uniF13A
Comment: "last+AD0A-71" 
Colour: ffffff
EndChar

StartChar: B
Encoding: 66 66 34
Width: 1217
GlyphClass: 2
Flags: W
AnchorPoint: "above" 846 1415 basechar 0
LayerCount: 2
Back
SplineSet
1157 390 m 0,0,1
 1157 228 1157 228 1021 110.5 c 128,-1,2
 885 -7 885 -7 550 -7 c 0,3,4
 488 -7 488 -7 414.5 -3.5 c 128,-1,5
 341 0 341 0 244.5 0 c 128,-1,6
 148 0 148 0 29 -7 c 1,7,8
 21 -7 21 -7 21 13 c 128,-1,9
 21 33 21 33 32 51 c 128,-1,10
 43 69 43 69 49 69 c 0,11,12
 155.38 69 155.38 69 199.61 92.3795 c 128,-1,13
 243.84 115.759 243.84 115.759 264 186 c 2,14,-1
 547 1172 l 2,15,16
 552 1189.42 552 1189.42 552 1209 c 0,17,18
 552 1256 552 1256 510 1269 c 128,-1,19
 468 1282 468 1282 390 1282 c 0,20,21
 382 1282 382 1282 382 1303 c 128,-1,22
 382 1324 382 1324 393 1341 c 128,-1,23
 404 1358 404 1358 410 1358 c 1,24,25
 570.19 1354 570.19 1354 641.595 1354 c 128,-1,26
 713 1354 713 1354 779 1356 c 152,-1,27
 845 1358 845 1358 904 1358 c 0,28,29
 1075.55 1358 1075.55 1358 1166.28 1281.5 c 128,-1,30
 1257 1205 1257 1205 1257 1095 c 0,31,32
 1257 937 1257 937 1169.55 850.736 c 128,-1,33
 1082.1 764.472 1082.1 764.472 909 733 c 0,34,35
 898 731 898 731 898 725.5 c 128,-1,36
 898 720 898 720 909 716 c 0,37,38
 1157 633 1157 633 1157 390 c 0,0,1
1117 1074 m 0,39,40
 1117 1305 1117 1305 778 1305 c 0,41,42
 728 1305 728 1305 707 1230 c 2,43,-1
 583 795 l 2,44,45
 581 785 581 785 581 783 c 0,46,47
 581 753 581 753 676 753 c 0,48,49
 875 753 875 753 996 845.5 c 128,-1,50
 1117 938 1117 938 1117 1074 c 0,39,40
1005 421.5 m 256,51,52
 1005 556 1005 556 913 625.5 c 128,-1,53
 821 695 821 695 663 695 c 256,54,55
 553 695 553 695 536 636 c 2,56,-1
 434 277 l 2,57,58
 413 205 413 205 413 167 c 0,59,60
 413 57 413 57 554 57 c 0,61,62
 760 57 760 57 882.5 151.5 c 128,-1,63
 1005 246 1005 246 1005 421.5 c 256,51,52
EndSplineSet
Fore
SplineSet
1157 390 m 0,0,1
 1157 228 1157 228 1021 110.5 c 128,-1,2
 885 -7 885 -7 550 -7 c 0,3,4
 488 -7 488 -7 414.5 -3.5 c 128,-1,5
 341 0 341 0 244.5 0 c 128,-1,6
 148 0 148 0 29 -7 c 1,7,8
 21 -7 21 -7 21 13 c 128,-1,9
 21 33 21 33 32 51 c 128,-1,10
 43 69 43 69 49 69 c 0,11,12
 155 69 155 69 199.5 92.5 c 128,-1,13
 244 116 244 116 264 186 c 2,14,-1
 547 1172 l 2,15,16
 552 1189 552 1189 552 1209 c 0,17,18
 552 1256 552 1256 510 1269 c 128,-1,19
 468 1282 468 1282 390 1282 c 0,20,21
 382 1282 382 1282 382 1303 c 128,-1,22
 382 1324 382 1324 393 1341 c 128,-1,23
 404 1358 404 1358 410 1358 c 1,24,25
 570 1354 570 1354 641.5 1354 c 128,-1,26
 713 1354 713 1354 779 1356 c 152,-1,27
 845 1358 845 1358 904 1358 c 0,28,29
 1076 1358 1076 1358 1166.5 1281.5 c 128,-1,30
 1257 1205 1257 1205 1257 1095 c 0,31,32
 1257 937 1257 937 1169.5 850.5 c 128,-1,33
 1082 764 1082 764 909 733 c 0,34,35
 898 731 898 731 898 725.5 c 128,-1,36
 898 720 898 720 909 716 c 0,37,38
 1157 633 1157 633 1157 390 c 0,0,1
1117 1074 m 0,39,40
 1117 1193 1117 1193 1029.5 1249 c 128,-1,41
 942 1305 942 1305 778 1305 c 0,42,43
 728 1305 728 1305 707 1230 c 2,44,-1
 583 795 l 2,45,46
 581 785 581 785 581 783 c 0,47,48
 581 753 581 753 676 753 c 0,49,50
 875 753 875 753 996 845.5 c 128,-1,51
 1117 938 1117 938 1117 1074 c 0,39,40
1005 422 m 256,52,53
 1005 556 1005 556 913 625.5 c 128,-1,54
 821 695 821 695 663 695 c 256,55,56
 553 695 553 695 536 636 c 2,57,-1
 434 277 l 2,58,59
 413 205 413 205 413 167 c 0,60,61
 413 57 413 57 554 57 c 0,62,63
 760 57 760 57 882.5 151.5 c 128,-1,64
 1005 246 1005 246 1005 422 c 256,52,53
EndSplineSet
Substitution2: "'ss19' Latin to Gothic transliteration subtable" u10331
Comment: "last+AD0A-64" 
Colour: ffffff
EndChar

StartChar: C
Encoding: 67 67 35
Width: 1470
GlyphClass: 2
Flags: W
AnchorPoint: "above" 1160 1415 basechar 0
LayerCount: 2
Fore
SplineSet
1183 36 m 1,0,1
 1149 31 1149 31 1101 19 c 0,2,3
 927 -27 927 -27 712 -27 c 256,4,5
 497 -27 497 -27 356 103 c 128,-1,6
 215 233 215 233 215 458 c 0,7,8
 215 813 215 813 505.5 1099 c 128,-1,9
 796 1385 796 1385 1149 1385 c 0,10,11
 1296 1385 1296 1385 1387.5 1363.5 c 128,-1,12
 1479 1342 1479 1342 1573 1327 c 1,13,14
 1558 1169 1558 1169 1514 1019 c 0,15,16
 1506 1002 1506 1002 1474.5 1002 c 128,-1,17
 1443 1002 1443 1002 1444 1014 c 0,18,19
 1452 1074 1452 1074 1452 1092 c 0,20,21
 1452 1194 1452 1194 1377 1254 c 128,-1,22
 1302 1314 1302 1314 1134 1314 c 256,23,24
 816 1314 816 1314 597 1041 c 128,-1,25
 378 768 378 768 378 459 c 0,26,27
 378 283 378 283 480 165.5 c 128,-1,28
 582 48 582 48 755 48 c 0,29,30
 930 48 930 48 1048 103 c 128,-1,31
 1166 158 1166 158 1214 218.5 c 128,-1,32
 1262 279 1262 279 1285 317 c 0,33,34
 1292 327 1292 327 1321 327 c 0,35,36
 1350 328 1350 328 1350 308 c 256,37,38
 1350 288 1350 288 1279 176 c 128,-1,39
 1208 64 1208 64 1183 36 c 1,0,1
EndSplineSet
AlternateSubs2: "'salt' Stylistic Alternatives lookup 24-1" uniF106
Comment: "last+AD0A-38" 
Colour: ffffff
EndChar

StartChar: D
Encoding: 68 68 36
Width: 1514
GlyphClass: 2
Flags: W
AnchorPoint: "above" 978 1415 basechar 0
LayerCount: 2
Fore
SplineSet
1566 904 m 0,0,1
 1566 577 1566 577 1299.5 285 c 128,-1,2
 1033 -7 1033 -7 672 -7 c 0,3,4
 576 -7 576 -7 465.5 -3.5 c 128,-1,5
 355 0 355 0 258.5 0 c 128,-1,6
 162 0 162 0 29 -7 c 1,7,8
 21 -7 21 -7 21 13 c 128,-1,9
 21 33 21 33 32 51 c 128,-1,10
 43 69 43 69 49 69 c 0,11,12
 138 69 138 69 179 84 c 0,13,14
 242 109 242 109 264 186 c 2,15,-1
 547 1172 l 2,16,17
 552 1194 552 1194 552 1208 c 0,18,19
 552 1282 552 1282 390 1282 c 0,20,21
 382 1282 382 1282 382 1303 c 128,-1,22
 382 1324 382 1324 393 1341 c 128,-1,23
 404 1358 404 1358 410 1358 c 0,24,25
 543 1354 543 1354 662 1354 c 128,-1,26
 781 1354 781 1354 861.5 1356 c 128,-1,27
 942 1358 942 1358 1017 1358 c 0,28,29
 1264 1358 1264 1358 1415 1239 c 128,-1,30
 1566 1120 1566 1120 1566 904 c 0,0,1
1404 880 m 0,31,32
 1404 1062 1404 1062 1280.5 1179 c 128,-1,33
 1157 1296 1157 1296 915 1296 c 0,34,35
 820 1296 820 1296 787 1289 c 128,-1,36
 754 1282 754 1282 731 1256 c 128,-1,37
 708 1230 708 1230 693 1179 c 2,38,-1
 439 298 l 2,39,40
 416 220 416 220 416 177 c 0,41,42
 416 53 416 53 621 53 c 0,43,44
 927 53 927 53 1165.5 317.5 c 128,-1,45
 1404 582 1404 582 1404 880 c 0,31,32
EndSplineSet
Substitution2: "'swsh' Swash in Latin lookup 14" D.swash
Substitution2: "'ss19' Latin to Gothic transliteration subtable" u10333
Comment: "last+AD0A-45+AAoA-width of curve: 162" 
Colour: ffffff
EndChar

StartChar: E
Encoding: 69 69 37
Width: 1255
GlyphClass: 2
Flags: W
AnchorPoint: "above" 966 1415 basechar 0
LayerCount: 2
Fore
SplineSet
1081 19 m 2,0,1
 1073 -7 1073 -7 1053 -7 c 3,2,3
 1008 -7 1008 -7 763.5 -3.5 c 144,-1,4
 519 -0 519 -0 340.5 -0 c 128,-1,5
 162 0 162 0 29 -7 c 1,6,7
 21 -7 21 -7 21 11 c 128,-1,8
 21 29 21 29 32 49 c 128,-1,9
 43 69 43 69 49 69 c 0,10,11
 144 69 144 69 192 90 c 128,-1,12
 240 111 240 111 262 186 c 2,13,-1
 545 1172 l 2,14,15
 549 1186 549 1186 549 1205 c 0,16,17
 549 1282 549 1282 392 1282 c 0,18,19
 384 1282 384 1282 384 1301.5 c 128,-1,20
 384 1321 384 1321 395 1339.5 c 128,-1,21
 406 1358 406 1358 412 1358 c 1,22,23
 545 1354 545 1354 687.5 1354 c 131,-1,24
 830 1354 830 1354 1014.5 1356 c 128,-1,25
 1199 1358 1199 1358 1343 1358 c 3,26,27
 1405 1358 1405 1358 1405 1336 c 0,28,29
 1405 1331 1405 1331 1402 1320 c 2,30,-1
 1314 1010 l 2,31,32
 1310 996 1310 996 1270.5 996 c 128,-1,33
 1231 996 1231 996 1234 1010 c 0,34,35
 1245 1066 1245 1066 1245 1088 c 0,36,37
 1245 1183 1245 1183 1181 1230 c 128,-1,38
 1117 1277 1117 1277 1054 1280 c 0,39,40
 841 1289 841 1289 751 1289 c 0,41,42
 722 1289 722 1289 716 1267 c 2,43,-1
 556 713 l 2,44,45
 554 704 554 704 554 698 c 0,46,47
 554 676 554 676 583 676 c 2,48,-1
 775 676 l 2,49,50
 844 676 844 676 866 688 c 0,51,52
 901 706 901 706 917 764 c 2,53,-1
 944 864 l 2,54,55
 948 879 948 879 984 879 c 128,-1,56
 1020 879 1020 879 1017 864 c 0,57,58
 929 613 929 613 894 436 c 0,59,60
 890 421 890 421 856.5 421 c 128,-1,61
 823 421 823 421 827 437 c 2,62,-1
 852 527 l 2,63,64
 859 552 859 552 859 566 c 0,65,66
 859 607 859 607 756 607 c 2,67,-1
 558 607 l 2,68,69
 525 607 525 607 518 581 c 2,70,-1
 437 300 l 2,71,72
 410 206 410 206 410 160 c 0,73,74
 410 61 410 61 524 61 c 9,75,-1
 764 69 l 2,76,77
 997 77 997 77 1092 344 c 0,78,79
 1097 358 1097 358 1138 358 c 128,-1,80
 1179 358 1179 358 1175 344 c 2,81,-1
 1081 19 l 2,0,1
EndSplineSet
Substitution2: "'ss19' Latin to Gothic transliteration subtable" u10334
AlternateSubs2: "'salt' Stylistic Alternatives lookup 24-1" uniF10A
Comment: "last+AD0A-81" 
Colour: ffffff
EndChar

StartChar: F
Encoding: 70 70 38
Width: 1217
GlyphClass: 2
Flags: W
AnchorPoint: "above" 930 1415 basechar 0
LayerCount: 2
Fore
SplineSet
407 186 m 2,0,1
 401 165 401 165 401 148 c 0,2,3
 401 69 401 69 565 69 c 0,4,5
 572 69 572 69 572 47.5 c 128,-1,6
 572 26 572 26 561.5 9.5 c 128,-1,7
 551 -7 551 -7 545 -7 c 1,8,9
 459 0 459 0 298 0 c 128,-1,10
 137 0 137 0 29 -7 c 1,11,12
 21 -7 21 -7 21 11 c 128,-1,13
 21 29 21 29 32 49 c 128,-1,14
 43 69 43 69 49 69 c 0,15,16
 144 69 144 69 184 87 c 0,17,18
 240 111 240 111 262 186 c 2,19,-1
 545 1172 l 2,20,21
 549 1186 549 1186 549 1205 c 0,22,23
 549 1282 549 1282 392 1282 c 0,24,25
 384 1282 384 1282 384 1301.5 c 128,-1,26
 384 1321 384 1321 395 1339.5 c 128,-1,27
 406 1358 406 1358 412 1358 c 1,28,29
 538 1354 538 1354 634.5 1354 c 128,-1,30
 731 1354 731 1354 982.5 1356 c 128,-1,31
 1234 1358 1234 1358 1343 1358 c 0,32,33
 1405 1358 1405 1358 1405 1336 c 0,34,35
 1405 1331 1405 1331 1402 1320 c 2,36,-1
 1314 1010 l 2,37,38
 1310 996 1310 996 1270.5 996 c 128,-1,39
 1231 996 1231 996 1234 1010 c 0,40,41
 1245 1066 1245 1066 1245 1088 c 0,42,43
 1245 1180 1245 1180 1181 1228.5 c 128,-1,44
 1117 1277 1117 1277 1054 1280 c 0,45,46
 841 1289 841 1289 751 1289 c 0,47,48
 722 1289 722 1289 716 1267 c 2,49,-1
 567 753 l 2,50,51
 565 746 565 746 565 734 c 0,52,53
 565 716 565 716 594 716 c 2,54,-1
 749 716 l 2,55,56
 870 716 870 716 906 846 c 2,57,-1
 938 963 l 2,58,59
 942 977 942 977 975 977 c 128,-1,60
 1008 977 1008 977 1006 963 c 1,61,62
 978 890 978 890 918.5 678.5 c 128,-1,63
 859 467 859 467 844 395 c 1,64,65
 840 380 840 380 804.5 380 c 128,-1,66
 769 380 769 380 773 395 c 2,67,-1
 808 512 l 2,68,69
 815 535 815 535 815 559 c 0,70,71
 815 640 815 640 728 640 c 2,72,-1
 567 640 l 2,73,74
 535 640 535 640 527 613 c 2,75,-1
 407 186 l 2,0,1
EndSplineSet
Substitution2: "'ss19' Latin to Gothic transliteration subtable" u10346
Comment: "last+AD0A-75" 
Colour: ffffff
EndChar

StartChar: G
Encoding: 71 71 39
Width: 1476
GlyphClass: 2
Flags: W
AnchorPoint: "above" 1152 1415 basechar 0
LayerCount: 2
Fore
SplineSet
1245 133 m 2,0,1
 1239 112 1239 112 1239 96.5 c 128,-1,2
 1239 81 1239 81 1256.5 78 c 128,-1,3
 1274 75 1274 75 1274 63 c 0,4,5
 1274 31 1274 31 1252 31 c 0,6,7
 1215 31 1215 31 1075 11 c 128,-1,8
 935 -9 935 -9 870 -18 c 128,-1,9
 805 -27 805 -27 721 -27 c 0,10,11
 500 -27 500 -27 358.5 103.5 c 128,-1,12
 217 234 217 234 217 454 c 0,13,14
 217 796 217 796 503.5 1090.5 c 128,-1,15
 790 1385 790 1385 1130 1385 c 0,16,17
 1300 1385 1300 1385 1428 1356 c 128,-1,18
 1556 1327 1556 1327 1573 1327 c 1,19,20
 1573 1222 1573 1222 1514 1019 c 0,21,22
 1509 1001 1509 1001 1475.5 1001 c 128,-1,23
 1442 1001 1442 1001 1444 1014 c 0,24,25
 1449 1045 1449 1045 1449 1076 c 0,26,27
 1449 1200 1449 1200 1359 1257 c 128,-1,28
 1269 1314 1269 1314 1103 1314 c 0,29,30
 804 1314 804 1314 592 1046.5 c 128,-1,31
 380 779 380 779 380 475 c 0,32,33
 380 302 380 302 483.5 175 c 0,34,35
 588 48 588 48 780 48 c 0,36,37
 1086 48 1086 48 1120 173 c 2,38,-1
 1173 363 l 2,39,40
 1182 395 1182 395 1182 412 c 0,41,42
 1182 454 1182 454 1139 466 c 128,-1,43
 1096 478 1096 478 978 478 c 0,44,45
 971 478 971 478 971 498.5 c 128,-1,46
 971 519 971 519 982.5 536.5 c 128,-1,47
 994 554 994 554 1001 554 c 1,48,49
 1076 549 1076 549 1261 549 c 128,-1,50
 1446 549 1446 549 1507 554 c 1,51,52
 1515 554 1515 554 1515 534.5 c 128,-1,53
 1515 515 1515 515 1503 496.5 c 128,-1,54
 1491 478 1491 478 1484 478 c 0,55,56
 1390 478 1390 478 1360 456.5 c 128,-1,57
 1330 435 1330 435 1310 363 c 2,58,-1
 1245 133 l 2,0,1
EndSplineSet
Substitution2: "'ss19' Latin to Gothic transliteration subtable" u10332
AlternateSubs2: "'salt' Stylistic Alternatives lookup 24-1" uniF10E
Comment: "last+AD0A-57+AAoA-width of curve: 163" 
Colour: ffffff
EndChar

StartChar: H
Encoding: 72 72 40
Width: 1503
GlyphClass: 2
Flags: W
AnchorPoint: "above" 1056 1415 basechar 0
LayerCount: 2
Fore
SplineSet
1167 186 m 2,0,1
 1161 165 1161 165 1161 152 c 0,2,3
 1161 69 1161 69 1318 69 c 0,4,5
 1326 69 1326 69 1326 51 c 128,-1,6
 1326 33 1326 33 1315 13 c 128,-1,7
 1304 -7 1304 -7 1297 -7 c 1,8,9
 1209 0 1209 0 1049.5 0 c 128,-1,10
 890 0 890 0 789 -7 c 1,11,12
 782 -7 782 -7 782 12.5 c 128,-1,13
 782 32 782 32 793 50.5 c 128,-1,14
 804 69 804 69 810 69 c 0,15,16
 917 69 917 69 960.5 96 c 128,-1,17
 1004 123 1004 123 1022 186 c 2,18,-1
 1148 627 l 2,19,20
 1152 642 1152 642 1152 652.5 c 128,-1,21
 1152 663 1152 663 1123 663 c 2,22,-1
 576 663 l 2,23,24
 544 663 544 663 534 627 c 2,25,-1
 407 186 l 2,26,27
 401 165 401 165 401 151 c 0,28,29
 401 69 401 69 558 69 c 0,30,31
 565 69 565 69 565 47.5 c 128,-1,32
 565 26 565 26 554 9.5 c 128,-1,33
 543 -7 543 -7 536 -7 c 1,34,35
 451 0 451 0 279 0 c 128,-1,36
 107 0 107 0 29 -7 c 1,37,38
 21 -7 21 -7 21 11 c 128,-1,39
 21 29 21 29 32 49 c 128,-1,40
 43 69 43 69 49 69 c 0,41,42
 167 69 167 69 206.5 100 c 128,-1,43
 246 131 246 131 262 186 c 2,44,-1
 545 1172 l 2,45,46
 550 1189 550 1189 550 1207 c 0,47,48
 550 1287 550 1287 394 1287 c 0,49,50
 386 1287 386 1287 386 1306.5 c 128,-1,51
 386 1326 386 1326 397 1344.5 c 128,-1,52
 408 1363 408 1363 414 1363 c 1,53,54
 460 1358 460 1358 669 1358 c 128,-1,55
 878 1358 878 1358 924 1363 c 1,56,57
 932 1363 932 1363 932 1343.5 c 128,-1,58
 932 1324 932 1324 921 1305.5 c 128,-1,59
 910 1287 910 1287 904 1287 c 0,60,61
 787 1287 787 1287 746 1257.5 c 128,-1,62
 705 1228 705 1228 689 1172 c 2,63,-1
 577 780 l 2,64,65
 572 761 572 761 572 750 c 128,-1,66
 572 739 572 739 600 739 c 2,67,-1
 1146 739 l 2,68,69
 1180 739 1180 739 1192 780 c 2,70,-1
 1305 1172 l 2,71,72
 1310 1189 1310 1189 1310 1207 c 0,73,74
 1310 1287 1310 1287 1154 1287 c 0,75,76
 1146 1287 1146 1287 1146 1308.5 c 128,-1,77
 1146 1330 1146 1330 1157 1346.5 c 128,-1,78
 1168 1363 1168 1363 1175 1363 c 1,79,80
 1250 1358 1250 1358 1428 1358 c 128,-1,81
 1606 1358 1606 1358 1684 1363 c 1,82,83
 1692 1363 1692 1363 1692 1342 c 128,-1,84
 1692 1321 1692 1321 1681 1304 c 128,-1,85
 1670 1287 1670 1287 1664 1287 c 0,86,87
 1557 1287 1557 1287 1512 1261 c 128,-1,88
 1467 1235 1467 1235 1449 1172 c 10,89,-1
 1167 186 l 2,0,1
EndSplineSet
Substitution2: "'ss19' Latin to Gothic transliteration subtable" u10337
AlternateSubs2: "'salt' Stylistic Alternatives lookup 24-1" uniF110
Comment: "last+AD0A-89" 
Colour: ffffff
EndChar

StartChar: I
Encoding: 73 73 41
Width: 729
GlyphClass: 2
Flags: MW
AnchorPoint: "above" 678 1415 basechar 0
LayerCount: 2
Fore
SplineSet
407 186 m 2,0,1
 401 166 401 166 401 152 c 0,2,3
 401 69 401 69 558 69 c 0,4,5
 565 69 565 69 565 47.5 c 128,-1,6
 565 26 565 26 554 9.5 c 128,-1,7
 543 -7 543 -7 536 -7 c 1,8,9
 450 0 450 0 282.5 0 c 128,-1,10
 115 0 115 0 29 -7 c 1,11,12
 21 -7 21 -7 21 13 c 128,-1,13
 21 33 21 33 32 51 c 128,-1,14
 43 69 43 69 49 69 c 0,15,16
 137 69 137 69 189 90.5 c 128,-1,17
 241 112 241 112 262 186 c 2,18,-1
 545 1172 l 2,19,20
 550 1194 550 1194 550 1207 c 0,21,22
 550 1287 550 1287 394 1287 c 0,23,24
 386 1287 386 1287 386 1308 c 128,-1,25
 386 1329 386 1329 397 1346 c 128,-1,26
 408 1363 408 1363 414 1363 c 1,27,28
 460 1358 460 1358 669 1358 c 128,-1,29
 878 1358 878 1358 924 1363 c 1,30,31
 932 1363 932 1363 932 1342 c 128,-1,32
 932 1321 932 1321 921 1304 c 128,-1,33
 910 1287 910 1287 904 1287 c 0,34,35
 790 1287 790 1287 748 1259.5 c 128,-1,36
 706 1232 706 1232 689 1172 c 9,37,-1
 407 186 l 2,0,1
EndSplineSet
Substitution2: "'ss19' Latin to Gothic transliteration subtable" u10339
Comment: "last+AD0A-37+AAoA-width of stroke: 139" 
Colour: ffffff
EndChar

StartChar: J
Encoding: 74 74 42
Width: 720
GlyphClass: 2
Flags: W
AnchorPoint: "above" 680 1415 basechar 0
LayerCount: 2
Fore
SplineSet
409 160 m 18,0,1
 323 -129 323 -129 162.5 -274 c 128,-1,2
 2 -419 2 -419 -160 -419 c 0,3,4
 -191 -419 -191 -419 -228 -397.5 c 128,-1,5
 -265 -376 -265 -376 -265 -330.5 c 128,-1,6
 -265 -285 -265 -285 -228 -250.5 c 128,-1,7
 -191 -216 -191 -216 -123 -216 c 256,8,9
 -69 -216 -69 -216 -36.5 -250 c 128,-1,10
 -4 -284 -4 -284 -4 -317 c 1,11,12
 76 -292 76 -292 140.5 -189.5 c 128,-1,13
 205 -87 205 -87 410 634 c 10,14,-1
 563 1172 l 2,15,16
 568 1190 568 1190 568 1201 c 0,17,18
 568 1287 568 1287 407 1287 c 0,19,20
 399 1287 399 1287 399 1308.5 c 128,-1,21
 399 1330 399 1330 410 1346.5 c 128,-1,22
 421 1363 421 1363 428 1363 c 1,23,24
 475 1358 475 1358 669.5 1358 c 128,-1,25
 864 1358 864 1358 936 1363 c 1,26,27
 944 1363 944 1363 944 1342.5 c 128,-1,28
 944 1322 944 1322 933 1304.5 c 128,-1,29
 922 1287 922 1287 915 1287 c 0,30,31
 817 1287 817 1287 772.5 1260.5 c 128,-1,32
 728 1234 728 1234 709 1172 c 10,33,-1
 409 160 l 18,0,1
EndSplineSet
Substitution2: "'swsh' Swash in Latin lookup 14" J.swash
Substitution2: "'ss19' Latin to Gothic transliteration subtable" u1033E
Comment: "last+AD0A-33" 
Colour: ffffff
EndChar

StartChar: K
Encoding: 75 75 43
Width: 1301
GlyphClass: 2
Flags: W
AnchorPoint: "above" 1022 1415 basechar 0
LayerCount: 2
Fore
SplineSet
1012 173 m 18,0,1
 1044 109 1044 109 1094.5 89 c 128,-1,2
 1145 69 1145 69 1240 69 c 0,3,4
 1253 69 1253 69 1253 46.5 c 128,-1,5
 1253 24 1253 24 1242 8.5 c 128,-1,6
 1231 -7 1231 -7 1225 -7 c 1,7,8
 1138 0 1138 0 986 0 c 128,-1,9
 834 0 834 0 747 -7 c 1,10,11
 740 -7 740 -7 740 14 c 128,-1,12
 740 35 740 35 751 52 c 128,-1,13
 762 69 762 69 768 69 c 0,14,15
 870 69 870 69 870 116 c 0,16,17
 870 141 870 141 848 186 c 2,18,-1
 678 539 l 2,19,20
 653 590 653 590 617 617.5 c 128,-1,21
 581 645 581 645 558 645 c 128,-1,22
 535 645 535 645 531 625 c 2,23,-1
 407 186 l 2,24,25
 400 165 400 165 400 146 c 0,26,27
 400 69 400 69 550 69 c 0,28,29
 557 69 557 69 557 47 c 128,-1,30
 557 25 557 25 546 9 c 128,-1,31
 535 -7 535 -7 529 -7 c 1,32,33
 442 0 442 0 278.5 0 c 128,-1,34
 115 0 115 0 29 -7 c 1,35,36
 21 -7 21 -7 21 13 c 128,-1,37
 21 33 21 33 32 51 c 128,-1,38
 43 69 43 69 49 69 c 0,39,40
 172 69 172 69 210 102 c 128,-1,41
 248 135 248 135 262 186 c 2,42,-1
 545 1172 l 2,43,44
 551 1193 551 1193 551 1211 c 0,45,46
 551 1287 551 1287 392 1287 c 0,47,48
 383 1287 383 1287 383 1309.5 c 128,-1,49
 383 1332 383 1332 393.5 1347.5 c 128,-1,50
 404 1363 404 1363 410 1363 c 1,51,52
 458 1358 458 1358 667 1358 c 128,-1,53
 876 1358 876 1358 922 1363 c 1,54,55
 930 1363 930 1363 930 1342 c 128,-1,56
 930 1321 930 1321 919 1304 c 128,-1,57
 908 1287 908 1287 902 1287 c 0,58,59
 782 1287 782 1287 743 1256.5 c 128,-1,60
 704 1226 704 1226 689 1172 c 2,61,-1
 561 729 l 2,62,63
 559 723 559 723 559 718 c 128,-1,64
 559 713 559 713 569 713 c 0,65,66
 610 713 610 713 716 810 c 2,67,-1
 1116 1175 l 2,68,69
 1178 1232 1178 1232 1178 1262 c 0,70,71
 1178 1287 1178 1287 1130 1287 c 0,72,73
 1123 1287 1123 1287 1123 1308.5 c 128,-1,74
 1123 1330 1123 1330 1134 1346.5 c 128,-1,75
 1145 1363 1145 1363 1152 1363 c 1,76,77
 1198 1358 1198 1358 1344 1358 c 128,-1,78
 1490 1358 1490 1358 1536 1363 c 1,79,80
 1544 1363 1544 1363 1544 1342.5 c 128,-1,81
 1544 1322 1544 1322 1533 1304.5 c 128,-1,82
 1522 1287 1522 1287 1515 1287 c 0,83,84
 1415 1287 1415 1287 1353 1259.5 c 128,-1,85
 1291 1232 1291 1232 1199 1150 c 2,86,-1
 753 747 l 2,87,88
 743 738 743 738 743 728 c 256,89,90
 743 718 743 718 747 709 c 2,91,-1
 1012 173 l 18,0,1
EndSplineSet
Substitution2: "'ss19' Latin to Gothic transliteration subtable" u1033A
Comment: "last+AD0A-90" 
Colour: ffffff
EndChar

StartChar: L
Encoding: 76 76 44
Width: 1312
GlyphClass: 2
Flags: W
AnchorPoint: "above" 686 1415 basechar 0
LayerCount: 2
Fore
SplineSet
1190 27 m 2,0,1
 1183 1 1183 1 1171.5 -3 c 128,-1,2
 1160 -7 1160 -7 1099 -7 c 0,3,4
 926 -7 926 -7 718 -3.5 c 128,-1,5
 510 0 510 0 322.5 0 c 128,-1,6
 135 0 135 0 29 -7 c 1,7,8
 21 -7 21 -7 21 14.5 c 128,-1,9
 21 36 21 36 34 52.5 c 128,-1,10
 47 69 47 69 55 69 c 0,11,12
 152 69 152 69 196.5 89.5 c 128,-1,13
 241 110 241 110 260 177 c 10,14,-1
 547 1172 l 2,15,16
 551 1189 551 1189 551 1205 c 0,17,18
 551 1287 551 1287 392 1287 c 0,19,20
 383 1287 383 1287 383 1309.5 c 128,-1,21
 383 1332 383 1332 393.5 1347.5 c 128,-1,22
 404 1363 404 1363 410 1363 c 1,23,24
 458 1358 458 1358 671 1358 c 128,-1,25
 884 1358 884 1358 932 1363 c 1,26,27
 939 1363 939 1363 939 1342 c 128,-1,28
 939 1321 939 1321 928 1304 c 128,-1,29
 917 1287 917 1287 911 1287 c 0,30,31
 808 1287 808 1287 760.5 1267 c 128,-1,32
 713 1247 713 1247 691 1172 c 10,33,-1
 434 277 l 2,34,35
 412 200 412 200 412 159 c 0,36,37
 412 62 412 62 534 62 c 2,38,-1
 867 75 l 2,39,40
 1125 86 1125 86 1211 379 c 0,41,42
 1214 393 1214 393 1252.5 393 c 128,-1,43
 1291 393 1291 393 1291 379 c 2,44,-1
 1190 27 l 2,0,1
EndSplineSet
Substitution2: "'ss19' Latin to Gothic transliteration subtable" u1033B
Comment: "last+AD0A-44" 
Colour: ffffff
EndChar

StartChar: M
Encoding: 77 77 45
Width: 1928
GlyphClass: 2
Flags: W
AnchorPoint: "above" 1236 1415 basechar 0
LayerCount: 2
Fore
SplineSet
1573 186 m 2,0,1
 1568 164 1568 164 1568 150 c 0,2,3
 1568 69 1568 69 1706 69 c 0,4,5
 1713 69 1713 69 1713 47.5 c 128,-1,6
 1713 26 1713 26 1701.5 9.5 c 128,-1,7
 1690 -7 1690 -7 1684 -7 c 1,8,9
 1598 0 1598 0 1461 0 c 128,-1,10
 1324 0 1324 0 1238 -7 c 1,11,12
 1230 -7 1230 -7 1230 13.5 c 128,-1,13
 1230 34 1230 34 1241 51.5 c 128,-1,14
 1252 69 1252 69 1259 69 c 0,15,16
 1330 69 1330 69 1372 99.5 c 128,-1,17
 1414 130 1414 130 1431 186 c 2,18,-1
 1673 1039 l 2,19,20
 1674 1042 1674 1042 1674 1046 c 0,21,22
 1674 1058 1674 1058 1664.5 1058 c 128,-1,23
 1655 1058 1655 1058 1644 1045 c 2,24,-1
 846 4 l 2,25,26
 837 -8 837 -8 825.5 -8 c 128,-1,27
 814 -8 814 -8 811 6 c 2,28,-1
 641 1041 l 2,29,30
 636 1071 636 1071 620.5 1071 c 128,-1,31
 605 1071 605 1071 594 1041 c 2,32,-1
 298 186 l 2,33,34
 290 164 290 164 290 147 c 0,35,36
 290 69 290 69 430 69 c 0,37,38
 438 69 438 69 438 48.5 c 128,-1,39
 438 28 438 28 426.5 10.5 c 128,-1,40
 415 -7 415 -7 409 -7 c 1,41,42
 322 0 322 0 210 0 c 128,-1,43
 98 0 98 0 11 -7 c 1,44,45
 4 -7 4 -7 4 13.5 c 128,-1,46
 4 34 4 34 15 51.5 c 128,-1,47
 26 69 26 69 33 69 c 0,48,49
 103 69 103 69 152 96.5 c 128,-1,50
 201 124 201 124 223 186 c 2,51,-1
 547 1110 l 2,52,53
 564 1157 564 1157 564 1193 c 0,54,55
 564 1287 564 1287 409 1287 c 0,56,57
 401 1287 401 1287 401 1308.5 c 128,-1,58
 401 1330 401 1330 412 1346.5 c 128,-1,59
 423 1363 423 1363 430 1363 c 1,60,61
 476 1358 476 1358 567.5 1358 c 128,-1,62
 659 1358 659 1358 677 1352 c 0,63,64
 720 1340 720 1340 729 1285 c 2,65,-1
 921 277 l 2,66,67
 926 251 926 251 940 251 c 256,68,69
 954 251 954 251 972 275 c 2,70,-1
 1752 1291 l 2,71,72
 1791 1342 1791 1342 1838 1353 c 0,73,74
 1858 1358 1858 1358 1941 1358 c 128,-1,75
 2024 1358 2024 1358 2071 1363 c 1,76,77
 2078 1363 2078 1363 2078 1342 c 128,-1,78
 2078 1321 2078 1321 2067.5 1305 c 128,-1,79
 2057 1289 2057 1289 2050 1287 c 0,80,81
 1954 1287 1954 1287 1911.5 1250.5 c 128,-1,82
 1869 1214 1869 1214 1837 1106 c 2,83,-1
 1573 186 l 2,0,1
EndSplineSet
Substitution2: "'ss19' Latin to Gothic transliteration subtable" u1033C
AlternateSubs2: "'salt' Stylistic Alternatives lookup 24-1" uniF11A
Comment: "last+AD0A-83" 
Colour: ffffff
EndChar

StartChar: N
Encoding: 78 78 46
Width: 1539
GlyphClass: 2
Flags: W
AnchorPoint: "above" 1106 1415 basechar 0
LayerCount: 2
Fore
SplineSet
1232 4 m 2,0,1
 1223 -29 1223 -29 1206.5 -29 c 128,-1,2
 1190 -29 1190 -29 1175 0 c 2,3,-1
 636 1117 l 2,4,5
 627 1137 627 1137 610.5 1137 c 128,-1,6
 594 1137 594 1137 587 1106 c 2,7,-1
 325 186 l 2,8,9
 317 159 317 159 317 141 c 0,10,11
 317 69 317 69 450 69 c 0,12,13
 458 69 458 69 458 48 c 128,-1,14
 458 27 458 27 447 10 c 128,-1,15
 436 -7 436 -7 430 -7 c 1,16,17
 344 0 344 0 229.5 0 c 128,-1,18
 115 0 115 0 29 -7 c 1,19,20
 21 -7 21 -7 21 13 c 128,-1,21
 21 33 21 33 32 51 c 128,-1,22
 43 69 43 69 49 69 c 0,23,24
 139 69 139 69 187 90 c 128,-1,25
 235 111 235 111 256 186 c 10,26,-1
 520 1114 l 2,27,28
 534 1164 534 1164 534 1212 c 128,-1,29
 534 1260 534 1260 486 1277 c 0,30,31
 456 1287 456 1287 390 1287 c 0,32,33
 382 1287 382 1287 382 1308 c 128,-1,34
 382 1329 382 1329 393 1346 c 128,-1,35
 404 1363 404 1363 410 1363 c 0,36,37
 458 1358 458 1358 540.5 1358 c 128,-1,38
 623 1358 623 1358 651.5 1353.5 c 128,-1,39
 680 1349 680 1349 698 1312 c 2,40,-1
 1188 288 l 2,41,42
 1202 260 1202 260 1218 260 c 256,43,44
 1234 260 1234 260 1241 290 c 2,45,-1
 1498 1172 l 2,46,47
 1505 1196 1505 1196 1505 1216 c 0,48,49
 1505 1287 1505 1287 1356 1287 c 0,50,51
 1349 1287 1349 1287 1349 1307 c 128,-1,52
 1349 1327 1349 1327 1361 1345 c 128,-1,53
 1373 1363 1373 1363 1379 1363 c 1,54,55
 1426 1358 1426 1358 1572 1358 c 128,-1,56
 1718 1358 1718 1358 1765 1363 c 1,57,58
 1772 1363 1772 1363 1772 1342 c 128,-1,59
 1772 1321 1772 1321 1761 1304 c 128,-1,60
 1750 1287 1750 1287 1744 1287 c 0,61,62
 1666 1287 1666 1287 1627 1267.5 c 128,-1,63
 1588 1248 1588 1248 1566 1172 c 10,64,-1
 1232 4 l 2,0,1
EndSplineSet
Substitution2: "'ss19' Latin to Gothic transliteration subtable" u1033D
Comment: "last+AD0A-64" 
Colour: ffffff
EndChar

StartChar: O
Encoding: 79 79 47
Width: 1478
GlyphClass: 2
Flags: MW
AnchorPoint: "above" 1094 1415 basechar 0
LayerCount: 2
Fore
SplineSet
1534 886 m 0,0,1
 1534 536 1534 536 1259 254.5 c 128,-1,2
 984 -27 984 -27 672 -27 c 0,3,4
 495 -27 495 -27 356 85 c 128,-1,5
 217 197 217 197 217 441 c 0,6,7
 217 802 217 802 493.5 1093.5 c 128,-1,8
 770 1385 770 1385 1079 1385 c 0,9,10
 1298 1385 1298 1385 1416 1240.5 c 128,-1,11
 1534 1096 1534 1096 1534 886 c 0,0,1
1371 906 m 256,12,13
 1371 1078 1371 1078 1274.5 1195.5 c 128,-1,14
 1178 1313 1178 1313 1031 1314 c 256,15,16
 874 1314 874 1314 716.5 1181 c 128,-1,17
 559 1048 559 1048 469.5 852.5 c 0,18,19
 380 656 380 656 380 456 c 256,20,21
 380 276 380 276 480.5 161 c 128,-1,22
 581 46 581 46 707 46 c 0,23,24
 918 46 918 46 1068.5 194 c 128,-1,25
 1219 342 1219 342 1295 538 c 128,-1,26
 1371 734 1371 734 1371 906 c 256,12,13
EndSplineSet
Substitution2: "'ss19' Latin to Gothic transliteration subtable" u10349
Comment: "last+AD0A-25+AAoA-width of right curve: 163" 
Colour: ffffff
EndChar

StartChar: P
Encoding: 80 80 48
Width: 1184
GlyphClass: 2
Flags: W
AnchorPoint: "above" 924 1415 basechar 0
LayerCount: 2
Fore
SplineSet
1327 1081 m 0,0,1
 1327 868 1327 868 1141.5 728.5 c 128,-1,2
 956 589 956 589 731 589 c 0,3,4
 660 589 660 589 552 602 c 0,5,6
 527 605 527 605 521 583 c 2,7,-1
 409 186 l 2,8,9
 403 165 403 165 403 148 c 0,10,11
 403 69 403 69 560 69 c 0,12,13
 567 69 567 69 567 48 c 128,-1,14
 567 27 567 27 556 10 c 128,-1,15
 545 -7 545 -7 539 -7 c 1,16,17
 453 0 453 0 285 0 c 128,-1,18
 117 0 117 0 31 -7 c 1,19,20
 23 -7 23 -7 23 14 c 128,-1,21
 23 35 23 35 34 52 c 128,-1,22
 45 69 45 69 51 69 c 0,23,24
 141 69 141 69 192.5 93 c 128,-1,25
 244 117 244 117 264 186 c 10,26,-1
 547 1172 l 2,27,28
 551 1186 551 1186 551 1201 c 0,29,30
 551 1282 551 1282 392 1282 c 0,31,32
 384 1282 384 1282 384 1303 c 128,-1,33
 384 1324 384 1324 395 1341 c 128,-1,34
 406 1358 406 1358 412 1358 c 1,35,36
 512 1355 512 1355 640.5 1355 c 128,-1,37
 769 1355 769 1355 830.5 1356.5 c 128,-1,38
 892 1358 892 1358 969 1358 c 0,39,40
 1128 1358 1128 1358 1227.5 1283 c 128,-1,41
 1327 1208 1327 1208 1327 1081 c 0,0,1
1165 1068 m 0,42,43
 1165 1171 1165 1171 1089 1233.5 c 128,-1,44
 1013 1296 1013 1296 869 1296 c 256,45,46
 725 1296 725 1296 716 1265 c 2,47,-1
 554 698 l 2,48,49
 548 675 548 675 567 671 c 0,50,51
 631 658 631 658 687 658 c 0,52,53
 892 658 892 658 1028.5 772 c 128,-1,54
 1165 886 1165 886 1165 1068 c 0,42,43
EndSplineSet
Substitution2: "'ss19' Latin to Gothic transliteration subtable" u10340
Comment: "last+AD0A-53" 
Colour: ffffff
EndChar

StartChar: Q
Encoding: 81 81 49
Width: 1478
GlyphClass: 2
Flags: W
AnchorPoint: "above" 1090 1415 basechar 0
LayerCount: 2
Fore
SplineSet
1534 886 m 0,0,1
 1534 731 1534 731 1464.5 561 c 128,-1,2
 1395 391 1395 391 1248 241.5 c 128,-1,3
 1101 92 1101 92 944 29 c 0,4,5
 936 26 936 26 936 20 c 128,-1,6
 936 14 936 14 940 9 c 0,7,8
 992 -54 992 -54 1153 -141.5 c 128,-1,9
 1314 -229 1314 -229 1517 -284 c 0,10,11
 1526 -287 1526 -287 1526 -305.5 c 128,-1,12
 1526 -324 1526 -324 1509 -342.5 c 128,-1,13
 1492 -361 1492 -361 1482 -359 c 0,14,15
 1210 -302 1210 -302 949 -201 c 128,-1,16
 688 -100 688 -100 517.5 -16.5 c 128,-1,17
 347 67 347 67 282 167 c 128,-1,18
 217 267 217 267 217 443 c 0,19,20
 217 796 217 796 492.5 1090.5 c 128,-1,21
 768 1385 768 1385 1079 1385 c 0,22,23
 1295 1385 1295 1385 1414.5 1243 c 128,-1,24
 1534 1101 1534 1101 1534 886 c 0,0,1
1371 886 m 0,25,26
 1371 1080 1371 1080 1277 1196.5 c 128,-1,27
 1183 1313 1183 1313 1035 1314 c 256,28,29
 878 1314 878 1314 721 1184 c 128,-1,30
 564 1054 564 1054 472 852 c 128,-1,31
 380 650 380 650 380 448 c 256,32,33
 380 286 380 286 476.5 166.5 c 128,-1,34
 573 47 573 47 707 47 c 0,35,36
 980 47 980 47 1175.5 314.5 c 128,-1,37
 1371 582 1371 582 1371 886 c 0,25,26
EndSplineSet
Substitution2: "'swsh' Swash in Latin lookup 14" Q.swash
Substitution2: "'ss19' Latin to Gothic transliteration subtable" u10335
Comment: "last+AD0A-37" 
Colour: ffffff
EndChar

StartChar: R
Encoding: 82 82 50
Width: 1358
GlyphClass: 2
Flags: W
AnchorPoint: "above" 880 1415 basechar 0
LayerCount: 2
Fore
SplineSet
1361 1083 m 256,0,1
 1361 953 1361 953 1262 821.5 c 128,-1,2
 1163 690 1163 690 930 625 c 0,3,4
 912 620 912 620 912 604.5 c 128,-1,5
 912 589 912 589 917 573 c 0,6,7
 1002 296 1002 296 1146 120 c 0,8,9
 1232 15 1232 15 1343 15 c 0,10,11
 1352 15 1352 15 1352 5 c 0,12,13
 1352 -19 1352 -19 1331 -21 c 0,14,15
 1290 -24 1290 -24 1252 -24 c 0,16,17
 1139 -24 1139 -24 1074.5 -0.5 c 128,-1,18
 1010 23 1010 23 945.5 100.5 c 128,-1,19
 881 178 881 178 856 245 c 2,20,-1
 764 487 l 2,21,22
 744 538 744 538 714 574 c 0,23,24
 696 596 696 596 647 596 c 128,-1,25
 598 596 598 596 568 599.5 c 0,26,27
 538 604 538 604 531 598 c 0,28,29
 523 592 523 592 521 583 c 2,30,-1
 409 186 l 2,31,32
 402 161 402 161 402 143 c 0,33,34
 402 69 402 69 563 69 c 0,35,36
 570 69 570 69 570 47.5 c 128,-1,37
 570 26 570 26 559.5 9.5 c 128,-1,38
 549 -7 549 -7 543 -7 c 1,39,40
 456 0 456 0 285.5 0 c 128,-1,41
 115 0 115 0 29 -7 c 1,42,43
 21 -7 21 -7 21 13 c 128,-1,44
 21 33 21 33 32 51 c 128,-1,45
 43 69 43 69 49 69 c 0,46,47
 152 69 152 69 198.5 94 c 128,-1,48
 245 119 245 119 264 186 c 10,49,-1
 547 1172 l 2,50,51
 552 1189 552 1189 552 1215 c 0,52,53
 552 1282 552 1282 390 1282 c 0,54,55
 382 1282 382 1282 382 1303 c 128,-1,56
 382 1324 382 1324 393 1341 c 128,-1,57
 404 1358 404 1358 410 1358 c 1,58,59
 510 1355 510 1355 653 1355 c 128,-1,60
 796 1355 796 1355 851 1356.5 c 128,-1,61
 906 1358 906 1358 984 1358 c 0,62,63
 1147 1358 1147 1358 1254 1285.5 c 128,-1,64
 1361 1213 1361 1213 1361 1083 c 256,0,1
1199 1066 m 0,65,66
 1199 1168 1199 1168 1114.5 1232 c 128,-1,67
 1030 1296 1030 1296 862 1296 c 0,68,69
 768 1296 768 1296 744.5 1288.5 c 128,-1,70
 721 1281 721 1281 716 1265 c 2,71,-1
 554 698 l 2,72,73
 553 694 553 694 553 684.5 c 128,-1,74
 553 675 553 675 570 671 c 0,75,76
 639 658 639 658 687 658 c 0,77,78
 897 658 897 658 1048 767 c 128,-1,79
 1199 876 1199 876 1199 1066 c 0,65,66
EndSplineSet
Substitution2: "'ss19' Latin to Gothic transliteration subtable" u10342
Comment: "last+AD0A-77" 
Colour: ffffff
EndChar

StartChar: S
Encoding: 83 83 51
Width: 1042
GlyphClass: 2
Flags: W
AnchorPoint: "above" 850 1415 basechar 0
LayerCount: 2
Fore
SplineSet
991 504 m 0,0,1
 991 303 991 303 829.5 138 c 128,-1,2
 668 -27 668 -27 464 -27 c 0,3,4
 349 -27 349 -27 285.5 -7 c 128,-1,5
 222 13 222 13 116 73 c 1,6,-1
 116 145 l 1,7,8
 127 318 127 318 151 365 c 0,9,10
 159 381 159 381 190 381 c 0,11,12
 220 381 220 381 221 374 c 1,13,14
 214 336 214 336 214 307 c 0,15,16
 214 178 214 178 299 113 c 128,-1,17
 384 48 384 48 522 48 c 0,18,19
 636 48 636 48 728.5 154.5 c 128,-1,20
 821 261 821 261 821 385 c 0,21,22
 821 541 821 541 668 607 c 2,23,-1
 490 683 l 2,24,25
 338 748 338 748 338 934 c 256,26,27
 338 1120 338 1120 492 1252.5 c 128,-1,28
 646 1385 646 1385 839 1385 c 0,29,30
 946 1385 946 1385 1028 1365 c 128,-1,31
 1110 1345 1110 1345 1133 1345 c 1,32,33
 1131 1248 1131 1248 1098 1081 c 0,34,35
 1093 1062 1093 1062 1060.5 1062 c 128,-1,36
 1028 1062 1028 1062 1026 1079 c 2,37,-1
 1025 1135 l 2,38,39
 1007 1318 1007 1318 801 1318 c 0,40,41
 670 1318 670 1318 579 1223 c 128,-1,42
 488 1128 488 1128 488 996 c 0,43,44
 488 890 488 890 618 833 c 2,45,-1
 860 730 l 2,46,47
 991 674 991 674 991 504 c 0,0,1
EndSplineSet
Substitution2: "'ss19' Latin to Gothic transliteration subtable" u10343
AlternateSubs2: "'salt' Stylistic Alternatives lookup 24-1" uniF126
Comment: "last+AD0A-46" 
Colour: ffffff
EndChar

StartChar: T
Encoding: 84 84 52
Width: 1275
GlyphClass: 2
Flags: W
AnchorPoint: "above" 1120 1415 basechar 0
LayerCount: 2
Fore
SplineSet
699 186 m 2,0,1
 694 169 694 169 694 149 c 0,2,3
 694 69 694 69 851 69 c 0,4,5
 858 69 858 69 858 47.5 c 128,-1,6
 858 26 858 26 847.5 9.5 c 128,-1,7
 837 -7 837 -7 831 -7 c 1,8,9
 743 0 743 0 566.5 0 c 128,-1,10
 390 0 390 0 304 -7 c 1,11,12
 296 -7 296 -7 296 14 c 128,-1,13
 296 35 296 35 307 52 c 128,-1,14
 318 69 318 69 324 69 c 0,15,16
 440 69 440 69 489.5 97 c 128,-1,17
 539 125 539 125 556 186 c 10,18,-1
 857 1240 l 2,19,20
 862 1258 862 1258 862 1263 c 0,21,22
 862 1282 862 1282 825 1282 c 2,23,-1
 687 1282 l 2,24,25
 432 1282 432 1282 353 1006 c 0,26,27
 349 992 349 992 313 992 c 128,-1,28
 277 992 277 992 275 1006 c 1,29,-1
 367 1327 l 2,30,31
 376 1358 376 1358 445 1358 c 0,32,33
 557 1358 557 1358 688 1356 c 128,-1,34
 819 1354 819 1354 936 1354 c 128,-1,35
 1053 1354 1053 1354 1188.5 1356 c 128,-1,36
 1324 1358 1324 1358 1474 1358 c 0,37,38
 1546 1358 1546 1358 1546 1338 c 2,39,-1
 1449 1006 l 2,40,41
 1445 992 1445 992 1405.5 992 c 128,-1,42
 1366 992 1366 992 1369 1006 c 0,43,44
 1384 1076 1384 1076 1384 1104 c 0,45,46
 1384 1282 1384 1282 1188 1282 c 2,47,-1
 1054 1282 l 2,48,49
 1013 1282 1013 1282 1002 1245 c 2,50,-1
 699 186 l 2,0,1
EndSplineSet
Substitution2: "'ss19' Latin to Gothic transliteration subtable" u10344
Substitution2: "'ss09' Alternates in PUA-1" T.alt
Comment: "last+AD0A-48" 
Colour: ffffff
EndChar

StartChar: U
Encoding: 85 85 53
Width: 1482
GlyphClass: 2
Flags: W
AnchorPoint: "above" 1118 1415 basechar 0
LayerCount: 2
Fore
SplineSet
1456 890 m 18,0,1
 1346 503 1346 503 1273 346 c 128,-1,2
 1200 189 1200 189 1047 81 c 128,-1,3
 894 -27 894 -27 665 -27 c 0,4,5
 482 -27 482 -27 388.5 42.5 c 128,-1,6
 295 112 295 112 295 263 c 0,7,8
 295 365 295 365 344 539 c 2,9,-1
 525 1172 l 2,10,11
 533 1201 533 1201 533 1218 c 0,12,13
 533 1262 533 1262 497.5 1274.5 c 128,-1,14
 462 1287 462 1287 392 1287 c 0,15,16
 383 1287 383 1287 383 1309.5 c 128,-1,17
 383 1332 383 1332 393.5 1347.5 c 128,-1,18
 404 1363 404 1363 410 1363 c 1,19,20
 458 1358 458 1358 655 1358 c 128,-1,21
 852 1358 852 1358 898 1363 c 1,22,23
 905 1363 905 1363 905 1341.5 c 128,-1,24
 905 1320 905 1320 894 1303.5 c 128,-1,25
 883 1287 883 1287 877 1287 c 0,26,27
 750 1287 750 1287 718 1256 c 128,-1,28
 686 1225 686 1225 671 1172 c 10,29,-1
 531 687 l 2,30,31
 442 371 442 371 442 268 c 128,-1,32
 442 165 442 165 512.5 107 c 0,33,34
 584 49 584 49 710 49 c 256,35,36
 910 49 910 49 1039 153 c 128,-1,37
 1168 257 1168 257 1234 487 c 2,38,-1
 1431 1172 l 2,39,40
 1437 1194 1437 1194 1437 1213 c 0,41,42
 1437 1287 1437 1287 1299 1287 c 0,43,44
 1292 1287 1292 1287 1292 1308 c 128,-1,45
 1292 1329 1292 1329 1303 1346 c 128,-1,46
 1314 1363 1314 1363 1320 1363 c 9,47,48
 1390 1358 1390 1358 1548.5 1358 c 128,-1,49
 1707 1358 1707 1358 1753 1363 c 1,50,51
 1761 1363 1761 1363 1761 1342 c 128,-1,52
 1761 1321 1761 1321 1750 1304 c 128,-1,53
 1739 1287 1739 1287 1733 1287 c 0,54,55
 1645 1287 1645 1287 1600.5 1265 c 128,-1,56
 1556 1243 1556 1243 1536 1172 c 10,57,-1
 1456 890 l 18,0,1
EndSplineSet
Substitution2: "'ss19' Latin to Gothic transliteration subtable" u1033F
Comment: "last+AD0A-56" 
Colour: ffffff
EndChar

StartChar: V
Encoding: 86 86 54
Width: 1206
GlyphClass: 2
Flags: W
AnchorPoint: "above" 942 1415 basechar 0
LayerCount: 2
Fore
SplineSet
953 676 m 2,0,-1
 487 -13 l 2,1,2
 470 -38 470 -38 455 -38 c 256,3,4
 440 -38 440 -38 437 6 c 2,5,-1
 363 1172 l 18,6,7
 359 1242 359 1242 327.5 1264.5 c 128,-1,8
 296 1287 296 1287 215 1287 c 0,9,10
 208 1287 208 1287 208 1308.5 c 128,-1,11
 208 1330 208 1330 219 1346.5 c 128,-1,12
 230 1363 230 1363 237 1363 c 1,13,14
 293 1358 293 1358 456.5 1358 c 128,-1,15
 620 1358 620 1358 698 1363 c 1,16,17
 705 1363 705 1363 705 1342.5 c 128,-1,18
 705 1322 705 1322 694 1304.5 c 128,-1,19
 683 1287 683 1287 676 1287 c 0,20,21
 569 1287 569 1287 537 1257.5 c 128,-1,22
 505 1228 505 1228 508 1184 c 10,23,-1
 563 281 l 2,24,25
 565 253 565 253 576 253 c 256,26,27
 587 253 587 253 603 277 c 2,28,-1
 938 775 l 2,29,30
 991 853 991 853 1183 1163 c 0,31,32
 1214 1213 1214 1213 1214 1242 c 0,33,34
 1214 1287 1214 1287 1110 1287 c 0,35,36
 1102 1287 1102 1287 1102 1306.5 c 128,-1,37
 1102 1326 1102 1326 1113 1344.5 c 128,-1,38
 1124 1363 1124 1363 1130 1363 c 1,39,40
 1173 1358 1173 1358 1338.5 1358 c 128,-1,41
 1504 1358 1504 1358 1559 1363 c 1,42,43
 1566 1363 1566 1363 1566 1342 c 128,-1,44
 1566 1321 1566 1321 1555 1304 c 128,-1,45
 1544 1287 1544 1287 1538 1287 c 0,46,47
 1389 1285 1389 1285 1325 1201 c 0,48,49
 1172 1000 1172 1000 953 676 c 2,0,-1
EndSplineSet
Comment: "last+AD0A-49" 
Colour: ffffff
EndChar

StartChar: W
Encoding: 87 87 55
Width: 1944
GlyphClass: 2
Flags: W
AnchorPoint: "above" 1302 1415 basechar 0
LayerCount: 2
Fore
SplineSet
1703 686 m 2,0,-1
 1219 -13 l 18,1,2
 1203 -36 1203 -36 1191 -36 c 256,3,4
 1178 -36 1178 -36 1169 6 c 2,5,-1
 1062 511 l 2,6,7
 1058 536 1058 536 1051 536 c 256,8,9
 1044 536 1044 536 1027 511 c 2,10,-1
 665 -13 l 2,11,12
 650 -36 650 -36 636 -36 c 256,13,14
 622 -36 622 -36 615 6 c 2,15,-1
 368 1172 l 2,16,17
 353 1245 353 1245 322.5 1266 c 128,-1,18
 292 1287 292 1287 222 1287 c 0,19,20
 215 1287 215 1287 215 1306.5 c 128,-1,21
 215 1326 215 1326 226 1344.5 c 128,-1,22
 237 1363 237 1363 243 1363 c 1,23,24
 289 1358 289 1358 451.5 1358 c 128,-1,25
 614 1358 614 1358 687 1363 c 1,26,27
 695 1363 695 1363 695 1343.5 c 128,-1,28
 695 1324 695 1324 684 1305.5 c 128,-1,29
 673 1287 673 1287 667 1287 c 0,30,31
 506 1287 506 1287 506 1209 c 0,32,33
 506 1190 506 1190 510 1172 c 2,34,-1
 709 252 l 2,35,36
 716 226 716 226 730 226 c 256,37,38
 744 226 744 226 762 250 c 2,39,-1
 1002 590 l 2,40,41
 1026 624 1026 624 1026 652 c 256,42,43
 1026 680 1026 680 1022 700 c 2,44,-1
 922 1172 l 2,45,46
 906 1249 906 1249 883 1268 c 128,-1,47
 860 1287 860 1287 795 1287 c 0,48,49
 787 1287 787 1287 787 1306.5 c 128,-1,50
 787 1326 787 1326 798 1344.5 c 128,-1,51
 809 1363 809 1363 815 1363 c 1,52,53
 861 1358 861 1358 1020 1358 c 128,-1,54
 1179 1358 1179 1358 1241 1363 c 1,55,56
 1249 1363 1249 1363 1249 1342 c 128,-1,57
 1249 1321 1249 1321 1238.5 1305 c 128,-1,58
 1228 1289 1228 1289 1221 1287 c 0,59,60
 1060 1287 1060 1287 1060 1209 c 0,61,62
 1060 1191 1060 1191 1064 1172 c 2,63,-1
 1134 847 l 2,64,65
 1140 815 1140 815 1147 815 c 256,66,67
 1154 815 1154 815 1173 847 c 2,68,-1
 1379 1163 l 2,69,70
 1412 1212 1412 1212 1412 1246 c 0,71,72
 1412 1287 1412 1287 1307 1287 c 0,73,74
 1299 1287 1299 1287 1299 1306.5 c 128,-1,75
 1299 1326 1299 1326 1310 1344.5 c 128,-1,76
 1321 1363 1321 1363 1327 1363 c 1,77,78
 1374 1358 1374 1358 1532.5 1358 c 128,-1,79
 1691 1358 1691 1358 1755 1363 c 1,80,81
 1763 1363 1763 1363 1763 1342 c 128,-1,82
 1763 1321 1763 1321 1752.5 1305 c 128,-1,83
 1742 1289 1742 1289 1735 1287 c 0,84,85
 1584 1287 1584 1287 1522 1201 c 2,86,-1
 1205 763 l 2,87,88
 1175 722 1175 722 1175 692 c 256,89,90
 1175 662 1175 662 1178 647 c 2,91,-1
 1263 252 l 2,92,93
 1269 225 1269 225 1283 225 c 256,94,95
 1297 225 1297 225 1316 250 c 0,96,97
 1502 494 1502 494 1933 1163 c 0,98,99
 1966 1217 1966 1217 1966 1246 c 0,100,101
 1966 1287 1966 1287 1861 1287 c 0,102,103
 1853 1287 1853 1287 1853 1306.5 c 128,-1,104
 1853 1326 1853 1326 1864 1344.5 c 128,-1,105
 1875 1363 1875 1363 1881 1363 c 1,106,107
 1928 1358 1928 1358 2094 1358 c 128,-1,108
 2260 1358 2260 1358 2309 1363 c 1,109,110
 2317 1363 2317 1363 2317 1342 c 128,-1,111
 2317 1321 2317 1321 2306 1304 c 128,-1,112
 2295 1287 2295 1287 2289 1287 c 0,113,114
 2141 1287 2141 1287 2076 1201 c 0,115,116
 1920 1000 1920 1000 1703 686 c 2,0,-1
EndSplineSet
Substitution2: "'ss19' Latin to Gothic transliteration subtable" u10345
Substitution2: "'ss02' Style Set 2 in Latin lookup 10" uni01F7
Comment: "last+AD0A-108" 
Colour: ffffff
EndChar

StartChar: X
Encoding: 88 88 56
Width: 1356
GlyphClass: 2
Flags: W
AnchorPoint: "above" 1086 1415 basechar 0
LayerCount: 2
Fore
SplineSet
1255 1092 m 2,0,-1
 894 749 l 2,1,2
 878 734 878 734 878 717 c 256,3,4
 878 700 878 700 882 689 c 2,5,-1
 1066 186 l 2,6,7
 1108 69 1108 69 1272 69 c 0,8,9
 1279 69 1279 69 1279 45 c 128,-1,10
 1279 21 1279 21 1268 7 c 128,-1,11
 1257 -7 1257 -7 1251 -7 c 1,12,13
 1162 0 1162 0 1029.5 0 c 128,-1,14
 897 0 897 0 793 -7 c 17,15,16
 785 -7 785 -7 785 12.5 c 128,-1,17
 785 32 785 32 796 50.5 c 128,-1,18
 807 69 807 69 813 69 c 0,19,20
 949 69 949 69 949 133 c 0,21,22
 949 157 949 157 936 191 c 2,23,-1
 783 589 l 2,24,25
 776 608 776 608 766 608 c 256,26,27
 756 608 756 608 738 592 c 2,28,-1
 436 302 l 2,29,30
 299 171 299 171 299 115 c 0,31,32
 299 69 299 69 392 69 c 0,33,34
 399 69 399 69 399 47.5 c 128,-1,35
 399 26 399 26 388 9.5 c 128,-1,36
 377 -7 377 -7 370 -7 c 1,37,38
 288 0 288 0 151 0 c 128,-1,39
 14 0 14 0 -82 -7 c 17,40,41
 -90 -7 -90 -7 -90 11 c 128,-1,42
 -90 29 -90 29 -79 49 c 128,-1,43
 -68 69 -68 69 -62 69 c 0,44,45
 96 69 96 69 187 155 c 2,46,-1
 720 658 l 2,47,48
 737 673 737 673 737 690 c 256,49,50
 737 707 737 707 731 722 c 2,51,-1
 554 1179 l 2,52,53
 528 1245 528 1245 487 1266 c 128,-1,54
 446 1287 446 1287 361 1287 c 0,55,56
 353 1287 353 1287 353 1308.5 c 128,-1,57
 353 1330 353 1330 364.5 1346.5 c 128,-1,58
 376 1363 376 1363 382 1363 c 1,59,60
 460 1358 460 1358 602 1358 c 128,-1,61
 744 1358 744 1358 882 1363 c 1,62,63
 889 1363 889 1363 889 1341.5 c 128,-1,64
 889 1320 889 1320 878.5 1303.5 c 128,-1,65
 868 1287 868 1287 862 1287 c 0,66,67
 700 1287 700 1287 700 1213 c 0,68,69
 700 1194 700 1194 709 1171 c 2,70,-1
 833 824 l 2,71,72
 840 806 840 806 851 806 c 256,73,74
 862 806 862 806 879 822 c 2,75,-1
 1234 1163 l 2,76,77
 1299 1225 1299 1225 1299 1256 c 128,-1,78
 1299 1287 1299 1287 1223 1287 c 0,79,80
 1215 1287 1215 1287 1215 1306.5 c 128,-1,81
 1215 1326 1215 1326 1226 1344.5 c 128,-1,82
 1237 1363 1237 1363 1243 1363 c 1,83,84
 1301 1358 1301 1358 1435.5 1358 c 128,-1,85
 1570 1358 1570 1358 1642 1363 c 1,86,87
 1650 1363 1650 1363 1650 1342 c 128,-1,88
 1650 1321 1650 1321 1639.5 1305 c 128,-1,89
 1629 1289 1629 1289 1622 1287 c 0,90,91
 1527 1287 1527 1287 1452 1247.5 c 128,-1,92
 1377 1208 1377 1208 1255 1092 c 2,0,-1
EndSplineSet
Substitution2: "'ss19' Latin to Gothic transliteration subtable" u10347
Comment: "last+AD0A-88" 
Colour: ffffff
EndChar

StartChar: Y
Encoding: 89 89 57
Width: 1228
GlyphClass: 2
Flags: W
AnchorPoint: "above" 934 1415 basechar 0
LayerCount: 2
Fore
SplineSet
642 186 m 2,0,1
 633 154 633 154 633 126 c 128,-1,2
 633 98 633 98 667.5 83.5 c 128,-1,3
 702 69 702 69 773 69 c 0,4,5
 781 69 781 69 781 48 c 128,-1,6
 781 27 781 27 770 10 c 128,-1,7
 759 -7 759 -7 753 -7 c 1,8,9
 666 0 666 0 514.5 0 c 128,-1,10
 363 0 363 0 277 -7 c 1,11,12
 270 -7 270 -7 270 14 c 128,-1,13
 270 35 270 35 281 52 c 128,-1,14
 292 69 292 69 298 69 c 0,15,16
 392 69 392 69 434.5 89 c 128,-1,17
 477 109 477 109 499 186 c 2,18,-1
 575 452 l 2,19,20
 602 546 602 546 602 580.5 c 128,-1,21
 602 615 602 615 579 689 c 2,22,-1
 428 1172 l 2,23,24
 404 1250 404 1250 363.5 1268.5 c 128,-1,25
 323 1287 323 1287 271 1287 c 0,26,27
 264 1287 264 1287 264 1308 c 128,-1,28
 264 1329 264 1329 275 1346 c 128,-1,29
 286 1363 286 1363 292 1363 c 1,30,31
 338 1358 338 1358 508 1358 c 128,-1,32
 678 1358 678 1358 726 1363 c 1,33,34
 733 1363 733 1363 733 1342 c 128,-1,35
 733 1321 733 1321 722 1304 c 128,-1,36
 711 1287 711 1287 705 1287 c 0,37,38
 608 1287 608 1287 585 1267 c 0,39,40
 562 1246 562 1246 562 1222 c 0,41,42
 562 1200 562 1200 571 1172 c 2,43,-1
 722 689 l 2,44,45
 728 671 728 671 738 671 c 256,46,47
 748 671 748 671 762 686 c 2,48,-1
 1207 1163 l 2,49,50
 1257 1217 1257 1217 1257 1247 c 0,51,52
 1257 1287 1257 1287 1157 1287 c 0,53,54
 1150 1287 1150 1287 1150 1308.5 c 128,-1,55
 1150 1330 1150 1330 1161 1346.5 c 128,-1,56
 1172 1363 1172 1363 1179 1363 c 9,57,58
 1245 1358 1245 1358 1371.5 1358 c 128,-1,59
 1498 1358 1498 1358 1573 1363 c 17,60,61
 1580 1363 1580 1363 1580 1342.5 c 128,-1,62
 1580 1322 1580 1322 1569 1304.5 c 128,-1,63
 1558 1287 1558 1287 1551 1287 c 0,64,65
 1459 1287 1459 1287 1407.5 1258.5 c 128,-1,66
 1356 1230 1356 1230 1196 1059 c 2,67,-1
 815 653 l 2,68,69
 758 592 758 592 728 487 c 2,70,-1
 642 186 l 2,0,1
EndSplineSet
Comment: "last+AD0A-70" 
Colour: ffffff
EndChar

StartChar: Z
Encoding: 90 90 58
Width: 1199
GlyphClass: 2
Flags: W
AnchorPoint: "above" 954 1415 basechar 0
LayerCount: 2
Fore
SplineSet
1048 -7 m 0,0,1
 1039 -36 1039 -36 1024 -33 c 2,2,-1
 972 -21 l 2,3,4
 881 0 881 0 317 0 c 2,5,-1
 -35 0 l 2,6,7
 -55 0 -55 0 -55 20 c 128,-1,8
 -55 40 -55 40 -44 51 c 2,9,-1
 1192 1267 l 2,10,11
 1201 1276 1201 1276 1201 1282.5 c 128,-1,12
 1201 1289 1201 1289 1181 1289 c 2,13,-1
 609 1289 l 2,14,15
 566 1289 566 1289 517 1253.5 c 128,-1,16
 468 1218 468 1218 400 1125 c 0,17,18
 336 1038 336 1038 302 974 c 0,19,20
 296 962 296 962 275 969 c 128,-1,21
 254 976 254 976 259 988 c 0,22,23
 331 1158 331 1158 392 1345 c 0,24,25
 400 1370 400 1370 428 1366 c 2,26,-1
 456 1362 l 2,27,28
 538 1350 538 1350 710.5 1350.5 c 128,-1,29
 883 1351 883 1351 1043 1354 c 2,30,-1
 1417 1362 l 17,31,32
 1434 1362 1434 1362 1434 1347 c 128,-1,33
 1434 1332 1434 1332 1418 1316 c 2,34,-1
 201 111 l 2,35,36
 193 103 193 103 193 86 c 128,-1,37
 193 69 193 69 215 69 c 0,38,39
 644 69 644 69 860 82 c 0,40,41
 980 89 980 89 1148 352 c 0,42,43
 1153 360 1153 360 1175 353 c 128,-1,44
 1197 346 1197 346 1192 336 c 0,45,46
 1107 175 1107 175 1048 -7 c 0,0,1
EndSplineSet
Substitution2: "'ss19' Latin to Gothic transliteration subtable" u10336
Comment: "last+AD0A-46" 
Colour: ffffff
EndChar

StartChar: bracketleft
Encoding: 91 91 59
Width: 725
GlyphClass: 2
Flags: W
LayerCount: 2
Fore
SplineSet
532 -354 m 2,0,-1
 100 -354 l 2,1,2
 83 -354 83 -354 83 -341 c 0,3,4
 83 -337 83 -337 84 -332 c 2,5,-1
 612 1511 l 2,6,7
 616 1530 616 1530 639 1530 c 2,8,-1
 1059 1530 l 2,9,10
 1066 1530 1066 1530 1066 1511 c 128,-1,11
 1066 1492 1066 1492 1053 1472 c 128,-1,12
 1040 1452 1040 1452 1032 1452 c 2,13,-1
 756 1452 l 2,14,15
 733 1452 733 1452 727 1430 c 2,16,-1
 248 -248 l 2,17,18
 240 -276 240 -276 254 -276 c 2,19,-1
 555 -276 l 2,20,21
 563 -276 563 -276 563 -298 c 128,-1,22
 563 -320 563 -320 551 -337 c 128,-1,23
 539 -354 539 -354 532 -354 c 2,0,-1
EndSplineSet
Substitution2: "'ss16' Upright brackets-1" bracketleft.alt
Comment: "last+AD0A-23" 
Colour: ffffff
EndChar

StartChar: backslash
Encoding: 92 92 60
Width: 717
GlyphClass: 2
Flags: W
LayerCount: 2
Fore
SplineSet
713 25 m 2,0,1
 714 23 714 23 714 19 c 0,2,3
 714 -3 714 -3 666 -17 c 0,4,5
 649 -22 649 -22 632.5 -22 c 128,-1,6
 616 -22 616 -22 612 -12 c 2,7,-1
 4 1432 l 2,8,9
 2 1438 2 1438 2 1441 c 0,10,11
 2 1467 2 1467 44 1483 c 0,12,13
 62 1490 62 1490 81 1490 c 128,-1,14
 100 1490 100 1490 106 1475 c 2,15,-1
 713 25 l 2,0,1
EndSplineSet
Comment: "last+AD0A-15" 
Colour: ffffff
EndChar

StartChar: bracketright
Encoding: 93 93 61
Width: 725
GlyphClass: 2
Flags: W
LayerCount: 2
Fore
SplineSet
229 -332 m 2,0,1
 223 -354 223 -354 201 -354 c 2,2,-1
 -231 -354 l 2,3,4
 -240 -354 -240 -354 -240 -333.5 c 128,-1,5
 -240 -313 -240 -313 -232 -294.5 c 128,-1,6
 -224 -276 -224 -276 -213 -276 c 2,7,-1
 92 -276 l 2,8,9
 106 -276 106 -276 113 -252 c 2,10,-1
 596 1430 l 2,11,12
 602 1452 602 1452 584 1452 c 2,13,-1
 305 1452 l 2,14,15
 296 1452 296 1452 296 1475.5 c 128,-1,16
 296 1499 296 1499 307 1514.5 c 128,-1,17
 318 1530 318 1530 324 1530 c 2,18,-1
 743 1530 l 2,19,20
 759 1530 759 1530 759 1518 c 0,21,22
 759 1515 759 1515 758 1511 c 2,23,-1
 229 -332 l 2,0,1
EndSplineSet
Substitution2: "'ss16' Upright brackets-1" bracketright.alt
Comment: "last+AD0A-23" 
Colour: ffffff
EndChar

StartChar: asciicircum
Encoding: 94 94 62
Width: 1227
GlyphClass: 2
Flags: W
LayerCount: 2
Fore
SplineSet
1091 535 m 1,0,-1
 955 535 l 1,1,-1
 653 1216 l 1,2,-1
 351 535 l 1,3,-1
 213 535 l 1,4,-1
 600 1372 l 1,5,-1
 706 1372 l 1,6,-1
 1091 535 l 1,0,-1
EndSplineSet
Comment: "last+AD0A-6" 
Colour: ffffff
EndChar

StartChar: underscore
Encoding: 95 95 63
Width: 1024
GlyphClass: 2
Flags: W
LayerCount: 2
Fore
SplineSet
1024 -256 m 1,0,-1
 0 -256 l 1,1,-1
 0 -154 l 1,2,-1
 1024 -154 l 1,3,-1
 1024 -256 l 1,0,-1
EndSplineSet
Comment: "last+AD0A-3" 
Colour: ffffff
EndChar

StartChar: grave
Encoding: 96 96 64
Width: 569
GlyphClass: 2
Flags: W
LayerCount: 2
Fore
SplineSet
461 986 m 2,0,1
 466 974 466 974 466 966 c 0,2,3
 466 929 466 929 430 929 c 0,4,5
 406 929 406 929 389 956 c 2,6,-1
 203 1257 l 2,7,8
 201 1259 201 1259 201 1265 c 0,9,10
 201 1285 201 1285 234 1306 c 128,-1,11
 267 1327 267 1327 288 1327 c 128,-1,12
 309 1327 309 1327 316 1311 c 2,13,-1
 461 986 l 2,0,1
EndSplineSet
Comment: "last+AD0A-13" 
Colour: ffffff
EndChar

StartChar: a
Encoding: 97 97 65
Width: 918
GlyphClass: 2
Flags: W
AnchorPoint: "below" 282 -75 basechar 0
AnchorPoint: "above" 620 900 basechar 0
LayerCount: 2
Fore
SplineSet
690 203 m 2,0,1
 680 168 680 168 680 144 c 0,2,3
 680 103 680 103 712 103 c 0,4,5
 745 103 745 103 842 197 c 0,6,7
 851 206 851 206 870 186 c 0,8,9
 883 172 883 172 884 164 c 0,10,11
 884 160 884 160 881 156 c 0,12,13
 815 75 815 75 735.5 24 c 128,-1,14
 656 -27 656 -27 596 -27 c 0,15,16
 535 -27 535 -27 535 52 c 0,17,18
 535 108 535 108 559 172 c 2,19,-1
 602 287 l 1,20,-1
 590 291 l 1,21,22
 352 -27 352 -27 186 -27 c 0,23,24
 126 -27 126 -27 94.5 21 c 128,-1,25
 63 69 63 69 63 141 c 0,26,27
 63 352 63 352 236.5 598 c 128,-1,28
 410 844 410 844 604 844 c 0,29,30
 676 844 676 844 737 788 c 1,31,-1
 761 858 l 2,32,33
 769 882 769 882 824.5 882 c 128,-1,34
 880 882 880 882 880 863 c 0,35,36
 880 861 880 861 879 858 c 2,37,-1
 690 203 l 2,0,1
664 543 m 2,38,-1
 709 694 l 1,39,40
 666 778 666 778 578 778 c 0,41,42
 442 778 442 778 326.5 558 c 128,-1,43
 211 338 211 338 211 176 c 0,44,45
 211 82 211 82 270 82 c 0,46,47
 325 82 325 82 425 182.5 c 128,-1,48
 525 283 525 283 581.5 369 c 128,-1,49
 638 455 638 455 664 543 c 2,38,-1
EndSplineSet
Substitution2: "'ss19' Latin to Gothic transliteration subtable" u10330
Substitution2: "'sups' superscripts subtable" uni1D43
Comment: "last+AD0A-50+AAoA-curve width: 148" 
Colour: ffffff
EndChar

StartChar: b
Encoding: 98 98 66
Width: 852
GlyphClass: 2
Flags: W
AnchorPoint: "above" 630 1545 basechar 0
LayerCount: 2
Back
SplineSet
850 659 m 0,0,1
 850 406 850 406 670 189.5 c 128,-1,2
 490 -27 490 -27 242 -27 c 0,3,4
 97 -27 97 -27 97 133 c 0,5,6
 97 172 97 172 109 225 c 2,7,-1
 336 1200 l 2,8,9
 352 1267 352 1267 352 1299 c 0,10,11
 352 1378 352 1378 274 1378 c 0,12,13
 259 1378 259 1378 259 1404 c 128,-1,14
 259 1430 259 1430 274 1430 c 0,15,16
 329 1430 329 1430 411 1457.5 c 128,-1,17
 493 1485 493 1485 506 1485 c 0,18,19
 519.857 1485 519.857 1485 518 1472 c 2,20,-1
 516 1458 l 1,21,-1
 317 598 l 1,22,-1
 338 592 l 1,23,24
 536 852 536 852 684 852 c 0,25,26
 850 852 850 852 850 659 c 0,0,1
707 602 m 0,27,28
 707 754 707 754 623 754 c 0,29,30
 526.5 754 526.5 754 409.5 594 c 128,-1,31
 292.5 434 292.5 434 259.75 331.5 c 128,-1,32
 227 229 227 229 227 163 c 0,33,34
 227 45 227 45 326 45 c 0,35,36
 468 45 468 45 587.5 242.5 c 128,-1,37
 707 440 707 440 707 602 c 0,27,28
EndSplineSet
Fore
SplineSet
850 659 m 0,0,1
 850 406 850 406 670 189.5 c 128,-1,2
 490 -27 490 -27 242 -27 c 0,3,4
 97 -27 97 -27 97 133 c 0,5,6
 97 172 97 172 109 225 c 2,7,-1
 336 1200 l 2,8,9
 352 1267 352 1267 352 1299 c 0,10,11
 352 1378 352 1378 274 1378 c 0,12,13
 259 1378 259 1378 259 1404 c 128,-1,14
 259 1430 259 1430 274 1430 c 0,15,16
 329 1430 329 1430 411 1457.5 c 128,-1,17
 493 1485 493 1485 506 1485 c 0,18,19
 518 1484 518 1484 518 1472 c 0,20,21
 518 1465 518 1465 516 1458 c 2,22,-1
 317 598 l 1,23,-1
 338 592 l 1,24,25
 536 852 536 852 684 852 c 0,26,27
 850 852 850 852 850 659 c 0,0,1
707 602 m 0,28,29
 707 754 707 754 623 754 c 0,30,31
 527 754 527 754 409.5 594 c 128,-1,32
 292 434 292 434 259.5 331.5 c 128,-1,33
 227 229 227 229 227 163 c 0,34,35
 227 45 227 45 326 45 c 0,36,37
 468 45 468 45 587.5 242.5 c 128,-1,38
 707 440 707 440 707 602 c 0,28,29
EndSplineSet
Substitution2: "'ss19' Latin to Gothic transliteration subtable" u10331
Substitution2: "'sups' superscripts subtable" uni1D47
Comment: "last+AD0A-38+AAoA-curve width+AD0A-143+AAoA-left sidebearing+AD0A-97" 
Colour: ffffff
EndChar

StartChar: c
Encoding: 99 99 67
Width: 674
GlyphClass: 2
Flags: W
AnchorPoint: "below" 288 -75 basechar 0
AnchorPoint: "above" 550 900 basechar 0
LayerCount: 2
Fore
SplineSet
584 113 m 0,0,1
 444 -27 444 -27 301 -27 c 0,2,3
 209 -27 209 -27 153.5 52.5 c 128,-1,4
 98 132 98 132 98 256 c 0,5,6
 98 459 98 459 241.5 655.5 c 128,-1,7
 385 852 385 852 557 852 c 0,8,9
 619 852 619 852 670 822.5 c 128,-1,10
 721 793 721 793 721 754 c 0,11,12
 721 722 721 722 696 699.5 c 128,-1,13
 671 677 671 677 645 677 c 0,14,15
 618 677 618 677 608 696 c 1,16,17
 599 753 599 753 593 762 c 0,18,19
 573 788 573 788 504 788 c 0,20,21
 414 788 414 788 324 626.5 c 128,-1,22
 234 465 234 465 233 324 c 0,23,24
 233 203 233 203 270.5 133 c 128,-1,25
 308 63 308 63 369 63 c 0,26,27
 432 63 432 63 470 84.5 c 128,-1,28
 508 106 508 106 551 145 c 0,29,30
 556 149 556 149 569 145.5 c 128,-1,31
 582 142 582 142 585.5 130.5 c 128,-1,32
 589 119 589 119 584 113 c 0,0,1
EndSplineSet
Substitution2: "'swsh' Swash in Latin lookup 14" uniF198
Substitution2: "'sups' superscripts subtable" uni1D9C
Comment: "last+AD0A-32+AAoA-curve width: 135" 
Colour: ffffff
EndChar

StartChar: d
Encoding: 100 100 68
Width: 958
GlyphClass: 2
Flags: W
AnchorPoint: "above" 736 1545 basechar 0
LayerCount: 2
Back
SplineSet
738 273 m 2,18,-1
 981 1335 l 2,19,20
EndSplineSet
Fore
SplineSet
721 209 m 2,0,1
 714 180 714 180 714 162 c 0,2,3
 714 113 714 113 739 113 c 0,4,5
 790 113 790 113 872 207 c 24,6,7
 875 210 875 210 888 205 c 128,-1,8
 901 200 901 200 909 187 c 128,-1,9
 917 174 917 174 913 170 c 0,10,11
 739 -27 739 -27 637 -27 c 0,12,13
 577 -27 577 -27 577 80 c 0,14,15
 577 106 577 106 584 135 c 2,16,-1
 624 313 l 1,17,-1
 610 324 l 1,18,19
 508 175 508 175 396.5 74 c 128,-1,20
 285 -27 285 -27 186 -27 c 0,21,22
 126 -27 126 -27 94.5 24.5 c 128,-1,23
 63 76 63 76 63 145 c 0,24,25
 63 358 63 358 236 605 c 128,-1,26
 409 852 409 852 604 852 c 0,27,28
 684 852 684 852 735 789 c 1,29,-1
 827 1200 l 2,30,31
 843 1267 843 1267 843 1296 c 0,32,33
 843 1378 843 1378 766 1378 c 0,34,35
 751 1378 751 1378 751 1404 c 128,-1,36
 751 1430 751 1430 766 1430 c 0,37,38
 836 1430 836 1430 914 1457.5 c 128,-1,39
 992 1485 992 1485 997 1485 c 0,40,41
 1010 1485 1010 1485 1010 1472 c 0,42,43
 1010 1469 1010 1469 1008 1460 c 2,44,-1
 721 209 l 2,0,1
710 688 m 1,45,46
 666 786 666 786 578 786 c 0,47,48
 442 786 442 786 326.5 563 c 128,-1,49
 211 340 211 340 211 180 c 0,50,51
 211 82 211 82 270 82 c 0,52,53
 340 82 340 82 469 226.5 c 128,-1,54
 598 371 598 371 668 504 c 2,55,-1
 710 688 l 1,45,46
EndSplineSet
Substitution2: "'ss19' Latin to Gothic transliteration subtable" u10333
Substitution2: "'sups' superscripts subtable" uni1D48
Substitution2: "'swsh' Swash in Latin lookup 14" uniF193
Substitution2: "'ss02' Style Set 2 in Latin lookup 10" uniA77A
Comment: "last+AD0A-54+AAoA-curve width: 148" 
Colour: ffffff
EndChar

StartChar: e
Encoding: 101 101 69
Width: 696
GlyphClass: 2
Flags: W
AnchorPoint: "below" 282 -75 basechar 0
AnchorPoint: "above" 561 900 basechar 0
LayerCount: 2
Fore
SplineSet
723 737 m 0,0,1
 723 602 723 602 559.5 493 c 128,-1,2
 396 384 396 384 242 356 c 1,3,4
 227 281 227 281 227 238 c 0,5,6
 227 72 227 72 338 72 c 0,7,8
 378 72 378 72 422 93 c 128,-1,9
 466 114 466 114 563 197 c 0,10,11
 570 203 570 203 581.5 197.5 c 128,-1,12
 593 192 593 192 594.5 180.5 c 128,-1,13
 596 169 596 169 592 164 c 0,14,15
 436 -27 436 -27 299 -27 c 0,16,17
 96 -27 96 -27 96 215 c 0,18,19
 96 406 96 406 256 629 c 128,-1,20
 416 852 416 852 592 852 c 0,21,22
 723 852 723 852 723 737 c 0,0,1
580 711 m 0,23,24
 580 772 580 772 526 772 c 0,25,26
 452 772 452 772 379.5 669.5 c 128,-1,27
 307 567 307 567 260 420 c 1,28,29
 383 446 383 446 481.5 524 c 128,-1,30
 580 602 580 602 580 711 c 0,23,24
EndSplineSet
Substitution2: "'ss19' Latin to Gothic transliteration subtable" u10334
Substitution2: "'sups' superscripts subtable" uni1D49
Comment: "last+AD0A-30" 
Colour: ffffff
EndChar

StartChar: f
Encoding: 102 102 70
Width: 479
GlyphClass: 2
Flags: W
AnchorPoint: "above" 584 1545 basechar 0
LayerCount: 2
Back
SplineSet
121 135 m 2,18,-1
 364 1197 l 2,19,20
EndSplineSet
Fore
SplineSet
201 -111 m 2,0,1
 171 -267 171 -267 121.5 -365.5 c 128,-1,2
 72 -464 72 -464 2 -507.5 c 128,-1,3
 -68 -551 -68 -551 -148 -551 c 0,4,5
 -220 -551 -220 -551 -262.5 -515 c 128,-1,6
 -305 -479 -305 -479 -305 -446 c 0,7,8
 -305 -410 -305 -410 -284 -388.5 c 128,-1,9
 -263 -367 -263 -367 -242 -367 c 0,10,11
 -182 -367 -182 -367 -155 -417 c 128,-1,12
 -128 -467 -128 -467 -82 -467 c 0,13,14
 -41 -467 -41 -467 -5 -417.5 c 128,-1,15
 31 -368 31 -368 45 -297 c 2,16,-1
 249 763 l 1,17,-1
 67 763 l 2,18,19
 60 763 60 763 60 775 c 0,20,21
 60 802 60 802 78 829 c 0,22,23
 86 842 86 842 94 842 c 2,24,-1
 264 842 l 1,25,26
 337 1215 337 1215 447.5 1339.5 c 128,-1,27
 558 1464 558 1464 743 1464 c 0,28,29
 831 1464 831 1464 881.5 1416.5 c 128,-1,30
 932 1369 932 1369 932 1298 c 0,31,32
 932 1202 932 1202 866 1202 c 0,33,34
 832 1202 832 1202 811.5 1224.5 c 128,-1,35
 791 1247 791 1247 791 1274 c 0,36,37
 791 1395 791 1395 686 1395 c 0,38,39
 584 1395 584 1395 516 1283.5 c 128,-1,40
 448 1172 448 1172 386 842 c 1,41,-1
 668 842 l 2,42,43
 675 842 675 842 675 830 c 0,44,45
 675 805 675 805 656 777 c 0,46,47
 647 763 647 763 639 763 c 2,48,-1
 370 763 l 1,49,-1
 201 -111 l 2,0,1
EndSplineSet
Substitution2: "'ss19' Latin to Gothic transliteration subtable" u10346
AlternateSubs2: "'salt' Stylistic Alternatives lookup 24-1" f.alt
Substitution2: "'sups' superscripts subtable" uni1DA0
Substitution2: "Single Substitution untagged lookup-1" f.alt
Substitution2: "'swsh' Swash in Latin lookup 14" uniF194
Substitution2: "'ss02' Style Set 2 in Latin lookup 10" uniA77C
Comment: "last+AD0A-49" 
Colour: ffffff
EndChar

StartChar: g
Encoding: 103 103 71
Width: 766
GlyphClass: 2
Flags: W
AnchorPoint: "above" 546 900 basechar 0
LayerCount: 2
Fore
SplineSet
890 786 m 0,0,1
 890 727 890 727 867 727 c 0,2,3
 778 727 778 727 673 756 c 1,4,5
 701 709 701 709 701 630.5 c 128,-1,6
 701 552 701 552 658.5 464 c 128,-1,7
 616 376 616 376 541.5 306 c 128,-1,8
 467 236 467 236 348 199 c 0,9,10
 322 191 322 191 310 185 c 0,11,12
 248 153 248 153 248 104.5 c 128,-1,13
 248 56 248 56 371 -10 c 0,14,15
 410 -31 410 -31 565.5 -118 c 128,-1,16
 721 -205 721 -205 721 -319.5 c 128,-1,17
 721 -434 721 -434 564.5 -496.5 c 128,-1,18
 408 -559 408 -559 224 -559 c 0,19,20
 77 -559 77 -559 -20 -501 c 128,-1,21
 -117 -443 -117 -443 -117 -351.5 c 128,-1,22
 -117 -260 -117 -260 -16.5 -185.5 c 128,-1,23
 84 -111 84 -111 225 -66 c 1,24,25
 133 -22 133 -22 133 26 c 0,26,27
 133 84 133 84 239 187 c 1,28,29
 76 229 76 229 76 401.5 c 128,-1,30
 76 574 76 574 214 713 c 128,-1,31
 352 852 352 852 530 852 c 0,32,33
 554 852 554 852 592 834 c 128,-1,34
 630 816 630 816 649 814 c 0,35,36
 706 808 706 808 752 808 c 128,-1,37
 798 808 798 808 873 813 c 0,38,39
 890 814 890 814 890 786 c 0,0,1
587 720 m 0,40,41
 587 791 587 791 508 791 c 0,42,43
 401 791 401 791 297 630 c 128,-1,44
 193 469 193 469 193 321 c 0,45,46
 193 248 193 248 272 248 c 0,47,48
 386 248 386 248 486.5 411.5 c 128,-1,49
 587 575 587 575 587 720 c 0,40,41
585 -352 m 256,50,51
 585 -289 585 -289 464 -202 c 128,-1,52
 343 -115 343 -115 271 -115 c 128,-1,53
 199 -115 199 -115 112.5 -182.5 c 128,-1,54
 26 -250 26 -250 26 -327.5 c 128,-1,55
 26 -405 26 -405 123 -447.5 c 128,-1,56
 220 -490 220 -490 316.5 -490 c 128,-1,57
 413 -490 413 -490 499 -452.5 c 128,-1,58
 585 -415 585 -415 585 -352 c 256,50,51
EndSplineSet
Substitution2: "'ss19' Latin to Gothic transliteration subtable" u10332
Substitution2: "'sups' superscripts subtable" uni1D4D
Substitution2: "'swsh' Swash in Latin lookup 14" uniF196
Substitution2: "'ss02' Style Set 2 in Latin lookup 10" uni1D79
Comment: "last+AD0A-58" 
Colour: ffffff
EndChar

StartChar: h
Encoding: 104 104 72
Width: 879
GlyphClass: 2
Flags: W
AnchorPoint: "above" 632 1545 basechar 0
LayerCount: 2
Back
SplineSet
111 153 m 2,18,-1
 354 1215 l 2,19,20
EndSplineSet
Fore
SplineSet
870 618 m 0,0,1
 870 436 870 436 763 204.5 c 128,-1,2
 656 -27 656 -27 496 -27 c 0,3,4
 448 -27 448 -27 414.5 2.5 c 128,-1,5
 381 32 381 32 381 61 c 0,6,7
 381 115 381 115 400 138.5 c 128,-1,8
 419 162 419 162 444 162 c 0,9,10
 507 162 507 162 518 110.5 c 128,-1,11
 529 59 529 59 562 59 c 128,-1,12
 595 59 595 59 633 129.5 c 128,-1,13
 671 200 671 200 702 331.5 c 128,-1,14
 733 463 733 463 733 569 c 0,15,16
 733 743 733 743 657 743 c 0,17,18
 540 743 540 743 344 461 c 0,19,20
 294 389 294 389 252 221 c 2,21,-1
 197 0 l 2,22,23
 190 -27 190 -27 135 -27 c 0,24,25
 76 -27 76 -27 76 -4 c 0,26,-1
 76 0 l 9,27,-1
 355 1201 l 2,28,29
 371 1270 371 1270 371 1304 c 0,30,31
 371 1377 371 1377 294 1377 c 0,32,33
 279 1377 279 1377 279 1403 c 128,-1,34
 279 1429 279 1429 294 1429 c 0,35,36
 370 1429 370 1429 445.5 1456.5 c 128,-1,37
 521 1484 521 1484 525 1484 c 0,38,39
 542 1484 542 1484 538 1466 c 2,40,-1
 326 545 l 1,41,-1
 336 535 l 1,42,43
 524 852 524 852 707 852 c 0,44,45
 870 852 870 852 870 618 c 0,0,1
EndSplineSet
Substitution2: "'ss19' Latin to Gothic transliteration subtable" u10337
Substitution2: "'sups' superscripts subtable" uni02B0
Comment: "last+AD0A-45+AAoA-left sidebearing+AD0A-76" 
Colour: ffffff
EndChar

StartChar: i
Encoding: 105 105 73
Width: 528
GlyphClass: 2
Flags: W
AnchorPoint: "above" 452 1305 basechar 0
LayerCount: 2
Fore
SplineSet
293 203 m 2,0,1
 282 164 282 164 282 142 c 0,2,3
 282 102 282 102 310.5 102 c 128,-1,4
 339 102 339 102 442 195 c 0,5,6
 451 203 451 203 469 186 c 0,7,8
 483 173 483 173 483 164 c 0,9,10
 483 161 483 161 481 158 c 0,11,12
 461 123 461 123 363.5 48 c 128,-1,13
 266 -27 266 -27 195 -27 c 0,14,15
 141 -27 141 -27 141 60 c 0,16,17
 141 98 141 98 152 137 c 2,18,-1
 289 625 l 2,19,20
 294 643 294 643 294 661 c 0,21,22
 294 711 294 711 269.5 711 c 128,-1,23
 245 711 245 711 152 623 c 0,24,25
 143 614 143 614 124 634 c 0,26,27
 111 648 111 648 111 657 c 0,28,29
 111 660 111 660 113 663 c 0,30,31
 150 722 150 722 238.5 787 c 128,-1,32
 327 852 327 852 385 852 c 0,33,34
 441 852 441 852 441 766 c 0,35,36
 441 729 441 729 430 690 c 2,37,-1
 293 203 l 2,0,1
540 1135 m 0,38,39
 540 1077 540 1077 506.5 1043.5 c 128,-1,40
 473 1010 473 1010 428 1010 c 0,41,42
 341 1010 341 1010 341 1100 c 0,43,44
 341 1152 341 1152 376 1188.5 c 128,-1,45
 411 1225 411 1225 455 1225 c 0,46,47
 540 1224 540 1224 540 1135 c 0,38,39
EndSplineSet
Substitution2: "'ss19' Latin to Gothic transliteration subtable" u10339
Substitution2: "'sups' superscripts subtable" uni2071
Substitution2: "Single Substitution untagged lookup-1" dotlessi
Comment: "last+AD0A-47+AAoA-left sidebearing+AD0A-141" 
Colour: ffffff
EndChar

StartChar: j
Encoding: 106 106 74
Width: 420
GlyphClass: 2
Flags: W
AnchorPoint: "above" 456 1305 basechar 0
LayerCount: 2
Fore
SplineSet
285 139 m 2,0,1
 259 27 259 27 207 -143.5 c 128,-1,2
 155 -314 155 -314 45.5 -433.5 c 128,-1,3
 -64 -553 -64 -553 -231 -553 c 0,4,5
 -263 -553 -263 -553 -284 -527.5 c 128,-1,6
 -305 -502 -305 -502 -305 -477 c 0,7,8
 -305 -448 -305 -448 -278.5 -433 c 128,-1,9
 -252 -418 -252 -418 -223 -418 c 0,10,11
 -192 -418 -192 -418 -164 -442.5 c 128,-1,12
 -136 -467 -136 -467 -113 -467 c 0,13,14
 -44 -467 -44 -467 5.5 -401 c 128,-1,15
 55 -335 55 -335 72 -260 c 2,16,-1
 274 623 l 2,17,18
 279 645 279 645 279 659 c 0,19,20
 279 702 279 702 247.5 702 c 128,-1,21
 216 702 216 702 143 610 c 0,22,23
 131 596 131 596 107 630 c 0,24,25
 102 637 102 637 103 643 c 0,26,27
 103 646 103 646 104 649 c 0,28,29
 256 852 256 852 358 852 c 0,30,31
 419 852 419 852 419 755 c 0,32,33
 419 725 419 725 412 694 c 2,34,-1
 285 139 l 2,0,1
540 1135 m 0,35,36
 540 1077 540 1077 506.5 1043.5 c 128,-1,37
 473 1010 473 1010 428 1010 c 0,38,39
 341 1010 341 1010 341 1100 c 0,40,41
 341 1152 341 1152 376 1188.5 c 128,-1,42
 411 1225 411 1225 455 1225 c 0,43,44
 540 1224 540 1224 540 1135 c 0,35,36
EndSplineSet
Substitution2: "'ss19' Latin to Gothic transliteration subtable" u1033E
Substitution2: "'sups' superscripts subtable" uni02B2
Substitution2: "Narrow j for Lithuanian-1" j.alt
Substitution2: "Single Substitution untagged lookup-1" uni0237
Comment: "last+AD0A-44" 
Colour: ffffff
EndChar

StartChar: k
Encoding: 107 107 75
Width: 893
GlyphClass: 2
Flags: W
AnchorPoint: "above" 668 1545 basechar 0
LayerCount: 2
Back
SplineSet
121 135 m 2,18,-1
 364 1197 l 2,19,20
EndSplineSet
Fore
SplineSet
810 709 m 0,0,1
 810 628 810 628 712.5 535 c 128,-1,2
 615 442 615 442 485 377 c 0,3,4
 477 373 477 373 477 367 c 0,5,6
 477 359 477 359 485 348 c 2,7,-1
 633 141 l 2,8,9
 693 57 693 57 748 57 c 0,10,11
 790 57 790 57 842 106 c 0,12,13
 845 109 845 109 850 109 c 0,14,15
 866 109 866 109 873.5 101 c 128,-1,16
 881 93 881 93 881 79 c 0,17,18
 881 76 881 76 879 72 c 0,19,20
 796 -27 796 -27 717 -27 c 0,21,22
 641 -27 641 -27 600.5 -2.5 c 128,-1,23
 560 22 560 22 516 94 c 2,24,-1
 379 315 l 2,25,26
 364 340 364 340 315 340 c 0,27,28
 283 340 283 340 274 301 c 2,29,-1
 203 -4 l 2,30,31
 198 -27 198 -27 137.5 -27 c 128,-1,32
 77 -27 77 -27 82 -4 c 2,33,-1
 359 1197 l 2,34,35
 375 1266 375 1266 375 1295 c 0,36,37
 375 1377 375 1377 298 1377 c 0,38,39
 283 1377 283 1377 283 1403 c 128,-1,40
 283 1429 283 1429 298 1429 c 0,41,42
 368 1429 368 1429 447 1456.5 c 128,-1,43
 526 1484 526 1484 531 1484 c 0,44,45
 548 1484 548 1484 545 1471 c 2,46,-1
 352 639 l 1,47,-1
 365 633 l 1,48,49
 433 733 433 733 521.5 792.5 c 128,-1,50
 610 852 610 852 682 852 c 0,51,52
 750 852 750 852 780 807.5 c 128,-1,53
 810 763 810 763 810 709 c 0,0,1
677 672 m 0,54,55
 677 752 677 752 610 752 c 0,56,57
 499 752 499 752 358 575 c 0,58,59
 325 533 325 533 317 500 c 2,60,-1
 297 412 l 2,61,62
 295 404 295 404 295 398 c 0,63,64
 295 387 295 387 317 387 c 0,65,66
 440 387 440 387 558.5 483 c 128,-1,67
 677 579 677 579 677 672 c 0,54,55
EndSplineSet
Substitution2: "'ss19' Latin to Gothic transliteration subtable" u1033A
Substitution2: "'sups' superscripts subtable" uni1D4F
Substitution2: "'swsh' Swash in Latin lookup 14" uniF195
Comment: "last+AD0A-67+AAoA-left sidebearing+AD0A-82" 
Colour: ffffff
EndChar

StartChar: l
Encoding: 108 108 76
Width: 496
GlyphClass: 2
Flags: W
AnchorPoint: "above" 460 1545 basechar 0
LayerCount: 2
Fore
SplineSet
258 209 m 2,0,1
 251 178 251 178 251 162 c 0,2,3
 251 113 251 113 276 113 c 0,4,5
 328 113 328 113 410 207 c 0,6,7
 412 210 412 210 416 210 c 0,8,9
 427 210 427 210 440 197 c 128,-1,10
 453 184 453 184 453 176 c 0,11,12
 453 173 453 173 451 170 c 0,13,14
 281 -27 281 -27 174 -27 c 0,15,16
 114 -27 114 -27 114 80 c 0,17,18
 114 104 114 104 121 135 c 2,19,-1
 364 1197 l 2,20,21
 379 1263 379 1263 379 1295 c 0,22,23
 379 1377 379 1377 302 1377 c 0,24,25
 287 1377 287 1377 287 1403 c 128,-1,26
 287 1429 287 1429 302 1429 c 0,27,28
 375 1429 375 1429 451.5 1456.5 c 128,-1,29
 528 1484 528 1484 534 1484 c 0,30,31
 550 1484 550 1484 546 1470 c 2,32,-1
 258 209 l 2,0,1
EndSplineSet
Substitution2: "'ss19' Latin to Gothic transliteration subtable" u1033B
Substitution2: "'sups' superscripts subtable" uni02E1
Comment: "last+AD0A-32+AAoA-width of stroke: 117+AAoA-left sidebearing: 114" 
Colour: ffffff
EndChar

StartChar: m
Encoding: 109 109 77
Width: 1507
GlyphClass: 2
Flags: W
AnchorPoint: "above" 840 900 basechar 0
LayerCount: 2
Fore
SplineSet
1276 203 m 2,0,1
 1266 168 1266 168 1266 147 c 0,2,3
 1266 102 1266 102 1297.5 102 c 128,-1,4
 1329 102 1329 102 1421 195 c 0,5,6
 1425 199 1425 199 1430 199 c 0,7,8
 1441 199 1441 199 1452.5 186.5 c 128,-1,9
 1464 174 1464 174 1464 162 c 0,10,11
 1464 158 1464 158 1462 156 c 0,12,13
 1303 -27 1303 -27 1178 -27 c 0,14,15
 1124 -27 1124 -27 1124 61 c 0,16,17
 1124 98 1124 98 1135 137 c 2,18,-1
 1260 582 l 2,19,20
 1292 696 1292 696 1292 729 c 0,21,22
 1292 772 1292 772 1260 772 c 0,23,24
 1209 772 1209 772 1140.5 701 c 128,-1,25
 1072 630 1072 630 955.5 454.5 c 128,-1,26
 839 279 839 279 725 2 c 0,27,28
 713 -27 713 -27 654 -27 c 128,-1,29
 595 -27 595 -27 604 6 c 2,30,-1
 754 532 l 2,31,32
 795 676 795 676 795 725 c 256,33,34
 795 772 795 772 754 772 c 0,35,36
 709 772 709 772 617 676.5 c 128,-1,37
 525 581 525 581 419 397 c 128,-1,38
 313 213 313 213 233 2 c 0,39,40
 222 -27 222 -27 163 -27 c 128,-1,41
 104 -27 104 -27 113 6 c 2,42,-1
 289 625 l 2,43,44
 295 646 295 646 295 664 c 0,45,46
 295 711 295 711 266.5 711 c 128,-1,47
 238 711 238 711 156 625 c 0,48,49
 153 622 153 622 148 622 c 0,50,51
 134 622 134 622 123.5 635 c 128,-1,52
 113 648 113 648 113 656 c 0,53,54
 113 660 113 660 115 662 c 0,55,56
 269 852 269 852 383 852 c 0,57,58
 442 852 442 852 442 762 c 0,59,60
 442 724 442 724 432 690 c 2,61,-1
 342 383 l 1,62,-1
 350 379 l 1,63,64
 438 578 438 578 567.5 715 c 128,-1,65
 697 852 697 852 805 852 c 0,66,67
 915 852 915 852 915 723 c 0,68,69
 915 666 915 666 895 596 c 2,70,-1
 834 383 l 1,71,-1
 846 379 l 1,72,73
 1092 852 1092 852 1300 852 c 0,74,75
 1407 852 1407 852 1407 727 c 0,76,77
 1407 661 1407 661 1380 567 c 2,78,-1
 1276 203 l 2,0,1
EndSplineSet
Substitution2: "'ss19' Latin to Gothic transliteration subtable" u1033C
Substitution2: "'sups' superscripts subtable" uni1D50
Comment: "last+AD0A-78" 
Colour: ffffff
EndChar

StartChar: n
Encoding: 110 110 78
Width: 1008
GlyphClass: 2
Flags: W
AnchorPoint: "above" 637 900 basechar 0
LayerCount: 2
Back
SplineSet
774 203 m 2,0,1
 764 169 764 169 764 141 c 0,2,3
 764 102 764 102 798 102 c 128,-1,4
 832 102 832 102 922 195 c 0,5,6
 925 198 925 198 929 198 c 0,7,8
 941.145 198 941.145 198 953.073 184.931 c 128,-1,9
 965 171.862 965 171.862 965 164.931 c 256,10,11
 965 158 965 158 963 156 c 0,12,13
 802 -27 802 -27 678 -27 c 0,14,15
 622 -27 622 -27 622 57 c 0,16,17
 622 96 622 96 633 137 c 2,18,-1
 758 582 l 2,19,20
 788 688 788 688 788 727 c 0,21,22
 788 772 788 772 758 772 c 0,23,24
 672.5 772 672.5 772 513.841 541.181 c 128,-1,25
 355.181 310.362 355.181 310.362 233 2 c 0,26,27
 222 -27 222 -27 166.96 -27 c 128,-1,28
 111.92 -27 111.92 -27 111.92 -1.4448 c 0,29,30
 111.92 2.04 111.92 2.04 113 6 c 2,31,-1
 289 625 l 2,32,33
 295 646 295 646 295 664 c 0,34,35
 295 711 295 711 263 711 c 128,-1,36
 231 711 231 711 156 625 c 0,37,38
 153 622 153 622 149 622 c 0,39,40
 137.039 622 137.039 622 125.019 634.371 c 128,-1,41
 113 646.743 113 646.743 113 656 c 0,42,43
 113 660 113 660 115 662 c 0,44,45
 269 852 269 852 383 852 c 0,46,47
 440 852 440 852 440 762 c 0,48,49
 440 720 440 720 411 624 c 2,50,-1
 342 383 l 1,51,-1
 350 379 l 1,52,53
 596 852 596 852 799 852 c 0,54,55
 905 852 905 852 905 727 c 0,56,57
 905 666 905 666 877 567 c 2,58,-1
 774 203 l 2,0,1
EndSplineSet
Fore
SplineSet
774 203 m 2,0,1
 764 169 764 169 764 141 c 0,2,3
 764 102 764 102 798 102 c 128,-1,4
 832 102 832 102 922 195 c 0,5,6
 925 198 925 198 929 198 c 0,7,8
 941 198 941 198 953 185 c 128,-1,9
 965 172 965 172 965 165 c 256,10,11
 965 158 965 158 963 156 c 0,12,13
 802 -27 802 -27 678 -27 c 0,14,15
 622 -27 622 -27 622 57 c 0,16,17
 622 96 622 96 633 137 c 2,18,-1
 758 582 l 2,19,20
 788 688 788 688 788 727 c 0,21,22
 788 772 788 772 758 772 c 0,23,24
 672 772 672 772 513.5 541 c 128,-1,25
 355 310 355 310 233 2 c 0,26,27
 222 -27 222 -27 163 -27 c 128,-1,28
 104 -27 104 -27 113 6 c 2,29,-1
 289 625 l 2,30,31
 295 646 295 646 295 664 c 0,32,33
 295 711 295 711 263 711 c 128,-1,34
 231 711 231 711 156 625 c 0,35,36
 153 622 153 622 149 622 c 0,37,38
 137 622 137 622 125 634.5 c 128,-1,39
 113 647 113 647 113 656 c 0,40,41
 113 660 113 660 115 662 c 0,42,43
 269 852 269 852 383 852 c 0,44,45
 440 852 440 852 440 762 c 0,46,47
 440 720 440 720 411 624 c 2,48,-1
 342 383 l 1,49,-1
 350 379 l 1,50,51
 596 852 596 852 799 852 c 0,52,53
 905 852 905 852 905 727 c 0,54,55
 905 666 905 666 877 567 c 2,56,-1
 774 203 l 2,0,1
EndSplineSet
Substitution2: "'ss19' Latin to Gothic transliteration subtable" u1033D
Substitution2: "'swsh' Swash in Latin lookup 14" uniF19A
Substitution2: "'sups' superscripts subtable" uni207F
Comment: "last+AD0A-60" 
Colour: ffffff
EndChar

StartChar: o
Encoding: 111 111 79
Width: 838
GlyphClass: 2
Flags: MW
AnchorPoint: "below" 336 -75 basechar 0
AnchorPoint: "above" 600 900 basechar 0
LayerCount: 2
Fore
SplineSet
819 537 m 0,0,1
 819 324 819 324 682 148.5 c 128,-1,2
 545 -27 545 -27 338 -27 c 0,3,4
 215 -27 215 -27 155.5 64.5 c 128,-1,5
 96 156 96 156 96 305 c 0,6,7
 96 500 96 500 247 676 c 128,-1,8
 398 852 398 852 578 852 c 0,9,10
 698 852 698 852 758.5 767 c 128,-1,11
 819 682 819 682 819 537 c 0,0,1
707 588 m 0,12,13
 707 768 707 768 578 768 c 0,14,15
 461 768 461 768 337 577.5 c 128,-1,16
 213 387 213 387 213 231 c 0,17,18
 213 68 213 68 346 68 c 0,19,20
 455 68 455 68 581 254.5 c 128,-1,21
 707 441 707 441 707 588 c 0,12,13
EndSplineSet
Substitution2: "'ss19' Latin to Gothic transliteration subtable" u10349
Substitution2: "'sups' superscripts subtable" ordmasculine
Comment: "last+AD0A-21+AAoA-curve width2: 117/112" 
Colour: ffffff
EndChar

StartChar: p
Encoding: 112 112 80
Width: 877
GlyphClass: 2
Flags: W
AnchorPoint: "above" 592 1305 basechar 0
LayerCount: 2
Back
SplineSet
864 510 m 0,0,1
 864 307 864 307 697 140 c 128,-1,2
 530 -27 530 -27 332 -27 c 0,3,4
 296 -27 296 -27 248 -14 c 1,5,-1
 154 -420 l 2,6,7
 150 -437.277 150 -437.277 150 -448 c 0,8,9
 150 -504 150 -504 274 -504 c 0,10,11
 283 -504 283 -504 283 -517 c 0,12,13
 283 -559 283 -559 256 -559 c 1,14,15
 166 -551 166 -551 62.5 -551 c 128,-1,16
 -41 -551 -41 -551 -131 -559 c 1,17,18
 -140 -559 -140 -559 -140 -546 c 0,19,20
 -140 -504 -140 -504 -113 -504 c 0,21,22
 13.1571 -504 13.1571 -504 31 -428 c 2,23,-1
 297 705 l 1,24,25
 209.157 659.564 209.157 659.564 150 606 c 0,26,27
 147 603 147 603 141 603 c 0,28,29
 122 603 122 603 105 624 c 0,30,31
 98 633 98 633 98 640 c 0,32,33
 98 645 98 645 102 649 c 0,34,35
 207 745 207 745 317 795 c 1,36,-1
 360 1004 l 2,37,38
 365.047 1028.53 365.047 1028.53 407.023 1054.76 c 128,-1,39
 449 1081 449 1081 479 1081 c 0,40,41
 503.046 1081 503.046 1081 500 1068 c 2,42,-1
 444 829 l 1,43,44
 482 842 482 842 563 842 c 0,45,46
 695 842 695 842 779.5 752 c 128,-1,47
 864 662 864 662 864 510 c 0,0,1
725 477 m 0,48,49
 725 595 725 595 665 675.5 c 128,-1,50
 605 756 605 756 516 756 c 0,51,52
 469 756 469 756 424 743 c 1,53,-1
 276 117 l 2,54,55
 274 103 274 103 274 98 c 0,56,57
 274 39 274 39 350 39 c 0,58,59
 496 39 496 39 610.5 174 c 128,-1,60
 725 309 725 309 725 477 c 0,48,49
EndSplineSet
Fore
SplineSet
864 510 m 0,0,1
 864 307 864 307 697 140 c 128,-1,2
 530 -27 530 -27 332 -27 c 0,3,4
 296 -27 296 -27 248 -14 c 1,5,-1
 154 -420 l 2,6,7
 150 -437 150 -437 150 -448 c 0,8,9
 150 -504 150 -504 274 -504 c 0,10,11
 283 -504 283 -504 283 -516 c 256,12,13
 283 -528 283 -528 276 -543.5 c 128,-1,14
 269 -559 269 -559 256 -559 c 1,15,16
 166 -551 166 -551 62.5 -551 c 128,-1,17
 -41 -551 -41 -551 -131 -559 c 1,18,19
 -140 -559 -140 -559 -140 -546 c 256,20,21
 -140 -534 -140 -534 -133 -519 c 128,-1,22
 -126 -504 -126 -504 -113 -504 c 0,23,24
 13 -504 13 -504 31 -428 c 2,25,-1
 297 705 l 1,26,27
 209 660 209 660 150 606 c 0,28,29
 147 603 147 603 141 603 c 0,30,31
 126 603 126 603 112 616 c 128,-1,32
 98 629 98 629 98 640 c 0,33,34
 98 645 98 645 102 649 c 0,35,36
 207 745 207 745 317 795 c 1,37,-1
 360 1004 l 2,38,39
 365 1029 365 1029 407 1055 c 128,-1,40
 449 1081 449 1081 479 1081 c 0,41,42
 503 1081 503 1081 500 1068 c 2,43,-1
 444 829 l 1,44,45
 482 842 482 842 563 842 c 0,46,47
 695 842 695 842 779.5 752 c 128,-1,48
 864 662 864 662 864 510 c 0,0,1
725 477 m 0,49,50
 725 595 725 595 665 675.5 c 128,-1,51
 605 756 605 756 516 756 c 0,52,53
 469 756 469 756 424 743 c 1,54,-1
 276 117 l 2,55,56
 274 103 274 103 274 98 c 0,57,58
 274 39 274 39 350 39 c 0,59,60
 496 39 496 39 610.5 174 c 128,-1,61
 725 309 725 309 725 477 c 0,49,50
EndSplineSet
Substitution2: "'ss19' Latin to Gothic transliteration subtable" u10340
Substitution2: "'sups' superscripts subtable" uni1D56
Comment: "last+AD0A-60+AAoA-curve width: 139" 
Colour: ffffff
EndChar

StartChar: q
Encoding: 113 113 81
Width: 952
GlyphClass: 2
Flags: W
AnchorPoint: "above" 688 900 basechar 0
LayerCount: 2
Back
SplineSet
711 -246 m 2,18,-1
 954 816 l 2,19,20
EndSplineSet
Fore
SplineSet
678 -387 m 2,0,1
 676 -396 676 -396 676 -406 c 0,2,3
 676 -454 676 -454 745 -454 c 0,4,5
 764 -454 764 -454 786 -451 c 0,6,7
 797 -449 797 -449 797 -468 c 0,8,9
 797 -510 797 -510 779 -510 c 0,10,11
 635 -510 635 -510 389 -559 c 1,12,13
 378 -559 378 -559 378 -543 c 0,14,15
 378 -502 378 -502 401 -500 c 0,16,17
 534 -490 534 -490 557 -391 c 2,18,-1
 733 383 l 1,19,-1
 723 381 l 1,20,21
 643 243 643 243 495 108 c 128,-1,22
 347 -27 347 -27 227 -27 c 0,23,24
 166 -27 166 -27 130 17 c 128,-1,25
 94 61 94 61 94 133 c 0,26,27
 94 358 94 358 277 605 c 128,-1,28
 460 852 460 852 707 852 c 0,29,30
 798 852 798 852 829 729 c 1,31,-1
 918 895 l 2,32,33
 922 903 922 903 937 903 c 0,34,35
 982 903 982 903 976 878 c 2,36,-1
 891 532 l 1,37,-1
 678 -387 l 2,0,1
756 643 m 0,38,39
 756 788 756 788 674 788 c 0,40,41
 536 788 536 788 389 542 c 128,-1,42
 242 296 242 296 242 141 c 0,43,44
 242 63 242 63 291 63 c 0,45,46
 337 63 337 63 454 158.5 c 128,-1,47
 571 254 571 254 655 375 c 0,48,49
 756 523 756 523 756 643 c 0,38,39
EndSplineSet
Substitution2: "'ss19' Latin to Gothic transliteration subtable" u10335
Substitution2: "'sups' superscripts subtable" q.superscript
Comment: "last+AD0A-49" 
Colour: ffffff
EndChar

StartChar: r
Encoding: 114 114 82
Width: 754
GlyphClass: 2
Flags: W
AnchorPoint: "above" 565 900 basechar 0
LayerCount: 2
Fore
SplineSet
832 772 m 0,0,1
 832 736 832 736 804 710 c 128,-1,2
 776 684 776 684 746 684 c 0,3,4
 710 684 710 684 693 698.5 c 128,-1,5
 676 713 676 713 646 713 c 0,6,7
 586 713 586 713 441.5 476 c 128,-1,8
 297 239 297 239 236 4 c 0,9,10
 228 -27 228 -27 170.5 -27 c 128,-1,11
 113 -27 113 -27 113 -2 c 0,12,13
 113 0 113 0 114 4 c 2,14,-1
 279 627 l 2,15,16
 286 653 286 653 286 662 c 0,17,18
 286 705 286 705 262 705 c 128,-1,19
 238 705 238 705 147 614 c 0,20,21
 144 611 144 611 139 611 c 0,22,23
 123 611 123 611 111 631 c 0,24,25
 107 638 107 638 107 644 c 0,26,27
 107 649 107 649 109 651 c 0,28,29
 232 785 232 785 285 818.5 c 128,-1,30
 338 852 338 852 381 852 c 256,31,32
 435 852 435 852 435 770 c 0,33,34
 435 754 435 754 401 627 c 2,35,-1
 356 459 l 1,36,-1
 366 457 l 1,37,38
 575 852 575 852 739 852 c 0,39,40
 789 852 789 852 810.5 830.5 c 128,-1,41
 832 809 832 809 832 772 c 0,0,1
EndSplineSet
Substitution2: "'ss19' Latin to Gothic transliteration subtable" u10342
Substitution2: "'swsh' Swash in Latin lookup 14" uniF19B
Substitution2: "'sups' superscripts subtable" uni02B3
Substitution2: "'ss02' Style Set 2 in Latin lookup 10" uniA783
Comment: "last+AD0A-41" 
Colour: ffffff
EndChar

StartChar: s
Encoding: 115 115 83
Width: 524
GlyphClass: 2
Flags: W
AnchorPoint: "above" 384 900 basechar 0
LayerCount: 2
Back
SplineSet
543 731 m 0,0,1
 543 707.857 543 707.857 524 689.929 c 128,-1,2
 505 672 505 672 487 672 c 0,3,4
 435 672 435 672 415.667 730 c 128,-1,5
 396.333 788 396.333 788 334 788 c 0,6,7
 299 788 299 788 276.5 750 c 128,-1,8
 254 712 254 712 254 678 c 0,9,10
 254 608 254 608 351.5 467 c 128,-1,11
 449 326 449 326 449 236 c 0,12,13
 449 124 449 124 361.5 48.5 c 128,-1,14
 274 -27 274 -27 158 -27 c 0,15,16
 104 -27 104 -27 63.5 8.5 c 128,-1,17
 23 44 23 44 23 82 c 0,18,19
 23 162 23 162 78 162 c 0,20,21
 144 162 144 162 170.5 108.5 c 128,-1,22
 197 55 197 55 256 55 c 0,23,24
 338 55 338 55 338 176 c 0,25,26
 338 240 338 240 248 366 c 128,-1,27
 158 492 158 492 158 592 c 0,28,29
 158 697 158 697 223 774.5 c 128,-1,30
 288 852 288 852 412 852 c 0,31,32
 464 852 464 852 503.5 812 c 128,-1,33
 543 772 543 772 543 731 c 0,0,1
EndSplineSet
Fore
SplineSet
543 731 m 0,0,1
 543 708 543 708 524 690 c 128,-1,2
 505 672 505 672 487 672 c 0,3,4
 435 672 435 672 415.5 730 c 128,-1,5
 396 788 396 788 334 788 c 0,6,7
 299 788 299 788 276.5 750 c 128,-1,8
 254 712 254 712 254 678 c 0,9,10
 254 608 254 608 351.5 467 c 128,-1,11
 449 326 449 326 449 236 c 0,12,13
 449 124 449 124 361.5 48.5 c 128,-1,14
 274 -27 274 -27 158 -27 c 0,15,16
 104 -27 104 -27 63.5 8.5 c 128,-1,17
 23 44 23 44 23 82 c 0,18,19
 23 118 23 118 37.5 140 c 128,-1,20
 52 162 52 162 78 162 c 0,21,22
 144 162 144 162 170.5 108.5 c 128,-1,23
 197 55 197 55 256 55 c 0,24,25
 338 55 338 55 338 176 c 0,26,27
 338 240 338 240 248 366 c 128,-1,28
 158 492 158 492 158 592 c 0,29,30
 158 697 158 697 223 774.5 c 128,-1,31
 288 852 288 852 412 852 c 0,32,33
 464 852 464 852 503.5 812 c 128,-1,34
 543 772 543 772 543 731 c 0,0,1
EndSplineSet
Substitution2: "'ss19' Latin to Gothic transliteration subtable" u10343
Substitution2: "'sups' superscripts subtable" uni02E2
Substitution2: "'hist' Historical Forms in Latin-1" longs
Substitution2: "'ss02' Style Set 2 in Latin lookup 10" uniA785
Comment: "last+AD0A-34" 
Colour: ffffff
EndChar

StartChar: t
Encoding: 116 116 84
Width: 604
GlyphClass: 2
Flags: W
AnchorPoint: "above" 480 1305 basechar 0
LayerCount: 2
Back
SplineSet
276 225 m 2,0,1
 264 183 264 183 264 154 c 0,2,3
 264 102 264 102 299 102 c 0,4,5
 362 102 362 102 522 301 c 0,6,7
 524 304 524 304 528 304 c 0,8,9
 544 304 544 304 556 282 c 0,10,11
 562.902 269.341 562.902 269.341 557 260 c 0,12,13
 440.557 98.0378 440.557 98.0378 364.278 35.5189 c 128,-1,14
 288 -27 288 -27 208 -27 c 0,15,16
 167.75 -27 167.75 -27 144.875 3.75 c 128,-1,17
 122 34.5 122 34.5 122 76 c 0,18,19
 122 120.286 122 120.286 130 148 c 2,20,-1
 298 730 l 1,21,-1
 142 730 l 2,22,23
 130 730 130 730 130 749 c 0,24,25
 130 785 130 785 152 789 c 2,26,-1
 319 818 l 1,27,-1
 422 1021 l 2,28,29
 428 1033 428 1033 452 1033 c 0,30,31
 491 1033 491 1033 492 1014 c 0,32,33
 492 1011 492 1011 491 1008 c 2,34,-1
 442 808 l 1,35,-1
 666 808 l 2,36,37
 674 808 674 808 674 792 c 0,38,39
 674 763 674 763 658 739 c 0,40,41
 652 730 652 730 645 730 c 2,42,-1
 421 730 l 1,43,-1
 276 225 l 2,0,1
EndSplineSet
Fore
SplineSet
276 225 m 2,0,1
 264 183 264 183 264 154 c 0,2,3
 264 102 264 102 299 102 c 0,4,5
 362 102 362 102 522 301 c 0,6,7
 524 304 524 304 528 304 c 0,8,9
 544 304 544 304 556 282 c 0,10,11
 563 269 563 269 557 260 c 0,12,13
 441 98 441 98 364.5 35.5 c 128,-1,14
 288 -27 288 -27 208 -27 c 0,15,16
 168 -27 168 -27 145 3.5 c 128,-1,17
 122 34 122 34 122 76 c 0,18,19
 122 120 122 120 130 148 c 2,20,-1
 298 730 l 1,21,-1
 142 730 l 2,22,23
 130 730 130 730 130 749 c 0,24,25
 130 785 130 785 152 789 c 2,26,-1
 319 818 l 1,27,-1
 422 1021 l 2,28,29
 428 1033 428 1033 452 1033 c 0,30,31
 492 1033 492 1033 492 1014 c 0,32,33
 492 1012 492 1012 491 1008 c 2,34,-1
 442 808 l 1,35,-1
 666 808 l 2,36,37
 674 808 674 808 674 787.5 c 128,-1,38
 674 767 674 767 663 748.5 c 128,-1,39
 652 730 652 730 645 730 c 2,40,-1
 421 730 l 1,41,-1
 276 225 l 2,0,1
EndSplineSet
Substitution2: "'ss19' Latin to Gothic transliteration subtable" u10344
Substitution2: "'swsh' Swash in Latin lookup 14" uniF199
Substitution2: "'sups' superscripts subtable" uni1D57
Substitution2: "'ss02' Style Set 2 in Latin lookup 10" uniA787
Comment: "last+AD0A-41+AAoA-left sidebearing+AD0A-122" 
Colour: ffffff
EndChar

StartChar: u
Encoding: 117 117 85
Width: 991
GlyphClass: 2
Flags: W
AnchorPoint: "above" 633 900 basechar 0
LayerCount: 2
Fore
SplineSet
768 203 m 2,0,1
 756 161 756 161 756 141 c 0,2,3
 756 102 756 102 790 102 c 128,-1,4
 824 102 824 102 915 195 c 0,5,6
 918 198 918 198 923 198 c 0,7,8
 936 198 936 198 947 186 c 0,9,10
 960 172 960 172 959 164 c 0,11,12
 959 160 959 160 956 156 c 0,13,14
 792 -27 792 -27 672 -27 c 0,15,16
 614 -27 614 -27 614 63 c 0,17,18
 614 99 614 99 625 137 c 2,19,-1
 707 424 l 1,20,21
 463 116 463 116 372.5 44.5 c 128,-1,22
 282 -27 282 -27 226 -27 c 256,23,24
 142 -27 142 -27 142 72 c 0,25,26
 142 110 142 110 162 180 c 2,27,-1
 289 625 l 2,28,29
 295 646 295 646 295 666 c 0,30,31
 295 711 295 711 266.5 711 c 128,-1,32
 238 711 238 711 214 684 c 0,33,34
 188 655 188 655 158 625 c 0,35,36
 155 622 155 622 150 622 c 0,37,38
 132 622 132 622 119 644 c 0,39,40
 115 651 115 651 115 656 c 0,41,42
 115 660 115 660 117 662 c 0,43,44
 271 852 271 852 385 852 c 0,45,46
 440 852 440 852 440 770 c 0,47,48
 440 723 440 723 415 636 c 2,49,-1
 328 334 l 2,50,51
 287 192 287 192 287 147 c 128,-1,52
 287 102 287 102 315 102 c 0,53,54
 359 102 359 102 474 224 c 128,-1,55
 589 346 589 346 702 541 c 0,56,57
 760 641 760 641 823 829 c 0,58,59
 831 852 831 852 883 852 c 0,60,61
 953 852 953 852 945 826 c 2,62,-1
 768 203 l 2,0,1
EndSplineSet
Substitution2: "'ss19' Latin to Gothic transliteration subtable" u1033F
Substitution2: "'sups' superscripts subtable" uni1D58
Comment: "last+AD0A-63" 
Colour: ffffff
EndChar

StartChar: v
Encoding: 118 118 86
Width: 823
GlyphClass: 2
Flags: W
AnchorPoint: "above" 562 900 basechar 0
LayerCount: 2
Back
SplineSet
831 705 m 0,0,1
 831 579.5 831 579.5 752.194 400.75 c 128,-1,2
 673.387 222 673.387 222 532.194 97.5 c 128,-1,3
 391 -27 391 -27 258 -27 c 0,4,5
 199.5 -27 199.5 -27 172.75 11.75 c 128,-1,6
 146 50.5 146 50.5 146 85.1515 c 128,-1,7
 146 119.803 146 119.803 152 141 c 2,8,-1
 289 625 l 2,9,10
 295 646.197 295 646.197 295 662 c 0,11,12
 295 711 295 711 263.5 711 c 128,-1,13
 232 711 232 711 156 625 c 0,14,15
 153 622.125 153 622.125 144 622.125 c 128,-1,16
 135 622.125 135 622.125 124 635.062 c 128,-1,17
 113 648 113 648 113 655.5 c 0,18,19
 113 659.55 113 659.55 115 662 c 0,20,21
 270.129 852 270.129 852 385 852 c 0,22,23
 440.01 852 440.01 852 440 768 c 0,24,25
 439.995 726.314 439.995 726.314 429.339 688.667 c 2,26,-1
 293 207 l 2,27,28
 283 171.671 283 171.671 283 147 c 0,29,30
 283 76 283 76 364.5 76 c 128,-1,31
 446 76 446 76 574 238.5 c 128,-1,32
 702 401 702 401 702 584 c 0,33,34
 702 703 702 703 666 778 c 1,35,36
 666 852 666 852 735 852 c 0,37,38
 785.401 852 785.401 852 808.201 803 c 128,-1,39
 831 754 831 754 831 705 c 0,0,1
111 -39 m 2,18,-1
 354 1023 l 2,19,20
EndSplineSet
Fore
SplineSet
831 705 m 0,0,1
 831 579 831 579 752 400.5 c 128,-1,2
 673 222 673 222 532 97.5 c 128,-1,3
 391 -27 391 -27 258 -27 c 0,4,5
 200 -27 200 -27 173 11.5 c 128,-1,6
 146 50 146 50 146 85 c 128,-1,7
 146 120 146 120 152 141 c 2,8,-1
 289 625 l 2,9,10
 295 646 295 646 295 662 c 0,11,12
 295 711 295 711 263 711 c 256,13,14
 232 711 232 711 156 625 c 0,15,16
 148 617 148 617 128 635 c 0,17,18
 113 649 113 649 113 657 c 0,19,20
 113 660 113 660 115 662 c 0,21,22
 270 852 270 852 385 852 c 0,23,24
 413 852 413 852 426.5 830 c 128,-1,25
 440 808 440 808 440 768 c 0,26,27
 440 726 440 726 429 689 c 2,28,-1
 293 207 l 2,29,30
 283 172 283 172 283 147 c 0,31,32
 282 76 282 76 364 76 c 256,33,34
 446 76 446 76 574 238.5 c 128,-1,35
 702 401 702 401 702 584 c 0,36,37
 702 703 702 703 666 778 c 1,38,39
 666 852 666 852 735 852 c 0,40,41
 785 852 785 852 808 803 c 128,-1,42
 831 754 831 754 831 705 c 0,0,1
EndSplineSet
Substitution2: "'sups' superscripts subtable" uni1D5B
Comment: "last+AD0A-42" 
Colour: ffffff
EndChar

StartChar: w
Encoding: 119 119 87
Width: 1239
GlyphClass: 2
Flags: W
AnchorPoint: "below" 484 -75 basechar 0
AnchorPoint: "above" 832 900 basechar 0
LayerCount: 2
Back
SplineSet
99 -93 m 2,18,-1
 342 969 l 2,19,20
639 -93 m 2,18,-1
 882 969 l 2,19,20
EndSplineSet
Fore
SplineSet
1247 705 m 0,0,1
 1247 588 1247 588 1168.5 404.5 c 128,-1,2
 1090 221 1090 221 948 97 c 128,-1,3
 806 -27 806 -27 674 -27 c 0,4,5
 562 -27 562 -27 562 97 c 0,6,7
 562 107 562 107 564 125 c 1,8,9
 400 -27 400 -27 258 -27 c 0,10,11
 201 -27 201 -27 173.5 11 c 128,-1,12
 146 49 146 49 146 90 c 256,13,14
 146 120 146 120 152 141 c 2,15,-1
 289 625 l 2,16,17
 295 646 295 646 295 662 c 0,18,19
 295 711 295 711 264.5 711 c 128,-1,20
 234 711 234 711 156 625 c 0,21,22
 153 622 153 622 146.5 622 c 128,-1,23
 140 622 140 622 126.5 636 c 128,-1,24
 113 650 113 650 113 656 c 256,25,26
 113 660 113 660 115 662 c 0,27,28
 269 852 269 852 385 852 c 0,29,30
 440 852 440 852 440 768 c 0,31,32
 440 723 440 723 412 625 c 2,33,-1
 293 207 l 2,34,35
 283 172 283 172 283 147 c 0,36,37
 282 76 282 76 364 76 c 256,38,39
 412 76 412 76 466 122 c 128,-1,40
 520 168 520 168 562 222.5 c 128,-1,41
 604 277 604 277 630 369 c 2,42,-1
 756 817 l 2,43,44
 766 852 766 852 822 852 c 128,-1,45
 878 852 878 852 878 826 c 0,46,47
 878 821 878 821 877 817 c 2,48,-1
 709 207 l 2,49,50
 699 171 699 171 699 147 c 0,51,52
 699 76 699 76 780.5 76 c 128,-1,53
 862 76 862 76 990 238.5 c 128,-1,54
 1118 401 1118 401 1118 584 c 0,55,56
 1118 703 1118 703 1081 778 c 1,57,58
 1081 852 1081 852 1151 852 c 0,59,60
 1198 852 1198 852 1222.5 807 c 128,-1,61
 1247 762 1247 762 1247 705 c 0,0,1
EndSplineSet
Substitution2: "'ss19' Latin to Gothic transliteration subtable" u10345
Substitution2: "'sups' superscripts subtable" uni02B7
Substitution2: "'ss02' Style Set 2 in Latin lookup 10" uni01BF
Comment: "last+AD0A-61" 
Colour: ffffff
EndChar

StartChar: x
Encoding: 120 120 88
Width: 963
GlyphClass: 2
Flags: W
AnchorPoint: "above" 582 900 basechar 0
LayerCount: 2
Fore
SplineSet
973 754 m 0,0,1
 973 645 973 645 905 645 c 0,2,3
 874 645 874 645 855 684 c 128,-1,4
 836 723 836 723 819 723 c 0,5,6
 775 723 775 723 717 645 c 2,7,-1
 561 436 l 1,8,-1
 655 236 l 2,9,10
 711 117 711 117 741 117 c 0,11,12
 782 117 782 117 829 242 c 0,13,14
 832 250 832 250 844 250 c 128,-1,15
 856 250 856 250 866 245.5 c 128,-1,16
 876 241 876 241 875 233 c 0,17,18
 835 -27 835 -27 717 -27 c 0,19,20
 654 -27 654 -27 582 117 c 2,21,-1
 483 315 l 1,22,-1
 346 135 l 2,23,24
 223 -27 223 -27 135 -27 c 0,25,26
 95 -27 95 -27 73 -3.5 c 128,-1,27
 51 20 51 20 51 45 c 0,28,29
 51 101 51 101 74.5 142.5 c 128,-1,30
 98 184 98 184 128 184 c 256,31,32
 158 184 158 184 181 146.5 c 128,-1,33
 204 109 204 109 213 109 c 0,34,35
 240 109 240 109 291 174 c 2,36,-1
 453 381 l 1,37,-1
 307 680 l 2,38,39
 294 707 294 707 276 707 c 256,40,41
 257 707 257 707 234.5 674 c 128,-1,42
 212 641 212 641 193 600 c 0,43,44
 191 596 191 596 178.5 596 c 128,-1,45
 166 596 166 596 155 609.5 c 128,-1,46
 144 623 144 623 147 629 c 0,47,48
 241 852 241 852 319 852 c 0,49,50
 374 852 374 852 422 745 c 2,51,-1
 532 500 l 1,52,-1
 659 670 l 2,53,54
 795 852 795 852 881 852 c 0,55,56
 919 852 919 852 946 823 c 128,-1,57
 973 794 973 794 973 754 c 0,0,1
EndSplineSet
Substitution2: "'ss19' Latin to Gothic transliteration subtable" u10347
Substitution2: "'sups' superscripts subtable" uni02E3
Comment: "last+AD0A-57" 
Colour: ffffff
EndChar

StartChar: y
Encoding: 121 121 89
Width: 793
GlyphClass: 2
Flags: W
AnchorPoint: "above" 500 900 basechar 0
LayerCount: 2
Fore
SplineSet
793 788 m 0,0,1
 793 714 793 714 749 533.5 c 128,-1,2
 705 353 705 353 593.5 132 c 128,-1,3
 482 -89 482 -89 432.5 -171.5 c 128,-1,4
 383 -254 383 -254 255.5 -404.5 c 128,-1,5
 128 -555 128 -555 2 -555 c 0,6,7
 -50 -555 -50 -555 -81.5 -524.5 c 128,-1,8
 -113 -494 -113 -494 -113 -459 c 0,9,10
 -113 -419 -113 -419 -96 -395 c 128,-1,11
 -79 -371 -79 -371 -38 -371 c 256,12,13
 3 -371 3 -371 23 -405.5 c 128,-1,14
 43 -440 43 -440 82 -440 c 0,15,16
 147 -440 147 -440 221 -347.5 c 128,-1,17
 295 -255 295 -255 326.5 -143 c 128,-1,18
 358 -31 358 -31 358 135 c 0,19,20
 358 363 358 363 324 540 c 128,-1,21
 290 717 290 717 240 717 c 0,22,23
 194 717 194 717 129 586 c 0,24,25
 125 579 125 579 110.5 580.5 c 128,-1,26
 96 582 96 582 87 589 c 128,-1,27
 78 596 78 596 82 604 c 0,28,29
 186 852 186 852 303 852 c 0,30,31
 388 852 388 852 432.5 669 c 128,-1,32
 477 486 477 486 477 227 c 0,33,34
 477 140 477 140 469 39 c 1,35,-1
 479 39 l 1,36,37
 553 169 553 169 610.5 361.5 c 128,-1,38
 668 554 668 554 668 639 c 0,39,40
 668 709 668 709 649 784 c 17,41,42
 649 852 649 852 721 852 c 128,-1,43
 793 852 793 852 793 788 c 0,0,1
EndSplineSet
Substitution2: "'sups' superscripts subtable" uni02B8
Comment: "last+AD0A-43" 
Colour: ffffff
EndChar

StartChar: z
Encoding: 122 122 90
Width: 891
GlyphClass: 2
Flags: W
AnchorPoint: "above" 568 900 basechar 0
LayerCount: 2
Fore
SplineSet
283 162 m 1,0,-1
 285 154 l 1,1,-1
 328 151 l 2,2,3
 389 147 389 147 517.5 94 c 128,-1,4
 646 41 646 41 684 41 c 0,5,6
 768 41 768 41 768 129 c 0,7,8
 768 151 768 151 740.5 175.5 c 128,-1,9
 713 200 713 200 713 231 c 0,10,11
 713 295 713 295 782 295 c 0,12,13
 822 295 822 295 845 261.5 c 128,-1,14
 868 228 868 228 868 190 c 0,15,16
 868 84 868 84 789 12.5 c 128,-1,17
 710 -59 710 -59 629 -59 c 0,18,19
 585 -59 585 -59 522 -36.5 c 128,-1,20
 459 -14 459 -14 373 26 c 136,-1,21
 287 66 287 66 248 66 c 0,22,23
 186 66 186 66 106 -23 c 0,24,25
 102 -29 102 -29 92 -29 c 0,26,27
 68 -29 68 -29 42 4 c 0,28,29
 33 17 33 17 33 23 c 0,30,31
 33 28 33 28 36 31 c 2,32,-1
 600 659 l 2,33,34
 609 669 609 669 609 677 c 0,35,36
 609 693 609 693 569 705 c 0,37,38
 437 745 437 745 328 745 c 0,39,40
 238 745 238 745 238 688 c 0,41,42
 238 675 238 675 257 650 c 128,-1,43
 276 625 276 625 276 596 c 0,44,45
 276 532 276 532 215 532 c 0,46,47
 137 532 137 532 137 612 c 0,48,49
 137 680 137 680 215.5 761 c 128,-1,50
 294 842 294 842 420 842 c 0,51,52
 482 842 482 842 572 814 c 128,-1,53
 662 786 662 786 707 786 c 0,54,55
 759 786 759 786 782 811 c 2,56,-1
 823 856 l 2,57,58
 828 861 828 861 837 861 c 0,59,60
 859 861 859 861 872 840 c 8,61,62
 877 832 877 832 877 825 c 0,63,64
 877 820 877 820 874 817 c 2,65,-1
 283 162 l 1,0,-1
EndSplineSet
Substitution2: "'ss19' Latin to Gothic transliteration subtable" u10336
Substitution2: "'sups' superscripts subtable" uni1DBB
Comment: "last+AD0A-65" 
Colour: ffffff
EndChar

StartChar: braceleft
Encoding: 123 123 91
Width: 573
GlyphClass: 2
Flags: W
LayerCount: 2
Fore
SplineSet
312 -291 m 0,0,1
 318 -292 318 -292 317 -309 c 128,-1,2
 316 -326 316 -326 301 -328 c 1,3,4
 74 -328 74 -328 74 -164 c 0,5,6
 74 -68 74 -68 167 143 c 128,-1,7
 260 354 260 354 260 438 c 256,8,9
 260 522 260 522 121 532 c 0,10,11
 114 532 114 532 114 540 c 0,12,13
 114 576 114 576 131 578 c 0,14,15
 236 588 236 588 283.5 620 c 128,-1,16
 331 652 331 652 350.5 707.5 c 128,-1,17
 370 763 370 763 416 998.5 c 128,-1,18
 462 1234 462 1234 532 1320 c 0,19,20
 627 1436 627 1436 812 1436 c 0,21,22
 822 1436 822 1436 822 1418.5 c 128,-1,23
 822 1401 822 1401 807 1399 c 0,24,25
 621 1372 621 1372 576 1196 c 0,26,27
 553 1108 553 1108 522 922 c 128,-1,28
 491 736 491 736 436.5 661 c 128,-1,29
 382 586 382 586 275 559 c 1,30,-1
 273 551 l 1,31,32
 377 525 377 525 377 408 c 0,33,34
 377 345 377 345 282 133 c 128,-1,35
 187 -79 187 -79 187 -150 c 0,36,37
 187 -265 187 -265 312 -291 c 0,0,1
EndSplineSet
Substitution2: "'ss16' Upright brackets-1" braceleft.alt
Comment: "last+AD0A-37" 
Colour: ffffff
EndChar

StartChar: bar
Encoding: 124 124 92
Width: 537
GlyphClass: 2
Flags: W
LayerCount: 2
Fore
SplineSet
315 -313 m 1,0,-1
 233 -313 l 1,1,-1
 233 1434 l 1,2,-1
 315 1434 l 1,3,-1
 315 -313 l 1,0,-1
EndSplineSet
Comment: "last+AD0A-3" 
Colour: ffffff
EndChar

StartChar: braceright
Encoding: 125 125 93
Width: 598
GlyphClass: 2
Flags: W
LayerCount: 2
Fore
SplineSet
550 530 m 0,0,1
 444 520 444 520 395 486.5 c 128,-1,2
 346 453 346 453 328.5 396 c 128,-1,3
 311 339 311 339 265 108 c 128,-1,4
 219 -123 219 -123 149 -212 c 0,5,6
 56 -329 56 -329 -131 -328 c 0,7,8
 -141 -328 -141 -328 -141 -310 c 0,9,10
 -141 -293 -141 -293 -126 -291 c 0,11,12
 64 -261 64 -261 105 -88 c 0,13,14
 134 37 134 37 162 206 c 128,-1,15
 190 375 190 375 246 449 c 128,-1,16
 302 523 302 523 406 549 c 1,17,-1
 408 557 l 1,18,19
 304 583 304 583 304 700 c 0,20,21
 304 763 304 763 399 975 c 128,-1,22
 494 1187 494 1187 494 1258 c 0,23,24
 494 1373 494 1373 369 1399 c 0,25,26
 363 1400 363 1400 363 1418 c 128,-1,27
 363 1436 363 1436 380 1436 c 0,28,29
 607 1436 607 1436 607 1272 c 0,30,31
 607 1176 607 1176 514 965 c 128,-1,32
 421 754 421 754 421 664 c 0,33,34
 421 585 421 585 560 576 c 0,35,36
 567 576 567 576 567 568 c 0,37,38
 567 532 567 532 550 530 c 0,0,1
EndSplineSet
Substitution2: "'ss16' Upright brackets-1" braceright.alt
Comment: "last+AD0A-38" 
Colour: ffffff
EndChar

StartChar: asciitilde
Encoding: 126 126 94
Width: 676
GlyphClass: 2
Flags: W
LayerCount: 2
Fore
SplineSet
653 513 m 0,0,1
 653 470 653 470 569.5 410 c 128,-1,2
 486 350 486 350 441 350 c 128,-1,3
 396 350 396 350 308 383.5 c 128,-1,4
 220 417 220 417 165.5 417 c 128,-1,5
 111 417 111 417 49 352 c 0,6,7
 46 349 46 349 42 349 c 0,8,9
 38 349 38 349 30.5 354 c 128,-1,10
 23 359 23 359 23 365 c 128,-1,11
 23 371 23 371 24 372 c 0,12,13
 124 523 124 523 202 523 c 128,-1,14
 280 523 280 523 367.5 491 c 128,-1,15
 455 459 455 459 503.5 459 c 128,-1,16
 552 459 552 459 624 531 c 0,17,18
 626 533 626 533 629 533 c 0,19,20
 653 533 653 533 653 513 c 0,0,1
EndSplineSet
Comment: "last+AD0A-20" 
Colour: ffffff
EndChar

StartChar: exclamdown
Encoding: 161 161 96
Width: 520
GlyphClass: 2
Flags: W
LayerCount: 2
Fore
SplineSet
80 -442 m 2,0,1
 72 -480 72 -480 33 -517.5 c 128,-1,2
 -6 -555 -6 -555 -49 -555 c 0,3,4
 -128 -555 -128 -555 -128 -485 c 0,5,6
 -128 -458 -128 -458 -119 -434 c 2,7,-1
 198 408 l 2,8,9
 204 425 204 425 234.5 425 c 128,-1,10
 265 425 265 425 265 412 c 0,11,-1
 80 -442 l 2,0,1
450 761.5 m 128,-1,13
 450 711 450 711 419 672 c 128,-1,14
 388 633 388 633 332 633 c 128,-1,15
 276 633 276 633 240.5 667.5 c 128,-1,16
 205 702 205 702 205 754 c 128,-1,17
 205 806 205 806 239.5 837.5 c 128,-1,18
 274 869 274 869 321 869 c 128,-1,19
 368 869 368 869 409 840.5 c 128,-1,12
 450 812 450 812 450 761.5 c 128,-1,13
EndSplineSet
Comment: "last+AD0A-19" 
Colour: ffffff
EndChar

StartChar: cent
Encoding: 162 162 97
Width: 866
GlyphClass: 2
Flags: W
LayerCount: 2
Fore
SplineSet
844 311 m 0,0,1
 714 220 714 220 524 220 c 2,2,-1
 506 220 l 1,3,-1
 444 8 l 2,4,5
 440 -6 440 -6 420 -6 c 128,-1,6
 400 -6 400 -6 383 3.5 c 128,-1,7
 366 13 366 13 369 23 c 2,8,-1
 430 231 l 1,9,10
 308 263 308 263 234.5 366.5 c 128,-1,11
 161 470 161 470 161 590 c 256,12,13
 161 710 161 710 224.5 820 c 128,-1,14
 288 930 288 930 415 999.5 c 128,-1,15
 542 1069 542 1069 678 1073 c 1,16,-1
 731 1253 l 2,17,18
 734 1263 734 1263 752.5 1263 c 128,-1,19
 771 1263 771 1263 790.5 1255.5 c 128,-1,20
 810 1248 810 1248 807 1237 c 2,21,-1
 757 1068 l 1,22,23
 920 1044 920 1044 940 984 c 0,24,25
 945 969 945 969 945 954 c 0,26,27
 945 927 945 927 924 901.5 c 128,-1,28
 903 876 903 876 885 876 c 0,29,30
 871 876 871 876 844 908.5 c 128,-1,31
 817 941 817 941 797 961.5 c 128,-1,32
 777 982 777 982 736 999 c 1,33,-1
 534 314 l 1,34,35
 562 307 562 307 610 307 c 256,36,37
 677 307 677 307 818 364 c 24,38,39
 827 368 827 368 837.5 351.5 c 128,-1,40
 848 335 848 335 848 324.5 c 128,-1,41
 848 314 848 314 844 311 c 0,0,1
463 342 m 1,42,-1
 660 1011 l 1,43,44
 521 1005 521 1005 419 885 c 128,-1,45
 317 765 317 765 317 623 c 0,46,47
 317 428 317 428 463 342 c 1,42,-1
EndSplineSet
Substitution2: "'onum' Oldstyle Figures in Latin lookup 5" cent.oldstyle
Comment: "last+AD0A-47" 
Colour: ffffff
EndChar

StartChar: sterling
Encoding: 163 163 98
Width: 1081
GlyphClass: 2
Flags: W
LayerCount: 2
Fore
SplineSet
1103 1154 m 0,0,1
 1103 1120 1103 1120 1089.5 1091.5 c 128,-1,2
 1076 1063 1076 1063 1037 1063 c 0,3,4
 964 1063 964 1063 962 1145 c 0,5,6
 960 1255 960 1255 849 1255 c 0,7,8
 793 1255 793 1255 732 1195.5 c 128,-1,9
 671 1136 671 1136 623 649 c 1,10,-1
 915 649 l 2,11,12
 926 649 926 649 926 632 c 128,-1,13
 926 615 926 615 919 599.5 c 128,-1,14
 912 584 912 584 903 584 c 2,15,-1
 612 584 l 1,16,17
 559 280 559 280 336 162 c 1,18,-1
 336 158 l 1,19,20
 426 158 426 158 562.5 96.5 c 0,21,22
 698 35 698 35 764 35 c 0,23,24
 814 35 814 35 833 58.5 c 128,-1,25
 852 82 852 82 852 176 c 0,26,27
 852 250 852 250 899 250 c 0,28,29
 934 250 934 250 954.5 222 c 128,-1,30
 975 194 975 194 975 158 c 0,31,32
 975 60 975 60 868.5 3.5 c 128,-1,33
 762 -53 762 -53 662 -53 c 256,34,35
 546 -53 546 -53 435 4 c 128,-1,36
 324 61 324 61 235 96 c 1,37,38
 194 90 194 90 164 30.5 c 128,-1,39
 134 -29 134 -29 63 -29 c 256,40,41
 -8 -29 -8 -29 -8 20 c 0,42,43
 -8 74 -8 74 66.5 112 c 128,-1,44
 141 150 141 150 227 163 c 128,-1,45
 313 176 313 176 372 280 c 128,-1,46
 431 384 431 384 448 584 c 1,47,-1
 217 584 l 2,48,49
 209 584 209 584 209 602.5 c 128,-1,50
 209 621 209 621 215 635 c 128,-1,51
 221 649 221 649 235 649 c 2,52,-1
 457 649 l 1,53,54
 476 829 476 829 518 976.5 c 128,-1,55
 560 1124 560 1124 670 1223.5 c 128,-1,56
 780 1323 780 1323 907 1323 c 0,57,58
 1005 1323 1005 1323 1054 1275.5 c 128,-1,59
 1103 1228 1103 1228 1103 1154 c 0,0,1
EndSplineSet
Comment: "last+AD0A-58" 
Colour: ffffff
EndChar

StartChar: currency
Encoding: 164 164 99
Width: 1024
GlyphClass: 2
Flags: W
LayerCount: 2
Fore
SplineSet
946 668 m 256,0,1
 946 521 946 521 858 406 c 1,2,-1
 936 327 l 2,3,4
 938 325 938 325 938 322 c 0,5,6
 938 309 938 309 906 274.5 c 128,-1,7
 874 240 874 240 859 240 c 0,8,9
 855 240 855 240 852 243 c 2,10,-1
 774 322 l 1,11,12
 659 234 659 234 514 234 c 128,-1,13
 369 234 369 234 251 323 c 1,14,-1
 172 243 l 2,15,16
 169 240 169 240 165 240 c 0,17,18
 151 240 151 240 118.5 273.5 c 128,-1,19
 86 307 86 307 86 321 c 0,20,21
 86 325 86 325 88 327 c 2,22,-1
 167 407 l 1,23,24
 80 522 80 522 80 667 c 128,-1,25
 80 812 80 812 167 928 c 1,26,-1
 88 1008 l 2,27,28
 86 1010 86 1010 86 1013 c 0,29,30
 86 1026 86 1026 119 1060 c 128,-1,31
 152 1094 152 1094 166 1094 c 0,32,33
 170 1094 170 1094 172 1092 c 2,34,-1
 251 1013 l 1,35,36
 366 1101 366 1101 512.5 1101 c 128,-1,37
 659 1101 659 1101 774 1013 c 1,38,-1
 852 1092 l 2,39,40
 855 1095 855 1095 859 1095 c 0,41,42
 874 1095 874 1095 906 1061.5 c 128,-1,43
 938 1028 938 1028 938 1014 c 0,44,45
 938 1010 938 1010 936 1008 c 2,46,-1
 858 930 l 1,47,48
 946 815 946 815 946 668 c 256,0,1
860 668 m 256,49,50
 860 812 860 812 759 913 c 128,-1,51
 658 1014 658 1014 513.5 1014 c 128,-1,52
 369 1014 369 1014 268 913 c 128,-1,53
 167 812 167 812 167 668.5 c 128,-1,54
 167 525 167 525 269 423 c 128,-1,55
 371 321 371 321 514 321 c 128,-1,56
 657 321 657 321 758.5 422.5 c 128,-1,57
 860 524 860 524 860 668 c 256,49,50
EndSplineSet
Comment: "last+AD0A-55" 
Colour: ffffff
EndChar

StartChar: yen
Encoding: 165 165 100
Width: 1317
GlyphClass: 2
Flags: W
LayerCount: 2
Fore
SplineSet
688 199 m 2,0,1
 679 168 679 168 679 146 c 0,2,3
 679 96 679 96 733 81 c 0,4,5
 757 74 757 74 829 74 c 0,6,7
 837 74 837 74 837 55.5 c 128,-1,8
 837 37 837 37 826.5 14.5 c 128,-1,9
 816 -8 816 -8 807 -8 c 257,10,11
 741 0 741 0 563 0 c 128,-1,12
 385 0 385 0 297 -8 c 257,13,14
 289 -8 289 -8 289 10.5 c 128,-1,15
 289 29 289 29 299.5 51.5 c 128,-1,16
 310 74 310 74 319 74 c 0,17,18
 421 74 421 74 467 96 c 128,-1,19
 513 118 513 118 535 199 c 2,20,-1
 613 472 l 1,21,-1
 283 472 l 2,22,23
 268 472 268 472 268 522 c 128,-1,24
 268 572 268 572 283 572 c 2,25,-1
 639 572 l 1,26,27
 652 636 652 636 621 737 c 1,28,-1
 344 737 l 2,29,30
 329 737 329 737 329 788 c 128,-1,31
 329 839 329 839 344 839 c 2,32,-1
 590 839 l 1,33,-1
 459 1257 l 2,34,35
 437 1326 437 1326 399 1353 c 128,-1,36
 361 1380 361 1380 291 1380 c 0,37,38
 283 1380 283 1380 283 1398.5 c 128,-1,39
 283 1417 283 1417 293.5 1439.5 c 128,-1,40
 304 1462 304 1462 313 1462 c 257,41,42
 415 1456 415 1456 531 1456 c 128,-1,43
 647 1456 647 1456 778 1462 c 17,44,45
 786 1462 786 1462 786 1443.5 c 128,-1,46
 786 1425 786 1425 776 1402.5 c 128,-1,47
 766 1380 766 1380 756 1380 c 0,48,49
 682 1380 682 1380 653 1371 c 0,50,51
 603 1354 603 1354 603 1305 c 0,52,53
 603 1284 603 1284 612 1257 c 2,54,-1
 774 739 l 2,55,56
 780 719 780 719 791 719 c 128,-1,57
 802 719 802 719 817 735 c 2,58,-1
 1294 1247 l 2,59,60
 1348 1306 1348 1306 1348 1337 c 0,61,62
 1348 1380 1348 1380 1241 1380 c 0,63,64
 1233 1380 1233 1380 1233 1397.5 c 128,-1,65
 1233 1415 1233 1415 1243.5 1438.5 c 128,-1,66
 1254 1462 1254 1462 1264 1462 c 1,67,68
 1350 1456 1350 1456 1478.5 1456 c 128,-1,69
 1607 1456 1607 1456 1686 1462 c 257,70,71
 1694 1462 1694 1462 1694 1444.5 c 128,-1,72
 1694 1427 1694 1427 1684 1403.5 c 128,-1,73
 1674 1380 1674 1380 1663 1380 c 0,74,75
 1549 1380 1549 1380 1478 1330 c 0,76,77
 1439 1303 1439 1303 1282 1135 c 2,78,-1
 1004 839 l 1,79,-1
 1235 839 l 2,80,81
 1250 839 1250 839 1250 788 c 128,-1,82
 1250 737 1250 737 1235 737 c 2,83,-1
 910 737 l 1,84,-1
 874 700 l 2,85,86
 823 648 823 648 796 572 c 1,87,-1
 1174 572 l 2,88,89
 1189 572 1189 572 1189 522 c 128,-1,90
 1189 472 1189 472 1174 472 c 2,91,-1
 766 472 l 1,92,-1
 688 199 l 2,0,1
EndSplineSet
Comment: "last+AD0A-92" 
Colour: ffffff
EndChar

StartChar: brokenbar
Encoding: 166 166 101
Width: 555
GlyphClass: 2
Flags: W
LayerCount: 2
Fore
SplineSet
432 1399 m 1,0,-1
 432 817 l 1,1,-1
 312 817 l 1,2,-1
 312 1399 l 1,3,-1
 432 1399 l 1,0,-1
432 590 m 1,4,-1
 432 -33 l 1,5,-1
 312 -33 l 1,6,-1
 312 590 l 1,7,-1
 432 590 l 1,4,-1
EndSplineSet
Comment: "last+AD0A-7" 
Colour: ffffff
EndChar

StartChar: section
Encoding: 167 167 102
Width: 989
GlyphClass: 2
Flags: W
LayerCount: 2
Fore
SplineSet
862 384 m 256,0,1
 862 266 862 266 801 172 c 0,2,3
 711 33 711 33 519.5 -120.5 c 128,-1,4
 328 -274 328 -274 192 -274 c 256,5,6
 119 -274 119 -274 66.5 -229.5 c 128,-1,7
 14 -185 14 -185 14 -115 c 0,8,9
 14 -76 14 -76 49 -76 c 0,10,11
 59 -76 59 -76 136 -123 c 0,12,13
 212 -170 212 -170 286 -170 c 256,14,15
 360 -170 360 -170 412.5 -123 c 128,-1,16
 465 -76 465 -76 465 4 c 0,17,18
 465 136 465 136 357.5 388 c 128,-1,19
 250 640 250 640 250 776 c 256,20,21
 250 912 250 912 362.5 1063.5 c 128,-1,22
 475 1215 475 1215 637.5 1328.5 c 128,-1,23
 800 1442 800 1442 895 1442 c 256,24,25
 953 1442 953 1442 996.5 1402.5 c 128,-1,26
 1040 1363 1040 1363 1040 1307 c 0,27,28
 1040 1227 1040 1227 985 1227 c 0,29,30
 983 1227 983 1227 937 1286.5 c 128,-1,31
 891 1346 891 1346 817 1346 c 256,32,33
 743 1346 743 1346 691 1297.5 c 128,-1,34
 639 1249 639 1249 639 1169 c 0,35,36
 639 1032 639 1032 750.5 767 c 128,-1,37
 862 502 862 502 862 384 c 256,0,1
731 332 m 256,38,39
 731 446 731 446 630.5 697.5 c 128,-1,40
 530 949 530 949 530 991 c 0,41,42
 530 1135 530 1135 549 1174 c 1,43,-1
 541 1178 l 1,44,45
 373 1020 373 1020 373 866 c 256,46,47
 373 712 373 712 474 471 c 128,-1,48
 575 230 575 230 575 143 c 256,49,50
 575 56 575 56 569 10 c 1,51,-1
 573 6 l 1,52,53
 731 149 731 149 731 332 c 256,38,39
EndSplineSet
Comment: "last+AD0A-36" 
Colour: ffffff
EndChar

StartChar: dieresis
Encoding: 168 168 103
Width: 909
GlyphClass: 2
Flags: W
LayerCount: 2
Fore
SplineSet
601 1135 m 0,0,1
 601 1077 601 1077 567.5 1043.5 c 128,-1,2
 534 1010 534 1010 489 1010 c 0,3,4
 402 1010 402 1010 402 1100 c 0,5,6
 402 1152 402 1152 437 1188.5 c 128,-1,7
 472 1225 472 1225 516 1225 c 0,8,9
 601 1224 601 1224 601 1135 c 0,0,1
958 1135 m 0,10,11
 958 1077 958 1077 924.5 1043.5 c 128,-1,12
 891 1010 891 1010 846 1010 c 0,13,14
 759 1010 759 1010 759 1100 c 0,15,16
 759 1152 759 1152 794 1188.5 c 128,-1,17
 829 1225 829 1225 873 1225 c 0,18,19
 958 1224 958 1224 958 1135 c 0,10,11
EndSplineSet
Comment: "last+AD0A-19" 
Colour: ffffff
EndChar

StartChar: copyright
Encoding: 169 169 104
Width: 1565
GlyphClass: 2
Flags: W
LayerCount: 2
Fore
SplineSet
1516 748 m 128,-1,1
 1516 449 1516 449 1305 238 c 128,-1,2
 1094 27 1094 27 795 27 c 128,-1,3
 496 27 496 27 285 238 c 128,-1,4
 74 449 74 449 74 748 c 128,-1,5
 74 1047 74 1047 285 1257.5 c 128,-1,6
 496 1468 496 1468 795 1468 c 128,-1,7
 1094 1468 1094 1468 1305 1257.5 c 128,-1,0
 1516 1047 1516 1047 1516 748 c 128,-1,1
1255.5 286.5 m 128,-1,9
 1445 476 1445 476 1445 746.5 c 128,-1,10
 1445 1017 1445 1017 1254.5 1207.5 c 128,-1,11
 1064 1398 1064 1398 795.5 1398 c 128,-1,12
 527 1398 527 1398 335.5 1206.5 c 128,-1,13
 144 1015 144 1015 144 747 c 128,-1,14
 144 479 144 479 335 288 c 128,-1,15
 526 97 526 97 796 97 c 128,-1,8
 1066 97 1066 97 1255.5 286.5 c 128,-1,9
1042 560 m 0,16,17
 1043 566 1043 566 1059.5 566 c 128,-1,18
 1076 566 1076 566 1078 554 c 1,19,20
 1070 472 1070 472 1030 410 c 1,21,22
 1002 404 1002 404 989 400 c 0,23,24
 911 376 911 376 793 376 c 0,25,26
 638 376 638 376 534 481 c 128,-1,27
 430 586 430 586 430 737 c 0,28,29
 430 910 430 910 538 1021.5 c 128,-1,30
 646 1133 646 1133 805 1133 c 0,31,32
 880 1133 880 1133 955 1117.5 c 128,-1,33
 1030 1102 1030 1102 1041 1102 c 1,34,35
 1057 1067 1057 1067 1057 936 c 0,36,37
 1057 928 1057 928 1039 927.5 c 128,-1,38
 1021 927 1021 927 1020 934 c 0,39,40
 1003 1095 1003 1095 802 1095 c 0,41,42
 687 1095 687 1095 610.5 992.5 c 128,-1,43
 534 890 534 890 534 769 c 0,44,45
 536 593 536 593 621.5 504.5 c 128,-1,46
 707 416 707 416 800 416 c 0,47,48
 996 416 996 416 1042 560 c 0,16,17
EndSplineSet
Comment: "last+AD0A-48" 
Colour: ffffff
EndChar

StartChar: ordfeminine
Encoding: 170 170 105
Width: 579
GlyphClass: 2
Flags: W
LayerCount: 2
Fore
SplineSet
551.2 632 m 2,0,1
 549.4 626 549.4 626 549.4 620.6 c 0,2,3
 550 608.6 550 608.6 563.2 608.6 c 0,4,5
 584.8 608.6 584.8 608.6 624.4 648.2 c 0,6,7
 631.6 655.4 631.6 655.4 648.4 641 c 256,8,9
 660.4 630.8 660.4 630.8 660.4 624.2 c 0,10,11
 660.4 621.2 660.4 621.2 658 618.8 c 0,12,13
 602.8 564.8 602.8 564.8 557.5 536.3 c 128,-1,14
 512.2 507.8 512.2 507.8 478.6 507.8 c 0,15,16
 431.2 507.8 431.2 507.8 431.2 562.4 c 0,17,18
 431.2 592.4 431.2 592.4 442 617.6 c 2,19,-1
 457.6 653 l 1,20,-1
 450.4 656.6 l 1,21,22
 316 507.8 316 507.8 233.8 507.8 c 256,23,24
 190 507.8 190 507.8 163.9 540.2 c 128,-1,25
 137.8 572.6 137.8 572.6 137.8 623.6 c 256,26,27
 137.8 749 137.8 749 249.4 889.7 c 128,-1,28
 361 1030.4 361 1030.4 484.6 1030.4 c 256,29,30
 521.8 1030.4 521.8 1030.4 548.8 1011.8 c 1,31,-1
 560.8 1041.2 l 2,32,33
 566.2 1054.4 566.2 1054.4 618.7 1054.4 c 128,-1,34
 671.2 1054.4 671.2 1054.4 671.2 1033.4 c 0,35,36
 671.2 1029.2 671.2 1029.2 669.4 1022.6 c 2,37,-1
 551.2 632 l 2,0,1
499.6 855.8 m 10,38,-1
 529 951.8 l 1,39,40
 509.8 980 509.8 980 468.4 980 c 0,41,42
 403.6 980 403.6 980 337.3 866.6 c 128,-1,43
 271 753.2 271 753.2 271 660.2 c 256,44,45
 271 590 271 590 299.2 590 c 0,46,47
 330.4 590 330.4 590 375.1 638.9 c 128,-1,48
 419.8 687.8 419.8 687.8 451.6 745.4 c 128,-1,49
 483.4 803 483.4 803 499.6 855.8 c 10,38,-1
EndSplineSet
Comment: "last+AD0A-50" 
Colour: ffffff
EndChar

StartChar: guillemotleft
Encoding: 171 171 106
Width: 887
GlyphClass: 2
Flags: W
LayerCount: 2
Fore
SplineSet
372 94 m 2,0,1
 376 84 376 84 360.5 70.5 c 128,-1,2
 345 57 345 57 336.5 57 c 128,-1,3
 328 57 328 57 325 60 c 2,4,-1
 109 372 l 2,5,6
 96 391 96 391 96 417.5 c 128,-1,7
 96 444 96 444 138 478 c 2,8,-1
 521 790 l 2,9,10
 525 794 525 794 530 793 c 0,11,12
 553 793 553 793 553 769 c 0,13,14
 553 763 553 763 549 760 c 2,15,-1
 273 466 l 2,16,17
 248 440 248 440 248 414.5 c 128,-1,18
 248 389 248 389 255 373 c 2,19,-1
 372 94 l 2,0,1
723 94 m 2,20,21
 727 84 727 84 712 70.5 c 128,-1,22
 697 57 697 57 688 57 c 128,-1,23
 679 57 679 57 676 60 c 2,24,-1
 460 372 l 2,25,26
 447 391 447 391 447 417.5 c 128,-1,27
 447 444 447 444 489 478 c 2,28,-1
 872 790 l 2,29,30
 876 794 876 794 881 793 c 0,31,32
 904 793 904 793 904 769 c 0,33,34
 904 763 904 763 901 760 c 2,35,-1
 624 466 l 2,36,37
 599 440 599 440 599 414.5 c 128,-1,38
 599 389 599 389 606 373 c 2,39,-1
 723 94 l 2,20,21
EndSplineSet
Comment: "last+AD0A-39" 
Colour: ffffff
EndChar

StartChar: logicalnot
Encoding: 172 172 107
Width: 1366
GlyphClass: 2
Flags: W
LayerCount: 2
Fore
SplineSet
1366 0 m 1,0,-1
 1243 0 l 1,1,-1
 1243 537 l 1,2,-1
 0 537 l 1,3,-1
 0 657 l 1,4,-1
 1366 657 l 1,5,-1
 1366 0 l 1,0,-1
EndSplineSet
Comment: "last+AD0A-5" 
Colour: ffffff
EndChar

StartChar: uni00AD
Encoding: 173 173 108
Width: 827
GlyphClass: 2
Flags: W
LayerCount: 2
Fore
SplineSet
778 602 m 2,0,1
 784 602 784 602 784 583.5 c 128,-1,2
 784 565 784 565 769.5 526 c 128,-1,3
 755 487 755 487 743 487 c 2,4,-1
 172 487 l 2,5,6
 166 487 166 487 166 506 c 128,-1,7
 166 525 166 525 180 563.5 c 128,-1,8
 194 602 194 602 205 602 c 2,9,-1
 778 602 l 2,0,1
EndSplineSet
Comment: "last+AD0A-9" 
Colour: ffffff
EndChar

StartChar: registered
Encoding: 174 174 109
Width: 1565
GlyphClass: 2
Flags: W
LayerCount: 2
Fore
SplineSet
1516 748 m 128,-1,1
 1516 449 1516 449 1305 238 c 128,-1,2
 1094 27 1094 27 795 27 c 128,-1,3
 496 27 496 27 285 238 c 128,-1,4
 74 449 74 449 74 748 c 128,-1,5
 74 1047 74 1047 285 1257.5 c 128,-1,6
 496 1468 496 1468 795 1468 c 128,-1,7
 1094 1468 1094 1468 1305 1257.5 c 128,-1,0
 1516 1047 1516 1047 1516 748 c 128,-1,1
1445 746.5 m 128,-1,9
 1445 1017 1445 1017 1254.5 1207.5 c 128,-1,10
 1064 1398 1064 1398 795.5 1398 c 128,-1,11
 527 1398 527 1398 335.5 1206.5 c 128,-1,12
 144 1015 144 1015 144 747 c 128,-1,13
 144 479 144 479 335 288 c 128,-1,14
 526 97 526 97 796 97 c 128,-1,15
 1066 97 1066 97 1255.5 286.5 c 128,-1,8
 1445 476 1445 476 1445 746.5 c 128,-1,9
1083 918 m 0,16,17
 1083 774 1083 774 926 731 c 0,18,19
 917 729 917 729 917 721.5 c 128,-1,20
 917 714 917 714 926 700 c 0,21,22
 1001 566 1001 566 1118 455 c 0,23,24
 1178 398 1178 398 1218 398 c 0,25,26
 1226 398 1226 398 1226 389.5 c 128,-1,27
 1226 381 1226 381 1218 379 c 0,28,29
 1106 372 1106 372 1045 411.5 c 128,-1,30
 984 451 984 451 926 533 c 2,31,-1
 846 651 l 2,32,33
 809 697 809 697 800.5 703.5 c 128,-1,34
 792 710 792 710 761 710 c 128,-1,35
 730 710 730 710 711 711.5 c 128,-1,36
 692 713 692 713 691 700 c 2,37,-1
 691 489 l 2,38,39
 691 427 691 427 795 427 c 0,40,41
 803 427 803 427 803 406.5 c 128,-1,42
 803 386 803 386 795 386 c 1,43,44
 750 390 750 390 650 390 c 128,-1,45
 550 390 550 390 501 386 c 1,46,47
 493 386 493 386 493 406.5 c 128,-1,48
 493 427 493 427 501 427 c 0,49,50
 597 427 597 427 597 489 c 2,51,-1
 597 1019 l 2,52,53
 597 1077 597 1077 496 1077 c 0,54,55
 488 1077 488 1077 488 1097.5 c 128,-1,56
 488 1118 488 1118 496 1118 c 257,57,58
 566 1114 566 1114 640 1114 c 128,-1,59
 714 1114 714 1114 805 1117 c 1,60,61
 933 1117 933 1117 1008 1064.5 c 128,-1,62
 1083 1012 1083 1012 1083 918 c 0,16,17
975 918 m 0,63,64
 975 988 975 988 918.5 1036 c 128,-1,65
 862 1084 862 1084 776.5 1084 c 128,-1,66
 691 1084 691 1084 691 1068 c 2,67,-1
 691 768 l 2,68,69
 691 742 691 742 769 742 c 0,70,71
 975 742 975 742 975 918 c 0,63,64
EndSplineSet
Comment: "last+AD0A-71" 
Colour: ffffff
EndChar

StartChar: macron
Encoding: 175 175 110
Width: 608
GlyphClass: 2
Flags: W
LayerCount: 2
Fore
SplineSet
724 1064 m 2,0,-1
 278 1064 l 2,1,2
 271 1064 271 1064 271 1081.5 c 128,-1,3
 271 1099 271 1099 283 1128.5 c 128,-1,4
 295 1158 295 1158 306 1158 c 2,5,-1
 757 1158 l 2,6,7
 763 1158 763 1158 763 1143 c 128,-1,8
 763 1128 763 1128 749.5 1096 c 128,-1,9
 736 1064 736 1064 724 1064 c 2,0,-1
EndSplineSet
Comment: "last+AD0A-9" 
Colour: ffffff
EndChar

StartChar: degree
Encoding: 176 176 111
Width: 629
GlyphClass: 2
Flags: W
LayerCount: 2
Fore
SplineSet
489 1311 m 128,-1,1
 604 1311 604 1311 684 1237.5 c 128,-1,2
 764 1164 764 1164 764 1045 c 128,-1,3
 764 926 764 926 685.5 854 c 128,-1,4
 607 782 607 782 489.5 782 c 128,-1,5
 372 782 372 782 293.5 854 c 128,-1,6
 215 926 215 926 215 1045 c 128,-1,7
 215 1164 215 1164 294.5 1237.5 c 128,-1,0
 374 1311 374 1311 489 1311 c 128,-1,1
649 1047 m 128,-1,9
 649 1134 649 1134 603 1186.5 c 128,-1,10
 557 1239 557 1239 488.5 1239 c 128,-1,11
 420 1239 420 1239 375 1186.5 c 128,-1,12
 330 1134 330 1134 330 1047 c 128,-1,13
 330 960 330 960 375 907 c 128,-1,14
 420 854 420 854 489 854 c 128,-1,15
 558 854 558 854 603.5 907 c 128,-1,8
 649 960 649 960 649 1047 c 128,-1,9
EndSplineSet
Comment: "last+AD0A-15" 
Colour: ffffff
EndChar

StartChar: plusminus
Encoding: 177 177 112
Width: 1024
GlyphClass: 2
Flags: W
LayerCount: 2
Fore
SplineSet
907 596 m 1,0,-1
 573 596 l 1,1,-1
 573 225 l 1,2,-1
 453 225 l 1,3,-1
 453 596 l 1,4,-1
 119 596 l 1,5,-1
 119 696 l 1,6,-1
 453 696 l 1,7,-1
 453 1032 l 1,8,-1
 573 1032 l 1,9,-1
 573 696 l 1,10,-1
 907 696 l 1,11,-1
 907 596 l 1,0,-1
907 2 m 1,12,-1
 119 2 l 1,13,-1
 119 102 l 1,14,-1
 907 102 l 1,15,-1
 907 2 l 1,12,-1
EndSplineSet
Comment: "last+AD0A-15" 
Colour: ffffff
EndChar

StartChar: uni00B2
Encoding: 178 178 113
Width: 621
GlyphClass: 2
Flags: W
LayerCount: 2
Fore
SplineSet
261.5 659 m 0,0,1
 246.5 646 246.5 646 246.5 638 c 128,-1,2
 246.5 630 246.5 630 264.5 630 c 2,3,-1
 460.5 630 l 2,4,5
 565.5 630 565.5 630 616.5 668 c 0,6,7
 639.5 684 639.5 684 659.5 712 c 0,8,9
 662.5 717 662.5 717 678.5 716.5 c 128,-1,10
 694.5 716 694.5 716 694.5 704 c 0,11,12
 694.5 702 694.5 702 693.5 701 c 2,13,-1
 589.5 556 l 2,14,15
 573.5 534 573.5 534 549.5 535 c 9,16,17
 468.5 540 468.5 540 328 540 c 128,-1,18
 187.5 540 187.5 540 101.5 535 c 17,19,20
 79.5 535 79.5 535 79.5 555 c 0,21,22
 79.5 566 79.5 566 88.5 572 c 0,23,24
 275.5 726 275.5 726 403.5 852 c 128,-1,25
 531.5 978 531.5 978 597.5 1071 c 128,-1,26
 663.5 1164 663.5 1164 663.5 1232 c 256,27,28
 663.5 1286 663.5 1286 633 1311 c 128,-1,29
 602.5 1336 602.5 1336 557.5 1336 c 0,30,31
 461.5 1336 461.5 1336 362.5 1216 c 0,32,33
 359.5 1213 359.5 1213 350.5 1213 c 128,-1,34
 341.5 1213 341.5 1213 335 1220.5 c 128,-1,35
 328.5 1228 328.5 1228 328.5 1231 c 128,-1,36
 328.5 1234 328.5 1234 330.5 1236 c 0,37,38
 389.5 1313 389.5 1313 470.5 1366.5 c 128,-1,39
 551.5 1420 551.5 1420 637.5 1420 c 256,40,41
 708.5 1420 708.5 1420 749 1377 c 128,-1,42
 789.5 1334 789.5 1334 789.5 1267 c 0,43,44
 789.5 1173 789.5 1173 711 1072 c 128,-1,45
 632.5 971 632.5 971 261.5 659 c 0,0,1
EndSplineSet
Comment: "last+AD0A-45" 
Colour: ffffff
EndChar

StartChar: uni00B3
Encoding: 179 179 114
Width: 621
GlyphClass: 2
Flags: W
LayerCount: 2
Fore
SplineSet
699.5 886 m 0,0,1
 699.5 746 699.5 746 579 635.5 c 128,-1,2
 458.5 525 458.5 525 308.5 525 c 128,-1,3
 158.5 525 158.5 525 158.5 607 c 0,4,5
 158.5 638 158.5 638 183.5 655.5 c 128,-1,6
 208.5 673 208.5 673 229.5 673 c 256,7,8
 265.1796875 673 265.1796875 673 281.5 624 c 128,-1,9
 297.8203125 575 297.8203125 575 306 575 c 0,10,11
 448.5 575 448.5 575 515 671.5 c 128,-1,12
 581.5 768 581.5 768 581.5 859 c 0,13,14
 581.5 996 581.5 996 439.5 995 c 0,15,16
 400.5 995 400.5 995 362.5 985 c 0,17,18
 357.5 983.684570312 357.5 983.684570312 357.5 1000 c 0,19,20
 357.5 1015 357.5 1015 364.5 1026.5 c 128,-1,21
 371.5 1038 371.5 1038 376.5 1038 c 0,22,23
 484.5 1038 484.5 1038 571.5 1098 c 128,-1,24
 658.5 1158 658.5 1158 658.5 1256 c 0,25,26
 658.5 1303 658.5 1303 631.5 1326.5 c 128,-1,27
 604.5 1350 604.5 1350 564.5 1350 c 0,28,29
 494.5 1350 494.5 1350 403.5 1259 c 0,30,31
 401.5 1257 401.5 1257 394 1257 c 128,-1,32
 386.5 1257 386.5 1257 380.5 1267 c 128,-1,33
 374.5 1277 374.5 1277 374.5 1280 c 128,-1,34
 374.5 1283 374.5 1283 376.5 1286 c 0,35,36
 501.5 1419 501.5 1419 627.5 1420 c 0,37,38
 691.5 1420 691.5 1420 728 1382.5 c 128,-1,39
 764.5 1345 764.5 1345 764.5 1288 c 0,40,41
 764.5 1143.5 764.5 1143.5 589.5 1056 c 0,42,43
 563.5 1043 563.5 1043 563.5 1038.5 c 128,-1,44
 563.5 1034 563.5 1034 579.5 1030 c 0,45,46
 699.5 1003 699.5 1003 699.5 886 c 0,0,1
EndSplineSet
Comment: "last+AD0A-45" 
Colour: ffffff
EndChar

StartChar: acute
Encoding: 180 180 115
Width: 918
GlyphClass: 2
Flags: W
LayerCount: 2
Fore
SplineSet
673 1258 m 2,0,-1
 399 955 l 2,1,2
 375 929 375 929 350 929 c 128,-1,3
 325 929 325 929 325 948 c 128,-1,4
 325 967 325 967 338 985 c 2,5,-1
 586 1324 l 2,6,7
 592 1333 592 1333 612 1333 c 128,-1,8
 632 1333 632 1333 654 1306 c 128,-1,9
 676 1279 676 1279 676 1270 c 128,-1,10
 676 1261 676 1261 673 1258 c 2,0,-1
EndSplineSet
Comment: "last+AD0A-10" 
Colour: ffffff
EndChar

StartChar: uni00B5
Encoding: 181 181 116
Width: 991
GlyphClass: 2
Flags: W
LayerCount: 2
Fore
SplineSet
768 203 m 2,0,1
 756 161 756 161 756 141 c 0,2,3
 756 102 756 102 786 102 c 0,4,5
 822 102 822 102 915 195 c 0,6,7
 924 204 924 204 946 185 c 0,8,9
 967 168 967 168 957 157 c 0,10,11
 793 -27 793 -27 672 -27 c 0,12,13
 614 -27 614 -27 614 63 c 0,14,15
 614 99 614 99 625 137 c 2,16,-1
 707 424 l 1,17,18
 547 222 547 222 494 165 c 0,19,20
 318 -27 318 -27 231 -27 c 0,21,22
 217 -27 217 -27 202 -23 c 1,23,24
 174 -85 174 -85 160 -165.5 c 128,-1,25
 146 -246 146 -246 150 -299.5 c 128,-1,26
 154 -353 154 -353 154 -397 c 0,27,28
 154 -557 154 -557 8 -557 c 0,29,30
 -32 -556 -32 -556 -32 -528 c 0,31,32
 -32 -499 -32 -499 -20 -459 c 2,33,-1
 289 625 l 2,34,35
 295 646 295 646 295 666 c 0,36,37
 296 711 296 711 266 711 c 0,38,39
 244 711 244 711 158 625 c 0,40,41
 149 616 149 616 128 632 c 128,-1,42
 107 648 107 648 117 662 c 0,43,44
 271 852 271 852 385 852 c 0,45,46
 440 852 440 852 440 770 c 0,47,48
 440 725 440 725 430 690 c 2,49,-1
 328 334 l 2,50,51
 287 191 287 191 287 146 c 0,52,53
 287 102 287 102 315 102 c 0,54,55
 359 102 359 102 473 222 c 128,-1,56
 587 342 587 342 678.5 499.5 c 128,-1,57
 770 657 770 657 823 829 c 0,58,59
 830 852 830 852 891 852 c 128,-1,60
 952 852 952 852 945 828 c 2,61,-1
 768 203 l 2,0,1
EndSplineSet
Comment: "last+AD0A-61" 
Colour: ffffff
EndChar

StartChar: paragraph
Encoding: 182 182 117
Width: 997
GlyphClass: 2
Flags: W
LayerCount: 2
Fore
SplineSet
555 -283 m 2,0,1
 551 -299 551 -299 504.5 -299 c 128,-1,2
 458 -299 458 -299 462 -285 c 2,3,-1
 898 1324 l 2,4,5
 901 1335 901 1335 901 1348 c 0,6,7
 901 1398 901 1398 842 1398 c 0,8,9
 754 1398 754 1398 734 1324 c 2,10,-1
 298 -285 l 2,11,12
 294 -299 294 -299 248 -299 c 128,-1,13
 202 -299 202 -299 206 -285 c 2,14,-1
 469 677 l 1,15,16
 261 677 261 677 173.5 757.5 c 128,-1,17
 86 838 86 838 86 970 c 0,18,19
 86 1175 86 1175 265 1315.5 c 128,-1,20
 444 1456 444 1456 654 1456 c 9,21,22
 891 1452 891 1452 977 1452 c 128,-1,23
 1063 1452 1063 1452 1143 1456 c 1,24,25
 1153 1456 1153 1456 1153 1442.5 c 128,-1,26
 1153 1429 1153 1429 1148 1413 c 128,-1,27
 1143 1397 1143 1397 1128 1398 c 0,28,29
 1009 1398 1009 1398 989 1324 c 2,30,-1
 555 -283 l 2,0,1
EndSplineSet
Comment: "last+AD0A-30" 
Colour: ffffff
EndChar

StartChar: periodcentered
Encoding: 183 183 118
Width: 520
GlyphClass: 2
Flags: W
LayerCount: 2
Fore
SplineSet
438 515 m 128,-1,1
 438 463 438 463 403 431 c 128,-1,2
 368 399 368 399 320 399 c 128,-1,3
 272 399 272 399 233.5 431 c 128,-1,4
 195 463 195 463 195 515.5 c 128,-1,5
 195 568 195 568 228.5 602.5 c 128,-1,6
 262 637 262 637 317 637 c 128,-1,7
 372 637 372 637 405 602 c 128,-1,0
 438 567 438 567 438 515 c 128,-1,1
EndSplineSet
Comment: "last+AD0A-8" 
Colour: ffffff
EndChar

StartChar: cedilla
Encoding: 184 184 119
Width: 737
GlyphClass: 2
Flags: W
LayerCount: 2
Fore
SplineSet
383 -256 m 256,0,1
 383 -326 383 -326 317 -375 c 128,-1,2
 251 -424 251 -424 174 -424 c 0,3,4
 72 -424 72 -424 72 -358 c 0,5,6
 72 -309 72 -309 123 -309 c 0,7,8
 143 -309 143 -309 173 -339 c 128,-1,9
 203 -369 203 -369 215 -369 c 0,10,11
 272 -368 272 -368 272 -298 c 256,12,13
 272 -235 272 -235 181 -187 c 0,14,15
 160 -176 160 -176 173 -157 c 2,16,-1
 291 0 l 1,17,-1
 358 0 l 1,18,-1
 297 -80 l 2,19,20
 279 -103 279 -103 307 -125 c 0,21,22
 383 -186 383 -186 383 -256 c 256,0,1
EndSplineSet
Comment: "last+AD0A-22" 
Colour: ffffff
EndChar

StartChar: uni00B9
Encoding: 185 185 120
Width: 621
GlyphClass: 2
Flags: W
LayerCount: 2
Fore
SplineSet
515 713 m 22,0,1
 497 647 497 647 497 618 c 132,-1,2
 497 589 497 589 517.5 580.5 c 132,-1,3
 538 572 538 572 594 572 c 4,4,5
 601 572 601 572 601 562 c 132,-1,6
 601 552 601 552 598 543.5 c 132,-1,7
 595 535 595 535 585 535 c 5,8,9
 529 540 529 540 411 540 c 132,-1,10
 293 540 293 540 237 535 c 5,11,12
 230 535 230 535 230 545 c 132,-1,13
 230 555 230 555 233.5 563.5 c 132,-1,14
 237 572 237 572 247 572 c 4,15,16
 330 572 330 572 359 594.5 c 132,-1,17
 388 617 388 617 413 712 c 6,18,-1
 567 1286 l 6,19,20
 570 1298 570 1298 570 1304 c 4,21,22
 570 1316 570 1316 561.5 1316 c 132,-1,23
 553 1316 553 1316 544 1312 c 6,24,-1
 450 1274 l 6,25,26
 440 1270 440 1270 438 1284.5 c 132,-1,27
 436 1299 436 1299 445 1304 c 4,28,29
 551 1350 551 1350 693 1442 c 4,30,31
 702 1447 702 1447 708.5 1447 c 132,-1,32
 715 1447 715 1447 715 1440 c 5,33,34
 692 1375 692 1375 678 1324 c 6,35,-1
 515 713 l 22,0,1
EndSplineSet
Comment: "last+AD0A-35" 
Colour: ffffff
EndChar

StartChar: ordmasculine
Encoding: 186 186 121
Width: 568
GlyphClass: 2
Flags: W
LayerCount: 2
Fore
SplineSet
645.4 840.8 m 0,0,1
 645.4 715.4 645.4 715.4 556.3 611.6 c 128,-1,2
 467.2 507.8 467.2 507.8 334.6 507.8 c 0,3,4
 251.2 507.8 251.2 507.8 209.5 566.3 c 128,-1,5
 167.8 624.8 167.8 624.8 167.8 713 c 0,6,7
 167.8 827.6 167.8 827.6 265.3 931.4 c 128,-1,8
 362.8 1035.2 362.8 1035.2 478.6 1035.2 c 0,9,10
 562 1035.2 562 1035.2 603.7 981.2 c 128,-1,11
 645.4 927.2 645.4 927.2 645.4 840.8 c 0,0,1
538.6 901.4 m 0,12,13
 538.6 972.8 538.6 972.8 484.6 972.8 c 0,14,15
 421.6 972.8 421.6 972.8 349.3 852.2 c 128,-1,16
 277 731.6 277 731.6 277 645.8 c 0,17,18
 277 575.6 277 575.6 334.6 575.6 c 0,19,20
 391.6 575.6 391.6 575.6 465.1 696.2 c 128,-1,21
 538.6 816.8 538.6 816.8 538.6 901.4 c 0,12,13
EndSplineSet
Comment: "last+AD0A-21" 
Colour: ffffff
EndChar

StartChar: guillemotright
Encoding: 187 187 122
Width: 803
GlyphClass: 2
Flags: W
LayerCount: 2
Fore
SplineSet
565 756 m 2,0,1
 561 766 561 766 576 779.5 c 128,-1,2
 591 793 591 793 600 793 c 128,-1,3
 609 793 609 793 612 790 c 2,4,-1
 828 478 l 2,5,6
 841 459 841 459 841 432.5 c 128,-1,7
 841 406 841 406 799 372 c 2,8,-1
 416 60 l 2,9,10
 412 56 412 56 406 57 c 0,11,12
 383 57 383 57 384 81 c 0,13,14
 384 87 384 87 387 90 c 2,15,-1
 664 384 l 2,16,17
 689 410 689 410 689 435.5 c 128,-1,18
 689 461 689 461 682 477 c 2,19,-1
 565 756 l 2,0,1
214 756 m 2,20,21
 210 766 210 766 225 779.5 c 128,-1,22
 240 793 240 793 249 793 c 128,-1,23
 258 793 258 793 260 790 c 2,24,-1
 476 478 l 2,25,26
 489 459 489 459 489.5 432.5 c 128,-1,27
 490 406 490 406 448 372 c 2,28,-1
 65 60 l 2,29,30
 61 56 61 56 55 57 c 0,31,32
 32 57 32 57 32 81 c 0,33,34
 32 87 32 87 36 90 c 2,35,-1
 313 384 l 2,36,37
 338 410 338 410 338 435.5 c 128,-1,38
 338 461 338 461 331 477 c 2,39,-1
 214 756 l 2,20,21
EndSplineSet
Comment: "last+AD0A-39" 
Colour: ffffff
EndChar

StartChar: onequarter
Encoding: 188 188 123
Width: 1690
GlyphClass: 2
Flags: W
LayerCount: 2
Fore
SplineSet
1405 78 m 2,0,1
 1403 71 1403 71 1403 65 c 0,2,3
 1403 29 1403 29 1467 29 c 0,4,5
 1473 29 1473 29 1473.5 19 c 128,-1,6
 1474 9 1474 9 1471 1 c 128,-1,7
 1468 -7 1468 -7 1458 -7 c 1,8,9
 1404 -2 1404 -2 1321.5 -2 c 128,-1,10
 1239 -2 1239 -2 1186 -7 c 1,11,12
 1180 -7 1180 -7 1179.5 3 c 128,-1,13
 1179 13 1179 13 1182.5 21 c 128,-1,14
 1186 29 1186 29 1195 29 c 0,15,16
 1295 29 1295 29 1308 78 c 2,17,-1
 1350 233 l 2,18,19
 1353 246 1353 246 1340 246 c 2,20,-1
 1038 246 l 2,21,22
 1001 246 1001 246 1001 264 c 128,-1,23
 1001 282 1001 282 1046 327 c 2,24,-1
 1238 518 l 2,25,26
 1472 752 1472 752 1606 900 c 0,27,28
 1615 908 1615 908 1640 908 c 128,-1,29
 1665 908 1665 908 1665 893 c 0,30,31
 1665 890 1665 890 1664 889 c 2,32,-1
 1103 321 l 2,33,34
 1094 312 1094 312 1094 306 c 128,-1,35
 1094 300 1094 300 1108 300 c 2,36,-1
 1355 300 l 2,37,38
 1368 300 1368 300 1371 313 c 2,39,-1
 1446 595 l 2,40,41
 1449 604 1449 604 1496.5 604 c 128,-1,42
 1544 604 1544 604 1544 595 c 2,43,-1
 1469 313 l 2,44,45
 1465 300 1465 300 1478 300 c 2,46,-1
 1553 300 l 2,47,48
 1558 300 1558 300 1558 285.5 c 128,-1,49
 1558 271 1558 271 1550.5 258.5 c 128,-1,50
 1543 246 1543 246 1538 246 c 2,51,-1
 1463 246 l 2,52,53
 1450 246 1450 246 1447 233 c 2,54,-1
 1405 78 l 2,0,1
391 687 m 18,55,56
 374 625 374 625 374 598 c 128,-1,57
 374 571 374 571 393.5 563 c 128,-1,58
 413 555 413 555 466 555 c 0,59,60
 472 555 472 555 472 546 c 128,-1,61
 472 537 472 537 469.5 528.5 c 128,-1,62
 467 520 467 520 457 520 c 1,63,64
 404 525 404 525 293.5 525 c 128,-1,65
 183 525 183 525 130 520 c 1,66,67
 124 520 124 520 124 529.5 c 128,-1,68
 124 539 124 539 127 547 c 128,-1,69
 130 555 130 555 140 555 c 0,70,71
 218 555 218 555 245 576.5 c 128,-1,72
 272 598 272 598 296 686 c 2,73,-1
 440 1226 l 2,74,75
 443 1237 443 1237 443 1243 c 0,76,77
 443 1254 443 1254 435.5 1254 c 128,-1,78
 428 1254 428 1254 418 1250 c 2,79,-1
 330 1214 l 2,80,81
 321 1210 321 1210 319 1224 c 128,-1,82
 317 1238 317 1238 325 1242 c 0,83,84
 425 1285 425 1285 559 1372 c 0,85,86
 568 1377 568 1377 574 1377 c 128,-1,87
 580 1377 580 1377 580 1371 c 1,88,89
 558 1310 558 1310 545 1262 c 2,90,-1
 391 687 l 18,55,56
329 -82 m 2,91,92
 324 -88 324 -88 312 -88 c 128,-1,93
 300 -88 300 -88 284.5 -72 c 128,-1,94
 269 -56 269 -56 269 -44.5 c 128,-1,95
 269 -33 269 -33 273 -29 c 2,96,-1
 1414 1339 l 2,97,98
 1418 1343 1418 1343 1428.5 1343 c 128,-1,99
 1439 1343 1439 1343 1457.5 1326.5 c 128,-1,100
 1476 1310 1476 1310 1476 1301 c 128,-1,101
 1476 1292 1476 1292 1473 1288 c 2,102,-1
 329 -82 l 2,91,92
EndSplineSet
LCarets2: 2 0 0 
Ligature2: "'frac' Diagonal Fractions in Latin lookup 2" one fraction four
Ligature2: "'frac' Diagonal Fractions in Latin lookup 2" one slash four
EndChar

StartChar: onehalf
Encoding: 189 189 124
Width: 1690
GlyphClass: 2
Flags: W
LayerCount: 2
Fore
SplineSet
1145 110 m 0,0,1
 1131 98 1131 98 1131 90.5 c 128,-1,2
 1131 83 1131 83 1147 83 c 2,3,-1
 1332 83 l 2,4,5
 1431 83 1431 83 1479 119 c 0,6,7
 1501 135 1501 135 1520 160 c 0,8,9
 1522 164 1522 164 1537.5 164 c 128,-1,10
 1553 164 1553 164 1553 152 c 0,11,12
 1553 150 1553 150 1552 150 c 2,13,-1
 1454 14 l 2,14,15
 1439 -7 1439 -7 1416 -7 c 9,16,17
 1340 -2 1340 -2 1207.5 -2 c 128,-1,18
 1075 -2 1075 -2 994 -7 c 17,19,20
 973 -7 973 -7 973 12 c 0,21,22
 973 22 973 22 982 28 c 0,23,24
 1159 173 1159 173 1279 291.5 c 128,-1,25
 1399 410 1399 410 1461.5 498 c 128,-1,26
 1524 586 1524 586 1524 650 c 256,27,28
 1524 701 1524 701 1495 724.5 c 128,-1,29
 1466 748 1466 748 1423 748 c 0,30,31
 1332 748 1332 748 1240 635 c 0,32,33
 1237 632 1237 632 1229 632 c 128,-1,34
 1221 632 1221 632 1214.5 639.5 c 128,-1,35
 1208 647 1208 647 1208 649.5 c 128,-1,36
 1208 652 1208 652 1210 653 c 0,37,38
 1265 726 1265 726 1341.5 776.5 c 128,-1,39
 1418 827 1418 827 1499 827 c 256,40,41
 1566 827 1566 827 1604 786.5 c 128,-1,42
 1642 746 1642 746 1642 683 c 0,43,44
 1642 595 1642 595 1568.5 499.5 c 128,-1,45
 1495 404 1495 404 1145 110 c 0,0,1
397 688 m 18,46,47
 380 625 380 625 380 597.5 c 128,-1,48
 380 570 380 570 399.5 562.5 c 128,-1,49
 419 555 419 555 473 555 c 0,50,51
 479 555 479 555 479 545.5 c 128,-1,52
 479 536 479 536 476 527.5 c 128,-1,53
 473 519 473 519 463 519 c 1,54,55
 410 524 410 524 298 524 c 128,-1,56
 186 524 186 524 133 519 c 1,57,58
 127 519 127 519 127 528.5 c 128,-1,59
 127 538 127 538 130 546.5 c 128,-1,60
 133 555 133 555 143 555 c 0,61,62
 222 555 222 555 249 576 c 128,-1,63
 276 597 276 597 300 687 c 2,64,-1
 446 1234 l 2,65,66
 449 1245 449 1245 450 1250 c 0,67,68
 450 1261 450 1261 442 1261.5 c 128,-1,69
 434 1262 434 1262 424 1257 c 2,70,-1
 335 1222 l 2,71,72
 326 1218 326 1218 324 1232 c 128,-1,73
 322 1246 322 1246 330 1250 c 0,74,75
 431 1294 431 1294 567 1381 c 0,76,77
 576 1386 576 1386 581.5 1386 c 128,-1,78
 587 1386 587 1386 587 1380 c 1,79,80
 565 1318 565 1318 552 1269 c 2,81,-1
 397 688 l 18,46,47
292 -82 m 2,82,83
 287 -88 287 -88 275 -88 c 128,-1,84
 263 -88 263 -88 247.5 -72 c 128,-1,85
 232 -56 232 -56 232 -44.5 c 128,-1,86
 232 -33 232 -33 236 -29 c 2,87,-1
 1377 1339 l 2,88,89
 1381 1343 1381 1343 1391.5 1343 c 128,-1,90
 1402 1343 1402 1343 1420.5 1326.5 c 128,-1,91
 1439 1310 1439 1310 1439 1301 c 128,-1,92
 1439 1292 1439 1292 1436 1288 c 2,93,-1
 292 -82 l 2,82,83
EndSplineSet
LCarets2: 2 0 0 
Ligature2: "'frac' Diagonal Fractions in Latin lookup 2" one fraction two
Ligature2: "'frac' Diagonal Fractions in Latin lookup 2" one slash two
EndChar

StartChar: threequarters
Encoding: 190 190 125
Width: 1690
GlyphClass: 2
Flags: W
LayerCount: 2
Fore
SplineSet
620 807 m 0,0,1
 620 665 620 665 498 553.5 c 128,-1,2
 376 442 376 442 223.5 442 c 128,-1,3
 71 442 71 442 71 525 c 0,4,5
 71 556 71 556 96.5 573.5 c 128,-1,6
 122 591 122 591 143 591 c 256,7,8
 164 591 164 591 196 541.5 c 128,-1,9
 228 492 228 492 280 492 c 0,10,11
 365 492 365 492 432.5 590 c 128,-1,12
 500 688 500 688 500 780 c 0,13,14
 500 918 500 918 356 918 c 0,15,16
 312 918 312 918 278 908 c 0,17,18
 273 908 273 908 273 923 c 128,-1,19
 273 938 273 938 280 949.5 c 128,-1,20
 287 961 287 961 292 961 c 0,21,22
 402 961 402 961 490 1022 c 128,-1,23
 578 1083 578 1083 578 1183 c 0,24,25
 578 1230 578 1230 551 1254 c 128,-1,26
 524 1278 524 1278 483 1278 c 0,27,28
 403 1278 403 1278 320 1186 c 0,29,30
 318 1184 318 1184 310.5 1184 c 128,-1,31
 303 1184 303 1184 296.5 1193.5 c 128,-1,32
 290 1203 290 1203 290 1206.5 c 128,-1,33
 290 1210 290 1210 292 1213 c 0,34,35
 419 1348 419 1348 546 1349 c 0,36,37
 611 1349 611 1349 648 1311 c 128,-1,38
 685 1273 685 1273 685 1215 c 0,39,40
 685 1065 685 1065 508 980 c 0,41,42
 481 967 481 967 481 962 c 128,-1,43
 481 957 481 957 498 953 c 0,44,45
 620 925 620 925 620 807 c 0,0,1
336 -82 m 2,46,47
 331 -88 331 -88 319 -88 c 128,-1,48
 307 -88 307 -88 291.5 -72 c 128,-1,49
 276 -56 276 -56 276 -44.5 c 128,-1,50
 276 -33 276 -33 280 -29 c 2,51,-1
 1421 1339 l 2,52,53
 1425 1343 1425 1343 1435.5 1343 c 128,-1,54
 1446 1343 1446 1343 1464.5 1326.5 c 128,-1,55
 1483 1310 1483 1310 1483 1301 c 128,-1,56
 1483 1292 1483 1292 1480 1288 c 2,57,-1
 336 -82 l 2,46,47
1304 87 m 2,58,59
 1302 79 1302 79 1303 73 c 0,60,61
 1303 34 1303 34 1361 34 c 0,62,63
 1367 34 1367 34 1366.5 23 c 128,-1,64
 1366 12 1366 12 1363.5 3.5 c 128,-1,65
 1361 -5 1361 -5 1352 -5 c 1,66,67
 1303 0 1303 0 1228 0 c 128,-1,68
 1153 0 1153 0 1104 -5 c 1,69,70
 1098 -5 1098 -5 1098.5 6 c 128,-1,71
 1099 17 1099 17 1102 25.5 c 128,-1,72
 1105 34 1105 34 1113 34 c 0,73,74
 1204 34 1204 34 1216 87 c 2,75,-1
 1254 255 l 2,76,77
 1257 269 1257 269 1245 269 c 2,78,-1
 970 269 l 2,79,80
 936 269 936 269 936 288.5 c 128,-1,81
 936 308 936 308 978 357 c 2,82,-1
 1152 564 l 2,83,84
 1364 818 1364 818 1487 979 c 0,85,86
 1495 987 1495 987 1517.5 987 c 128,-1,87
 1540 987 1540 987 1540 971 c 0,88,89
 1540 968 1540 968 1540 967 c 2,90,-1
 1029 350 l 2,91,92
 1021 340 1021 340 1021 334 c 128,-1,93
 1021 328 1021 328 1034 328 c 2,94,-1
 1258 328 l 2,95,96
 1270 328 1270 328 1273 342 c 2,97,-1
 1342 647 l 2,98,99
 1344 657 1344 657 1387 657.5 c 128,-1,100
 1430 658 1430 658 1430 647 c 2,101,-1
 1362 342 l 2,102,103
 1359 328 1359 328 1370 328 c 2,104,-1
 1438 328 l 2,105,106
 1443 328 1443 328 1443 312 c 128,-1,107
 1443 296 1443 296 1436 282.5 c 128,-1,108
 1429 269 1429 269 1425 269 c 2,109,-1
 1357 269 l 2,110,111
 1345 269 1345 269 1342 255 c 2,112,-1
 1304 87 l 2,58,59
EndSplineSet
LCarets2: 2 0 0 
Ligature2: "'frac' Diagonal Fractions in Latin lookup 2" three fraction four
Ligature2: "'frac' Diagonal Fractions in Latin lookup 2" three slash four
EndChar

StartChar: questiondown
Encoding: 191 191 126
Width: 678
GlyphClass: 2
Flags: W
LayerCount: 2
Fore
SplineSet
593 748 m 128,-1,1
 593 705 593 705 561 667 c 128,-1,2
 529 629 529 629 469 629 c 128,-1,3
 409 629 409 629 379.5 667.5 c 128,-1,4
 350 706 350 706 350 754.5 c 128,-1,5
 350 803 350 803 383.5 834 c 128,-1,6
 417 865 417 865 474 865 c 128,-1,7
 531 865 531 865 562 828 c 128,-1,0
 593 791 593 791 593 748 c 128,-1,1
262 -420 m 0,8,9
 262 -464 262 -464 226 -493 c 128,-1,10
 190 -522 190 -522 150 -522 c 0,11,12
 47 -522 47 -522 -28.5 -428 c 128,-1,13
 -104 -334 -104 -334 -104 -219 c 256,14,15
 -104 -104 -104 -104 -51.5 -13 c 128,-1,16
 1 78 1 78 47 99 c 2,17,-1
 238 187 l 2,18,19
 326 227 326 227 338 277 c 0,20,21
 354 322 354 322 355 402 c 0,22,23
 355 415 355 415 377.5 419.5 c 128,-1,24
 400 424 400 424 402 414 c 0,25,26
 426 326 426 326 426 265 c 0,27,28
 426 128 426 128 260 52 c 2,29,-1
 140 -4 l 2,30,31
 -30 -82 -30 -82 -30 -215 c 0,32,33
 -30 -354 -30 -354 213 -354 c 0,34,35
 229 -354 229 -354 245.5 -373.5 c 128,-1,36
 262 -393 262 -393 262 -420 c 0,8,9
EndSplineSet
Comment: "last+AD0A-36" 
Colour: ffffff
EndChar

StartChar: Aring
Encoding: 197 197 132
Width: 1108
GlyphClass: 2
Flags: W
LayerCount: 2
Fore
SplineSet
909 186 m 2,0,1
 908 179 908 179 908 165 c 0,2,3
 908 69 908 69 1052 69 c 0,4,5
 1060 69 1060 69 1060 48 c 128,-1,6
 1060 27 1060 27 1051 10 c 128,-1,7
 1042 -7 1042 -7 1032 -7 c 1,8,9
 944 0 944 0 819 0 c 128,-1,10
 694 0 694 0 607 -7 c 1,11,12
 600 -7 600 -7 600 13.5 c 128,-1,13
 600 34 600 34 611 51.5 c 128,-1,14
 622 69 622 69 629 69 c 0,15,16
 705 69 705 69 735.5 97.5 c 128,-1,17
 766 126 766 126 773 186 c 10,18,-1
 810 496 l 2,19,20
 814 531 814 531 782 531 c 2,21,-1
 472 531 l 2,22,23
 441 531 441 531 424 506 c 2,24,-1
 214 182 l 2,25,26
 191 147 191 147 191 124 c 0,27,28
 191 69 191 69 323 69 c 0,29,30
 330 69 330 69 330 48 c 128,-1,31
 330 27 330 27 319 10 c 128,-1,32
 308 -7 308 -7 302 -7 c 1,33,34
 216 0 216 0 89 0 c 128,-1,35
 -38 0 -38 0 -124 -7 c 1,36,37
 -132 -7 -132 -7 -132 13 c 128,-1,38
 -132 33 -132 33 -121 51 c 128,-1,39
 -110 69 -110 69 -104 69 c 0,40,41
 -28 69 -28 69 22 91 c 128,-1,42
 72 113 72 113 132 201 c 2,43,-1
 914 1359 l 1,44,45
 828 1412 828 1412 828 1512 c 0,46,47
 828 1583 828 1583 883 1637.5 c 128,-1,48
 938 1692 938 1692 1024 1692 c 256,49,50
 1108 1692 1108 1692 1159 1637.5 c 0,51,52
 1210 1584 1210 1584 1210 1500 c 256,53,54
 1210 1440 1210 1440 1162.5 1390.5 c 128,-1,55
 1115 1341 1115 1341 1050 1332 c 1,56,57
 1035 1243 1035 1243 1026 1179 c 2,58,-1
 909 186 l 2,0,1
1120 1512 m 128,-1,60
 1120 1560 1120 1560 1093 1595 c 128,-1,61
 1066 1630 1066 1630 1019 1630 c 256,62,63
 972 1630 972 1630 945 1594.5 c 128,-1,64
 918 1559 918 1559 918 1512 c 0,65,66
 918 1458 918 1458 948.5 1425.5 c 128,-1,67
 979 1393 979 1393 1019 1393 c 0,68,69
 1069 1393 1069 1393 1094.5 1428.5 c 128,-1,59
 1120 1464 1120 1464 1120 1512 c 128,-1,60
824 629 m 2,70,-1
 886 1159 l 1,71,72
 886 1168 886 1168 874 1168 c 128,-1,73
 862 1168 862 1168 856 1159 c 2,74,-1
 503 629 l 2,75,76
 484 600 484 600 514 600 c 2,77,-1
 789 600 l 2,78,79
 820 600 820 600 824 629 c 2,70,-1
EndSplineSet
LCarets2: 1 0 
Comment: "last+AD0A-79" 
Colour: ffffff
EndChar

StartChar: AE
Encoding: 198 198 133
Width: 1780
GlyphClass: 2
Flags: W
AnchorPoint: "above" 1456 1415 basechar 0
LayerCount: 2
Fore
SplineSet
1608 19 m 2,0,1
 1600 -7 1600 -7 1580 -7 c 2,2,-1
 1505 -7 l 1,3,4
 1098 0 1098 0 828 0 c 0,5,6
 678 0 678 0 563 -7 c 1,7,8
 556 -7 556 -7 556 14.5 c 128,-1,9
 556 36 556 36 566.5 52.5 c 128,-1,10
 577 69 577 69 583 69 c 0,11,12
 679 69 679 69 722 89 c 128,-1,13
 765 109 765 109 785 177 c 10,14,-1
 898 570 l 2,15,16
 903 586 903 586 903 595 c 0,17,18
 903 607 903 607 880 607 c 2,19,-1
 552 607 l 2,20,21
 527 607 527 607 514 590 c 2,22,-1
 182 168 l 2,23,24
 151 129 151 129 151 103.5 c 128,-1,25
 151 78 151 78 184 73.5 c 128,-1,26
 217 69 217 69 290 69 c 0,27,28
 298 69 298 69 298 48 c 128,-1,29
 298 27 298 27 287 10 c 128,-1,30
 276 -7 276 -7 270 -7 c 1,31,32
 183 0 183 0 63 0 c 128,-1,33
 -57 0 -57 0 -151 -7 c 1,34,35
 -159 -7 -159 -7 -159 13.5 c 128,-1,36
 -159 34 -159 34 -148 51.5 c 128,-1,37
 -137 69 -137 69 -130 69 c 0,38,39
 -47 69 -47 69 -7.5 94 c 128,-1,40
 32 119 32 119 97 195 c 2,41,-1
 949 1196 l 2,42,43
 982 1235 982 1235 982 1254 c 0,44,45
 982 1282 982 1282 908 1282 c 0,46,47
 898 1282 898 1282 898 1303 c 128,-1,48
 898 1324 898 1324 909.5 1341 c 128,-1,49
 921 1358 921 1358 928 1358 c 1,50,51
 1083 1354 1083 1354 1192 1354 c 0,52,53
 1464 1354 1464 1354 1841 1358 c 17,54,55
 1903 1358 1903 1358 1903 1338 c 0,56,57
 1903 1332 1903 1332 1901 1325 c 2,58,-1
 1808 1006 l 2,59,60
 1804 992 1804 992 1763 992 c 128,-1,61
 1722 992 1722 992 1726 1006 c 0,62,63
 1744 1078 1744 1078 1744 1117 c 0,64,65
 1744 1279 1744 1279 1545 1283 c 2,66,-1
 1268 1289 l 2,67,68
 1247 1289 1247 1289 1241 1267 c 2,69,-1
 1081 708 l 2,70,71
 1078 697 1078 697 1078 690 c 0,72,73
 1078 676 1078 676 1099 676 c 2,74,-1
 1320 676 l 2,75,76
 1384 676 1384 676 1406 690 c 128,-1,77
 1428 704 1428 704 1444 764 c 2,78,-1
 1471 864 l 2,79,80
 1475 879 1475 879 1511 879 c 128,-1,81
 1547 879 1547 879 1544 864 c 1,82,83
 1459 617 1459 617 1421 436 c 1,84,85
 1418 421 1418 421 1384 421 c 128,-1,86
 1350 421 1350 421 1353 433 c 2,87,-1
 1379 527 l 2,88,89
 1390 567 1390 567 1390 575 c 0,90,91
 1390 607 1390 607 1299 607 c 2,92,-1
 1079 607 l 2,93,94
 1052 607 1052 607 1045 583 c 2,95,-1
 964 300 l 2,96,97
 937 206 937 206 937 161 c 0,98,99
 937 62 937 62 1050 62 c 2,100,-1
 1062 62 l 2,101,-1
 1291 69 l 2,102,103
 1542 77 1542 77 1620 344 c 0,104,105
 1625 358 1625 358 1665.5 357.5 c 128,-1,106
 1706 357 1706 357 1702 344 c 2,107,-1
 1608 19 l 2,0,1
936 700 m 2,108,-1
 1077 1196 l 2,109,110
 1080 1205 1080 1205 1080 1216.5 c 128,-1,111
 1080 1228 1080 1228 1067 1228 c 128,-1,112
 1054 1228 1054 1228 1033 1203 c 2,113,-1
 609 698 l 2,114,115
 602 690 602 690 602.5 682.5 c 128,-1,116
 603 675 603 675 617 676 c 2,117,-1
 904 676 l 2,118,119
 930 676 930 676 936 700 c 2,108,-1
EndSplineSet
Substitution2: "'swsh' Swash in Latin lookup 14" AE.swash
Comment: "last+AD0A-119" 
Colour: ffffff
EndChar

StartChar: Ccedilla
Encoding: 199 199 134
Width: 1470
GlyphClass: 2
Flags: W
LayerCount: 2
Fore
SplineSet
1183 36 m 1,0,1
 1149 31 1149 31 1101 19 c 0,2,3
 959 -19 959 -19 789 -25 c 1,4,-1
 747 -80 l 2,5,6
 729 -103 729 -103 757 -125 c 0,7,8
 833 -186 833 -186 833 -256.5 c 128,-1,9
 833 -327 833 -327 767 -375.5 c 128,-1,10
 701 -424 701 -424 624 -424 c 0,11,12
 522 -424 522 -424 522 -358 c 0,13,14
 522 -309 522 -309 573 -309 c 0,15,16
 593 -309 593 -309 623 -339 c 128,-1,17
 653 -369 653 -369 665 -369 c 0,18,19
 722 -368 722 -368 722 -298 c 0,20,21
 722 -235 722 -235 631 -187 c 0,22,23
 610 -176 610 -176 623 -157 c 2,24,-1
 721 -27 l 1,25,26
 717 -27 717 -27 712 -27 c 0,27,28
 497 -27 497 -27 356 103 c 128,-1,29
 215 233 215 233 215 458 c 0,30,31
 215 813 215 813 505.5 1099 c 128,-1,32
 796 1385 796 1385 1149 1385 c 0,33,34
 1296 1385 1296 1385 1387.5 1363.5 c 128,-1,35
 1479 1342 1479 1342 1573 1327 c 1,36,37
 1558 1169 1558 1169 1514 1019 c 1,38,39
 1506 1002 1506 1002 1474.5 1002 c 128,-1,40
 1443 1002 1443 1002 1444 1014 c 0,41,42
 1452 1074 1452 1074 1452 1092 c 0,43,44
 1452 1194 1452 1194 1377 1254 c 128,-1,45
 1302 1314 1302 1314 1134 1314 c 0,46,47
 816 1314 816 1314 597 1041 c 128,-1,48
 378 768 378 768 378 459 c 0,49,50
 378 283 378 283 480 165.5 c 128,-1,51
 582 48 582 48 755 48 c 0,52,53
 930 48 930 48 1048 103 c 128,-1,54
 1166 158 1166 158 1214 218.5 c 128,-1,55
 1262 279 1262 279 1285 317 c 0,56,57
 1292 327 1292 327 1321 327 c 128,-1,58
 1350 327 1350 327 1350 307.5 c 128,-1,59
 1350 288 1350 288 1279 176 c 128,-1,60
 1208 64 1208 64 1183 36 c 1,0,1
EndSplineSet
Ligature2: "'ccmp' Glyph Composition/Decomposition in Latin single" C uni0327
LCarets2: 1 0 
EndChar

StartChar: Eth
Encoding: 208 208 143
Width: 1514
GlyphClass: 2
Flags: W
AnchorPoint: "above" 1030 1415 basechar 0
LayerCount: 2
Fore
SplineSet
1566 904 m 0,0,1
 1566 577 1566 577 1299.5 285 c 128,-1,2
 1033 -7 1033 -7 672 -7 c 0,3,4
 587 -7 587 -7 476.5 -3.5 c 128,-1,5
 366 0 366 0 259.5 0 c 128,-1,6
 153 0 153 0 29 -7 c 17,7,8
 21 -7 21 -7 21 13 c 128,-1,9
 21 33 21 33 32 51 c 128,-1,10
 43 69 43 69 49 69 c 0,11,12
 143 69 143 69 193 91 c 128,-1,13
 243 113 243 113 264 186 c 10,14,-1
 386 609 l 2,15,16
 393 634 393 634 368 634 c 2,17,-1
 173 634 l 2,18,19
 159 634 159 634 159 661 c 128,-1,20
 159 688 159 688 173 699 c 128,-1,21
 187 710 187 710 195 710 c 2,22,-1
 390 710 l 2,23,24
 413 710 413 710 421 733 c 2,25,-1
 547 1172 l 2,26,27
 552 1195 552 1195 552 1209 c 0,28,29
 552 1282 552 1282 390 1282 c 0,30,31
 382 1282 382 1282 382 1303 c 128,-1,32
 382 1324 382 1324 393 1341 c 128,-1,33
 404 1358 404 1358 410 1358 c 1,34,35
 543 1354 543 1354 635 1354 c 128,-1,36
 727 1354 727 1354 823 1356 c 128,-1,37
 919 1358 919 1358 1017 1358 c 0,38,39
 1264 1358 1264 1358 1415 1239 c 128,-1,40
 1566 1120 1566 1120 1566 904 c 0,0,1
1404 880 m 0,41,42
 1404 1067 1404 1067 1278 1182 c 128,-1,43
 1152 1297 1152 1297 915 1297 c 0,44,45
 794 1297 794 1297 753.5 1273 c 128,-1,46
 713 1249 713 1249 693 1181 c 10,47,-1
 563 733 l 2,48,49
 556 710 556 710 583 710 c 2,50,-1
 813 710 l 2,51,52
 831 710 831 710 831 685 c 128,-1,53
 831 660 831 660 816 647 c 128,-1,54
 801 634 801 634 793 634 c 2,55,-1
 561 634 l 2,56,57
 534 634 534 634 527 607 c 2,58,-1
 439 298 l 2,59,60
 420 228 420 228 420 181 c 0,61,62
 420 114 420 114 464.5 83.5 c 128,-1,63
 509 53 509 53 621 53 c 0,64,65
 927 53 927 53 1165.5 317.5 c 128,-1,66
 1404 582 1404 582 1404 880 c 0,41,42
EndSplineSet
Comment: "last+AD0A-64" 
Colour: ffffff
EndChar

StartChar: multiply
Encoding: 215 215 150
Width: 973
GlyphClass: 2
Flags: W
LayerCount: 2
Fore
SplineSet
924 721 m 1,0,-1
 621 412 l 1,1,-1
 924 104 l 1,2,-1
 848 23 l 1,3,-1
 543 334 l 1,4,-1
 240 23 l 1,5,-1
 164 104 l 1,6,-1
 465 412 l 1,7,-1
 164 715 l 1,8,-1
 240 797 l 1,9,-1
 543 489 l 1,10,-1
 848 801 l 1,11,-1
 924 721 l 1,0,-1
EndSplineSet
Comment: "last+AD0A-11" 
Colour: ffffff
EndChar

StartChar: Oslash
Encoding: 216 216 151
Width: 1478
GlyphClass: 2
Flags: W
AnchorPoint: "above" 1084 1415 basechar 0
LayerCount: 2
Fore
SplineSet
1544 1376 m 2,0,-1
 1417 1240 l 1,1,-1
 1423 1232 l 2,2,3
 1534 1097 1534 1097 1534 886 c 0,4,5
 1534 536 1534 536 1249 244 c 0,6,7
 984 -27 984 -27 672 -27 c 0,8,9
 486 -27 486 -27 349 91 c 1,10,-1
 186 -84 l 2,11,12
 183 -87 183 -87 179 -87 c 0,13,14
 166 -87 166 -87 147 -68 c 0,15,16
 128 -50 128 -50 128 -37 c 0,17,18
 128 -34 128 -34 130 -32 c 2,19,-1
 298 148 l 1,20,21
 217 264 217 264 217 441 c 0,22,23
 217 831 217 831 543 1143 c 0,24,25
 797 1385 797 1385 1079 1385 c 0,26,27
 1251 1385 1251 1385 1363 1294 c 1,28,-1
 1488 1427 l 2,29,30
 1490 1429 1490 1429 1493 1429 c 0,31,32
 1506 1429 1506 1429 1526 1410 c 0,33,34
 1545 1394 1545 1394 1545 1381 c 0,35,36
 1545 1377 1545 1377 1544 1376 c 2,0,-1
1274 1198 m 1,37,38
 1181 1313 1181 1313 1039 1315 c 0,39,40
 884 1315 884 1315 740 1199 c 0,41,42
 563 1057 563 1057 465 844 c 0,43,44
 380 653 380 653 380 464 c 0,45,46
 380 361 380 361 413 273 c 1,47,-1
 1274 1198 l 1,37,38
1371 886 m 0,48,49
 1371 1023 1371 1023 1316 1131 c 1,50,-1
 450 201 l 1,51,52
 498 125 498 125 577 82 c 0,53,54
 643 46 643 46 707 46 c 0,55,56
 918 46 918 46 1081 205 c 0,57,58
 1219 342 1219 342 1300 552 c 0,59,60
 1371 734 1371 734 1371 886 c 0,48,49
EndSplineSet
EndChar

StartChar: Thorn
Encoding: 222 222 157
Width: 1159
GlyphClass: 2
Flags: W
AnchorPoint: "above" 930 1415 basechar 0
LayerCount: 2
Fore
SplineSet
1238 1003 m 0,0,1
 1238 730 1238 730 1094.5 502.5 c 128,-1,2
 951 275 951 275 735.5 130.5 c 128,-1,3
 520 -14 520 -14 338 -27 c 0,4,5
 310 -28 310 -28 302 -53 c 2,6,-1
 241 -275 l 2,7,8
 226 -325 226 -325 116 -399 c 2,9,-1
 -71 -516 l 2,10,11
 -77 -521 -77 -521 -87 -521 c 0,12,13
 -112 -521 -112 -521 -124 -486 c 0,14,15
 -128 -474 -128 -474 -128 -455 c 128,-1,16
 -128 -436 -128 -436 -111 -424 c 2,17,-1
 25 -335 l 2,18,19
 90 -286 90 -286 105 -233 c 2,20,-1
 488 1103 l 2,21,22
 496 1130 496 1130 496 1152 c 0,23,24
 496 1239 496 1239 353 1239 c 0,25,26
 345 1239 345 1239 345 1260 c 128,-1,27
 345 1281 345 1281 356 1298 c 128,-1,28
 367 1315 367 1315 373 1315 c 0,29,30
 479 1315 479 1315 656 1375 c 0,31,32
 682 1384 682 1384 699.5 1384 c 128,-1,33
 717 1384 717 1384 717 1365 c 0,34,35
 717 1358 717 1358 707 1328 c 2,36,-1
 644 1135 l 2,37,38
 640 1123 640 1123 640 1114.5 c 128,-1,39
 640 1106 640 1106 647.5 1106 c 128,-1,40
 655 1106 655 1106 702.5 1132 c 128,-1,41
 750 1158 750 1158 844 1221 c 128,-1,42
 938 1284 938 1284 981 1306 c 128,-1,43
 1024 1328 1024 1328 1077 1328 c 0,44,45
 1158 1328 1158 1328 1198 1224.5 c 128,-1,46
 1238 1121 1238 1121 1238 1003 c 0,0,1
1075 906 m 0,47,48
 1075 1000 1075 1000 1039 1105.5 c 128,-1,49
 1003 1211 1003 1211 951 1211 c 0,50,51
 932 1211 932 1211 908 1196 c 0,52,53
 842 1146 842 1146 649 1033 c 0,54,55
 608 1012 608 1012 592 957 c 2,56,-1
 338 73 l 2,57,58
 336 66 336 66 336 57 c 128,-1,59
 336 48 336 48 355 48 c 0,60,61
 519 55 519 55 711 205 c 128,-1,62
 903 355 903 355 989 560.5 c 128,-1,63
 1075 766 1075 766 1075 906 c 0,47,48
EndSplineSet
Substitution2: "'ss19' Latin to Gothic transliteration subtable" u10338
Substitution2: "'ss01' Style Set 1 in Latin lookup 12" Thorn.nordic
Substitution2: "'locl' Localized Forms in Latin lookup 8" Thorn.nordic
Comment: "last+AD0A-63" 
Colour: ffffff
EndChar

StartChar: germandbls
Encoding: 223 223 158
Width: 926
GlyphClass: 2
Flags: W
LayerCount: 2
Fore
SplineSet
850 222 m 256,0,1
 850 118 850 118 762 45.5 c 128,-1,2
 674 -27 674 -27 559 -27 c 0,3,4
 499 -27 499 -27 461.5 10.5 c 128,-1,5
 424 48 424 48 424 82 c 0,6,7
 424 162 424 162 480 162 c 256,8,9
 536 162 536 162 564 119.5 c 128,-1,10
 592 77 592 77 607 66 c 128,-1,11
 622 55 622 55 657 55 c 0,12,13
 739 55 739 55 739 176 c 0,14,15
 739 240 739 240 649 366 c 128,-1,16
 559 492 559 492 559 592 c 0,17,18
 559 725 559 725 611 827.5 c 128,-1,19
 663 930 663 930 787.5 1010.5 c 128,-1,20
 912 1091 912 1091 968 1144.5 c 128,-1,21
 1024 1198 1024 1198 1024 1273 c 256,22,23
 1024 1333 1024 1333 985.5 1364 c 128,-1,24
 947 1395 947 1395 894 1395 c 256,25,26
 830 1395 830 1395 776.5 1366.5 c 128,-1,27
 723 1338 723 1338 629.5 1257 c 128,-1,28
 536 1176 536 1176 455.5 979 c 128,-1,29
 375 782 375 782 346 633 c 10,30,-1
 201 -111 l 2,31,32
 175 -243 175 -243 135 -340.5 c 128,-1,33
 95 -438 95 -438 22.5 -494.5 c 128,-1,34
 -50 -551 -50 -551 -154 -551 c 0,35,36
 -221 -551 -221 -551 -263 -515 c 128,-1,37
 -305 -479 -305 -479 -305 -441.5 c 128,-1,38
 -305 -404 -305 -404 -282 -385.5 c 128,-1,39
 -259 -367 -259 -367 -242 -367 c 0,40,41
 -181 -367 -181 -367 -155 -417 c 128,-1,42
 -129 -467 -129 -467 -90 -467 c 256,43,44
 -47 -467 -47 -467 -6.5 -410.5 c 128,-1,45
 34 -354 34 -354 45 -297 c 10,46,-1
 225 633 l 18,47,48
 270 868 270 868 359.5 1038.5 c 128,-1,49
 449 1209 449 1209 555.5 1299 c 128,-1,50
 662 1389 662 1389 750 1426.5 c 128,-1,51
 838 1464 838 1464 940 1464 c 256,52,53
 1042 1464 1042 1464 1103.5 1409 c 128,-1,54
 1165 1354 1165 1354 1165 1284 c 0,55,56
 1165 1168 1165 1168 1044 1096 c 2,57,-1
 811 958 l 2,58,59
 672 876 672 876 672 684 c 0,60,61
 672 585 672 585 761 455.5 c 128,-1,62
 850 326 850 326 850 222 c 256,0,1
EndSplineSet
Comment: "last+AD0A-62" 
Colour: ffffff
EndChar

StartChar: ae
Encoding: 230 230 165
Width: 1004
GlyphClass: 2
Flags: W
AnchorPoint: "above" 874 900 basechar 0
LayerCount: 2
Fore
SplineSet
1030 737 m 0,0,1
 1030 600 1030 600 865.5 492 c 128,-1,2
 701 384 701 384 549 356 c 1,3,4
 535 283 535 283 535 238 c 0,5,6
 535 72 535 72 645 72 c 0,7,8
 681 72 681 72 718 88 c 128,-1,9
 755 104 755 104 868 197 c 0,10,11
 872 200 872 200 876 200 c 0,12,13
 902 200 902 200 902 172 c 0,14,15
 902 167 902 167 899 164 c 0,16,17
 750 -27 750 -27 606 -27 c 0,18,19
 474 -27 474 -27 428 76 c 1,20,21
 298 -27 298 -27 154 -27 c 0,22,23
 96 -27 96 -27 63.5 20.5 c 128,-1,24
 31 68 31 68 31 141 c 0,25,26
 31 396 31 396 327.5 624 c 128,-1,27
 624 852 624 852 895 852 c 0,28,29
 1030 852 1030 852 1030 737 c 0,0,1
887 711 m 0,30,31
 887 772 887 772 834 772 c 0,32,33
 761 772 761 772 685.5 667 c 128,-1,34
 610 562 610 562 567 420 c 1,35,36
 686 445 686 445 786.5 522.5 c 128,-1,37
 887 600 887 600 887 711 c 0,30,31
403 215 m 0,38,39
 403 331 403 331 474.5 477 c 128,-1,40
 546 623 546 623 653 727 c 1,41,-1
 647 733 l 1,42,43
 457 649 457 649 317.5 483.5 c 128,-1,44
 178 318 178 318 178 176 c 0,45,46
 178 82 178 82 238 82 c 0,47,48
 319 82 319 82 408 147 c 1,49,50
 403 209 403 209 403 215 c 0,38,39
EndSplineSet
Comment: "last+AD0A-50" 
Colour: ffffff
EndChar

StartChar: ccedilla
Encoding: 231 231 166
Width: 674
GlyphClass: 2
Flags: W
LayerCount: 2
Fore
SplineSet
383 -256.5 m 128,-1,1
 383 -327 383 -327 317 -375.5 c 128,-1,2
 251 -424 251 -424 174 -424 c 0,3,4
 72 -424 72 -424 72 -358 c 0,5,6
 72 -309 72 -309 123 -309 c 0,7,8
 143 -309 143 -309 173 -339 c 128,-1,9
 203 -369 203 -369 215 -369 c 0,10,11
 272 -368 272 -368 272 -298 c 0,12,13
 272 -235 272 -235 181 -187 c 0,14,15
 160 -176 160 -176 173 -157 c 2,16,-1
 272 -25 l 1,17,18
 200 -14 200 -14 154 52 c 0,19,20
 98 132 98 132 98 256 c 0,21,22
 98 459 98 459 241.5 655.5 c 128,-1,23
 385 852 385 852 557 852 c 0,24,25
 619 852 619 852 670 822.5 c 128,-1,26
 721 793 721 793 721 754 c 0,27,28
 721 722 721 722 696 699.5 c 128,-1,29
 671 677 671 677 645 677 c 0,30,31
 618 677 618 677 608 696 c 1,32,33
 599 753 599 753 593 762 c 0,34,35
 573 788 573 788 504 788 c 0,36,37
 414 788 414 788 324 626.5 c 128,-1,38
 234 465 234 465 233 324 c 0,39,40
 233 203 233 203 270.5 133 c 128,-1,41
 308 63 308 63 369 63 c 0,42,43
 432 63 432 63 470 84.5 c 128,-1,44
 508 106 508 106 551 145 c 0,45,46
 556 149 556 149 569 145.5 c 128,-1,47
 582 142 582 142 585.5 130.5 c 128,-1,48
 589 119 589 119 584 113 c 0,49,50
 463 -8 463 -8 339 -24 c 1,51,-1
 297 -80 l 2,52,53
 279 -103 279 -103 307 -125 c 0,54,0
 383 -186 383 -186 383 -256.5 c 128,-1,1
EndSplineSet
Ligature2: "'ccmp' Glyph Composition/Decomposition in Latin single" c uni0327
LCarets2: 1 0 
EndChar

StartChar: eth
Encoding: 240 240 175
Width: 827
GlyphClass: 2
Flags: W
AnchorPoint: "above" 564 1545 basechar 0
LayerCount: 2
Fore
SplineSet
686 627 m 0,0,1
 686 768 686 768 553 768 c 0,2,3
 453 768 453 768 335 580 c 128,-1,4
 217 392 217 392 217 215 c 0,5,6
 217 57 217 57 358 57 c 0,7,8
 460 57 460 57 573 249 c 128,-1,9
 686 441 686 441 686 627 c 0,0,1
817 645 m 0,10,11
 817 340 817 340 685 156.5 c 128,-1,12
 553 -27 553 -27 336 -27 c 0,13,14
 96 -27 96 -27 96 303 c 0,15,16
 96 522 96 522 249 687 c 128,-1,17
 402 852 402 852 567 852 c 0,18,19
 607 852 607 852 633 844 c 1,20,21
 573 963 573 963 463 1053 c 1,22,-1
 170 864 l 2,23,24
 166 862 166 862 163 862 c 0,25,26
 149 862 149 862 117 967 c 0,27,28
 109 995 109 995 115 995 c 0,29,30
 117 995 117 995 148.5 977 c 128,-1,31
 180 959 180 959 204 959 c 128,-1,32
 228 959 228 959 246 971 c 2,33,-1
 422 1085 l 1,34,35
 312 1168 312 1168 125 1245 c 0,36,37
 117 1248 117 1248 117 1263.5 c 128,-1,38
 117 1279 117 1279 132 1294.5 c 128,-1,39
 147 1310 147 1310 156 1307 c 0,40,41
 362 1238 362 1238 508 1141 c 1,42,-1
 809 1339 l 2,43,44
 813 1341 813 1341 816 1341 c 0,45,46
 835 1341 835 1341 873 1258 c 0,47,48
 891 1219 891 1219 881 1219 c 1,49,50
 875 1219 875 1219 836.5 1231 c 128,-1,51
 798 1243 798 1243 777 1243 c 128,-1,52
 756 1243 756 1243 743 1235 c 2,53,-1
 553 1112 l 1,54,55
 817 914 817 914 817 645 c 0,10,11
EndSplineSet
Substitution2: "Single Substitution untagged lookup-1" eth.alt
Substitution2: "'ss01' Style Set 1 in Latin lookup 12" eth.nordic
Substitution2: "'locl' Localized Forms in Latin lookup 8" eth.nordic
Comment: "last+AD0A-55" 
Colour: ffffff
EndChar

StartChar: divide
Encoding: 247 247 182
Width: 1051
GlyphClass: 2
Flags: W
LayerCount: 2
Fore
SplineSet
624 124 m 128,-1,1
 624 85 624 85 597.5 60.5 c 128,-1,2
 571 36 571 36 525.5 36 c 128,-1,3
 480 36 480 36 455 65.5 c 128,-1,4
 430 95 430 95 430 129.5 c 128,-1,5
 430 164 430 164 455.5 194 c 128,-1,6
 481 224 481 224 529.5 224 c 128,-1,7
 578 224 578 224 601 193.5 c 128,-1,0
 624 163 624 163 624 124 c 128,-1,1
624 703.5 m 128,-1,9
 624 664 624 664 597.5 639.5 c 128,-1,10
 571 615 571 615 525.5 615 c 128,-1,11
 480 615 480 615 455 644.5 c 128,-1,12
 430 674 430 674 430 708.5 c 128,-1,13
 430 743 430 743 455.5 773.5 c 128,-1,14
 481 804 481 804 529.5 804 c 128,-1,15
 578 804 578 804 601 773.5 c 128,-1,8
 624 743 624 743 624 703.5 c 128,-1,9
934 371 m 1,16,-1
 119 371 l 1,17,-1
 119 471 l 1,18,-1
 934 471 l 1,19,-1
 934 371 l 1,16,-1
EndSplineSet
Comment: "last+AD0A-19" 
Colour: ffffff
EndChar

StartChar: oslash
Encoding: 248 248 183
Width: 838
GlyphClass: 2
Flags: W
AnchorPoint: "below" 327 -75 basechar 0
AnchorPoint: "above" 594 900 basechar 0
LayerCount: 2
Fore
SplineSet
757 922 m 0,0,1
 775 922 775 922 794 903 c 0,2,3
 802 895 802 895 802 889 c 0,4,5
 802 886 802 886 801 885 c 2,6,-1
 738 789 l 1,7,8
 818 706 818 706 819 537 c 2,9,-1
 816 467 l 2,10,11
 798 303 798 303 693 163 c 0,12,13
 552 -27 552 -27 338 -27 c 0,14,15
 275 -27 275 -27 226 1 c 1,16,-1
 158 -103 l 2,17,18
 154 -109 154 -109 146 -109 c 0,19,20
 128 -109 128 -109 112 -90 c 0,21,22
 105 -82 105 -82 105 -76 c 1,23,-1
 107 -70 l 1,24,-1
 178 39 l 1,25,26
 96 127 96 127 96 305 c 0,27,28
 96 501 96 501 247 676 c 0,29,30
 399 852 399 852 578 852 c 0,31,32
 640 852 640 852 689 826 c 1,33,-1
 749 918 l 1,34,35
 750 922 750 922 757 922 c 0,0,1
346 68 m 0,36,37
 433 68 433 68 538 196 c 0,38,39
 639 318 639 318 685 464 c 0,40,41
 707 534 707 534 707 588 c 0,42,43
 707 664 707 664 687 709 c 1,44,-1
 280 84 l 1,45,46
 308 68 308 68 346 68 c 0,36,37
578 768 m 0,47,48
 483 768 483 768 377 636 c 0,49,50
 277 510 277 510 233 357 c 0,51,52
 213 287 213 287 213 231 c 0,53,54
 213 169 213 169 236 128 c 1,55,-1
 643 756 l 1,56,57
 619 768 619 768 578 768 c 0,47,48
EndSplineSet
EndChar

StartChar: thorn
Encoding: 254 254 189
Width: 838
GlyphClass: 2
Flags: W
AnchorPoint: "above" 612 1545 basechar 0
LayerCount: 2
Back
SplineSet
108 -24 m 2,18,-1
 351 1038 l 2,19,20
EndSplineSet
Fore
SplineSet
838 682 m 0,0,1
 838 598 838 598 800.5 476.5 c 128,-1,2
 763 355 763 355 649 235 c 128,-1,3
 535 115 535 115 419.5 45 c 128,-1,4
 304 -25 304 -25 229 -25 c 1,5,-1
 154 -410 l 2,6,7
 147 -448 147 -448 117.5 -482.5 c 128,-1,8
 88 -517 88 -517 5 -538 c 128,-1,9
 -78 -559 -78 -559 -86 -559 c 256,10,11
 -96 -559 -96 -559 -102 -538 c 0,12,13
 -105 -528 -105 -528 -105 -522 c 0,14,15
 -105 -514 -105 -514 -100 -512 c 0,16,17
 -59 -500 -59 -500 -14 -461 c 128,-1,18
 31 -422 31 -422 39 -379 c 2,19,-1
 337 1187 l 2,20,21
 346 1234 346 1234 346 1262 c 0,22,23
 346 1359 346 1359 259 1359 c 0,24,25
 244 1359 244 1359 244 1385.5 c 128,-1,26
 244 1412 244 1412 259 1412 c 0,27,28
 327 1412 327 1412 407 1448 c 128,-1,29
 487 1484 487 1484 493 1484 c 0,30,31
 508 1484 508 1484 505 1466 c 2,32,-1
 348 612 l 1,33,34
 489 852 489 852 666 852 c 0,35,36
 838 852 838 852 838 682 c 0,0,1
705 672 m 0,37,38
 705 782 705 782 610 782 c 0,39,40
 536 782 536 782 436.5 669.5 c 128,-1,41
 337 557 337 557 315 438 c 2,42,-1
 238 31 l 1,43,44
 336 31 336 31 483.5 172.5 c 128,-1,45
 631 314 631 314 668 449.5 c 128,-1,46
 705 585 705 585 705 672 c 0,37,38
EndSplineSet
Substitution2: "'ss19' Latin to Gothic transliteration subtable" u10338
Substitution2: "'ss01' Style Set 1 in Latin lookup 12" thorn.nordic
Substitution2: "'locl' Localized Forms in Latin lookup 8" thorn.nordic
Comment: "last+AD0A-46" 
Colour: ffffff
EndChar

StartChar: Aogonek
Encoding: 260 260 195
Width: 1108
GlyphClass: 2
Flags: W
LayerCount: 2
Fore
SplineSet
824 629 m 2,0,-1
 886 1159 l 2,1,2
 887 1168 887 1168 874.5 1168 c 128,-1,3
 862 1168 862 1168 856 1159 c 2,4,-1
 503 629 l 1,5,6
 495 619 495 619 495 609.5 c 128,-1,7
 495 600 495 600 514 600 c 2,8,-1
 789 600 l 2,9,10
 821 600 821 600 824 629 c 2,0,-1
909 186 m 2,11,12
 908 179 908 179 908 165 c 0,13,14
 908 69 908 69 1052 69 c 0,15,16
 1060 69 1060 69 1060 48 c 128,-1,17
 1060 27 1060 27 1048.5 10 c 128,-1,18
 1037 -7 1037 -7 1032 -7 c 1,19,20
 952 -1 952 -1 842 -0 c 1,21,22
 628 -141 628 -141 628 -271.5 c 128,-1,23
 628 -402 628 -402 755 -402 c 0,24,25
 801 -402 801 -402 866 -373 c 1,26,27
 881 -376 881 -376 881 -390 c 0,28,29
 881 -396 881 -396 880 -398 c 0,30,31
 806 -488 806 -488 673 -488 c 0,32,33
 494 -488 494 -488 494 -310 c 0,34,35
 494 -163 494 -163 756 -0 c 1,36,37
 671 -1 671 -1 607 -7 c 1,38,39
 599 -7 599 -7 599.5 13.5 c 128,-1,40
 600 34 600 34 611 51.5 c 128,-1,41
 622 69 622 69 629 69 c 0,42,43
 710 69 710 69 738 99.5 c 128,-1,44
 766 130 766 130 773 186 c 2,45,-1
 810 496 l 2,46,47
 814 531 814 531 782 531 c 2,48,-1
 472 531 l 2,49,50
 441 531 441 531 424 506 c 2,51,-1
 214 182 l 2,52,53
 191 147 191 147 191 124 c 0,54,55
 191 69 191 69 323 69 c 0,56,57
 330 69 330 69 330 48 c 128,-1,58
 330 27 330 27 319 10 c 128,-1,59
 308 -7 308 -7 302 -7 c 1,60,61
 216 0 216 0 89 0 c 128,-1,62
 -38 0 -38 0 -124 -7 c 1,63,64
 -132 -7 -132 -7 -132 13 c 128,-1,65
 -132 33 -132 33 -121 51 c 128,-1,66
 -110 69 -110 69 -104 69 c 0,67,68
 -28 69 -28 69 22 91 c 128,-1,69
 72 113 72 113 132 201 c 2,70,-1
 806 1199 l 2,71,72
 822 1222 822 1222 822 1237 c 0,73,74
 822 1244 822 1244 814 1255 c 128,-1,75
 806 1266 806 1266 806 1273 c 0,76,77
 806 1283 806 1283 831 1293 c 0,78,79
 929 1332 929 1332 976.5 1358.5 c 128,-1,80
 1024 1385 1024 1385 1039.5 1385 c 128,-1,81
 1055 1385 1055 1385 1055 1367 c 0,82,83
 1055 1360 1055 1360 1046.5 1322 c 128,-1,84
 1038 1284 1038 1284 1026 1179 c 2,85,-1
 909 186 l 2,11,12
EndSplineSet
Ligature2: "'ccmp' Glyph Composition/Decomposition in Latin single" A uni0328
LCarets2: 1 0 
EndChar

StartChar: aogonek
Encoding: 261 261 196
Width: 918
GlyphClass: 2
Flags: W
AnchorPoint: "above" 612 900 basechar 0
LayerCount: 2
Fore
SplineSet
680 -398 m 0,0,1
 606 -488 606 -488 473 -488 c 0,2,3
 294 -488 294 -488 294 -310 c 0,4,5
 294 -165 294 -165 549 -5 c 1,6,7
 535 15 535 15 535 52 c 0,8,9
 535 108 535 108 559 172 c 2,10,-1
 602 287 l 1,11,-1
 590 291 l 1,12,13
 352 -27 352 -27 186 -27 c 0,14,15
 126 -27 126 -27 94.5 21 c 128,-1,16
 63 69 63 69 63 141 c 0,17,18
 63 352 63 352 236.5 598 c 128,-1,19
 410 844 410 844 604 844 c 0,20,21
 676 844 676 844 737 788 c 1,22,-1
 761 858 l 2,23,24
 769 882 769 882 824.5 882 c 128,-1,25
 880 882 880 882 880 863 c 0,26,27
 880 861 880 861 879 858 c 2,28,-1
 690 203 l 2,29,30
 680 168 680 168 680 144 c 0,31,32
 680 103 680 103 712 103 c 0,33,34
 745 103 745 103 842 197 c 0,35,36
 851 206 851 206 870 186 c 0,37,38
 883 172 883 172 884 164 c 0,39,40
 884 160 884 160 881 156 c 0,41,42
 815 75 815 75 735 24 c 0,43,44
 660 -24 660 -24 603 -27 c 1,45,46
 428 -154 428 -154 428 -272 c 0,47,48
 428 -402 428 -402 555 -402 c 0,49,50
 601 -402 601 -402 666 -373 c 1,51,52
 681 -376 681 -376 681 -390 c 0,53,54
 681 -396 681 -396 680 -398 c 0,0,1
664 543 m 2,55,-1
 709 694 l 1,56,57
 666 778 666 778 578 778 c 0,58,59
 442 778 442 778 326.5 558 c 128,-1,60
 211 338 211 338 211 176 c 0,61,62
 211 82 211 82 270 82 c 0,63,64
 325 82 325 82 425 182.5 c 128,-1,65
 525 283 525 283 581.5 369 c 128,-1,66
 638 455 638 455 664 543 c 2,55,-1
EndSplineSet
Ligature2: "'ccmp' Glyph Composition/Decomposition in Latin single" a uni0328
LCarets2: 1 0 
EndChar

